<?xml version="1.0" standalone="no"?>
<!DOCTYPE svg PUBLIC "-//W3C//DTD SVG 1.1//EN" "http://www.w3.org/Graphics/SVG/1.1/DTD/svg11.dtd" >
<svg>
<metadata>
Created by FontForge 20120731 at Tue May 14 19:58:14 2019
 By www-data
Copyright (c) 2014, Cooper Hewitt Smithsonian Design Museum (cooperhewitt.org)
</metadata>
<defs>
<font id="CooperHewitt-Book" horiz-adv-x="300" >
  <font-face 
    font-family="Cooper Hewitt Book"
    font-weight="705"
    font-stretch="normal"
    units-per-em="1000"
    panose-1="0 0 0 0 0 0 0 0 0 0"
    ascent="750"
    descent="-250"
    x-height="530"
    cap-height="780"
    bbox="-220 -214 1379 962"
    underline-thickness="50"
    underline-position="-50"
    unicode-range="U+0020-F222"
  />
<missing-glyph horiz-adv-x="968" 
d="M94 0v780h780v-780h-780zM484 345l-279 -279h558zM205 714l279 -279l279 279h-558zM439 390l-275 275v-550zM529 390l275 -275v550z" />
    <glyph glyph-name=".notdef" horiz-adv-x="968" 
d="M94 0v780h780v-780h-780zM484 345l-279 -279h558zM205 714l279 -279l279 279h-558zM439 390l-275 275v-550zM529 390l275 -275v550z" />
    <glyph glyph-name="space" unicode=" " horiz-adv-x="200" 
 />
    <glyph glyph-name="OE" unicode="&#x152;" horiz-adv-x="940" 
d="M57 410c0 270 111 370 301 370h542v-65h-363v-285h313v-64h-313v-301h363v-65h-542c-190 0 -301 100 -301 370v40zM465 715h-101c-149 0 -233 -83 -233 -305v-40c0 -222 84 -305 233 -305h101v650z" />
    <glyph glyph-name="a" unicode="a" horiz-adv-x="512" 
d="M396 0l-11 74c-35 -46 -95 -85 -187 -85c-97 0 -153 60 -153 145v10c0 115 87 148 173 161l160 25v14c0 91 -29 138 -123 138c-100 0 -123 -58 -123 -127h-67v9c0 80 35 177 191 177c147 0 192 -80 192 -197v-194l6 -150h-58zM216 50c98 0 143 53 162 84v145l-154 -25
c-68 -12 -109 -45 -109 -105v-9c0 -47 30 -90 101 -90z" />
    <glyph glyph-name="b" unicode="b" horiz-adv-x="537" 
d="M136 800v-331c28 40 76 72 150 72c145 0 203 -117 203 -264v-24c0 -147 -58 -264 -203 -264c-81 0 -130 37 -158 83l-10 -72h-58l6 150v650h70zM136 396v-262c21 -35 62 -82 134 -82c100 0 147 78 147 201v24c0 123 -47 201 -147 201c-72 0 -113 -47 -134 -82z" />
    <glyph glyph-name="c" unicode="c" horiz-adv-x="522" 
d="M120 253c0 -121 46 -201 151 -201c99 0 135 63 135 132h67v-16c0 -84 -57 -179 -203 -179c-155 0 -221 117 -221 264v24c0 147 66 264 221 264c146 0 203 -99 203 -185v-20h-67c0 81 -39 142 -135 142c-105 0 -151 -80 -151 -201v-24z" />
    <glyph glyph-name="d" unicode="d" horiz-adv-x="540" 
d="M254 541c74 0 121 -32 150 -72v331h70v-650l6 -150h-59l-10 71c-27 -45 -77 -82 -157 -82c-145 0 -203 117 -203 264v24c0 147 58 264 203 264zM269 52c72 0 113 47 135 82v262c-22 35 -63 82 -135 82c-100 0 -147 -78 -147 -201v-24c0 -123 47 -201 147 -201z" />
    <glyph glyph-name="e" unicode="e" horiz-adv-x="544" 
d="M495 236h-375c3 -116 52 -188 158 -188s150 65 150 122h67v-4c0 -82 -68 -177 -217 -177c-160 0 -229 118 -229 265v22c0 147 69 265 224 265s222 -118 222 -265v-40zM272 482c-100 0 -149 -73 -152 -188h304c-4 115 -51 188 -152 188z" />
    <glyph glyph-name="f" unicode="f" horiz-adv-x="380" 
d="M185 644v-114h149v-63h-149v-467h-70v467h-84v63h84v123c0 115 65 158 155 158c42 0 66 -8 74 -11v-61c-8 4 -35 9 -57 9c-67 0 -102 -20 -102 -104z" />
    <glyph glyph-name="g" unicode="g" horiz-adv-x="537" 
d="M402 -1v98c-29 -40 -76 -70 -150 -70c-144 0 -203 111 -203 246v22c0 133 59 246 203 246c81 0 130 -37 158 -82l10 71h58l-6 -150v-385c0 -119 -57 -206 -208 -206c-153 0 -205 89 -205 198v13h67c0 -100 38 -150 137 -150c102 0 139 52 139 149zM402 396
c-22 35 -62 82 -135 82c-99 0 -147 -74 -147 -183v-22c0 -111 48 -183 147 -183c73 0 113 47 135 81v225z" />
    <glyph glyph-name="h" unicode="h" horiz-adv-x="528" 
d="M136 800v-334c32 42 86 75 170 75c105 0 161 -71 161 -170v-371h-70v361c0 80 -45 117 -115 117c-83 0 -124 -47 -146 -82v-396h-70v800h70z" />
    <glyph glyph-name="i" unicode="i" horiz-adv-x="216" 
d="M73 0v530h70v-530h-70zM153 745v-90h-90v90h90z" />
    <glyph glyph-name="j" unicode="j" horiz-adv-x="216" 
d="M73 -44v574h70v-583c0 -115 -65 -158 -155 -158c-42 0 -66 8 -74 11v61c9 -4 35 -9 57 -9c67 0 102 20 102 104zM153 745v-90h-90v90h90z" />
    <glyph glyph-name="k" unicode="k" horiz-adv-x="501" 
d="M65 0v800h70v-550l252 280h87l-182 -201l182 -329h-80l-150 276l-109 -120v-156h-70z" />
    <glyph glyph-name="l" unicode="l" horiz-adv-x="216" 
d="M73 0v800h70v-800h-70z" />
    <glyph glyph-name="m" unicode="m" horiz-adv-x="805" 
d="M744 0h-70v374c0 81 -42 104 -102 104c-74 0 -110 -46 -132 -80v-398h-70v374c0 81 -42 104 -102 104c-74 0 -110 -46 -132 -80v-398h-70v380l-6 150h58l10 -72c29 45 81 83 164 83c70 0 117 -31 137 -88c28 48 81 88 167 88c95 0 148 -57 148 -157v-384z" />
    <glyph glyph-name="n" unicode="n" horiz-adv-x="528" 
d="M467 0h-70v361c0 80 -45 117 -115 117c-83 0 -124 -47 -146 -82v-396h-70v380l-6 150h58l10 -75c31 47 87 86 178 86c105 0 161 -71 161 -170v-371z" />
    <glyph glyph-name="o" unicode="o" horiz-adv-x="544" 
d="M272 -11c-156 0 -223 117 -223 264v24c0 147 67 264 223 264s223 -117 223 -264v-24c0 -147 -67 -264 -223 -264zM272 52c105 0 152 80 152 201v24c0 121 -47 201 -152 201s-152 -80 -152 -201v-24c0 -121 47 -201 152 -201z" />
    <glyph glyph-name="p" unicode="p" horiz-adv-x="537" 
d="M286 -11c-74 0 -122 31 -150 71v-260h-70v580l-6 150h58l10 -72c28 45 77 83 158 83c145 0 203 -117 203 -264v-24c0 -147 -58 -264 -203 -264zM136 396v-262c21 -35 62 -82 134 -82c100 0 147 78 147 201v24c0 123 -47 201 -147 201c-72 0 -113 -47 -134 -82z" />
    <glyph glyph-name="q" unicode="q" horiz-adv-x="539" 
d="M403 -200v262c-29 -41 -77 -73 -151 -73c-145 0 -203 117 -203 264v24c0 147 58 264 203 264c81 0 130 -38 158 -84l10 73h59l-7 -150v-580h-69zM403 396c-22 35 -63 82 -135 82c-100 0 -147 -78 -147 -201v-24c0 -123 47 -201 147 -201c72 0 113 47 135 82v262z" />
    <glyph glyph-name="r" unicode="r" horiz-adv-x="333" 
d="M276 541c7 0 14 -1 15 -1v-67h-14c-80 0 -119 -45 -141 -80v-393h-70v380l-6 150h58l10 -70c28 44 77 81 148 81z" />
    <glyph glyph-name="s" unicode="s" horiz-adv-x="522" 
d="M261 48c86 0 132 38 132 97c0 72 -42 89 -145 98c-143 12 -184 62 -184 141v6c0 92 73 151 197 151c145 0 198 -74 198 -178v-4h-69c0 76 -30 123 -129 123c-80 0 -127 -33 -127 -92c0 -55 26 -85 141 -94c133 -11 190 -49 190 -146v-5c0 -92 -73 -156 -204 -156
c-150 0 -204 88 -204 169v4h70c0 -58 29 -114 134 -114z" />
    <glyph glyph-name="t" unicode="t" horiz-adv-x="400" 
d="M185 530h169v-63h-169v-311c0 -84 35 -104 102 -104c22 0 49 5 57 9v-61c-8 -3 -32 -11 -74 -11c-90 0 -155 43 -155 158v320h-84v63h84v150h70v-150z" />
    <glyph glyph-name="u" unicode="u" horiz-adv-x="528" 
d="M61 530h69v-361c0 -80 45 -117 115 -117c84 0 125 47 147 82v396h70v-380l6 -150h-58l-11 74c-30 -47 -87 -85 -177 -85c-106 0 -161 71 -161 170v371z" />
    <glyph glyph-name="v" unicode="v" horiz-adv-x="512" 
d="M210 0l-185 530h75l156 -464l157 464h75l-186 -530h-92z" />
    <glyph glyph-name="w" unicode="w" horiz-adv-x="717" 
d="M358 452l-121 -452h-92l-114 530h70l92 -457l123 457h85l123 -457l92 457h70l-114 -530h-93z" />
    <glyph glyph-name="x" unicode="x" horiz-adv-x="485" 
d="M23 530h83l136 -217l137 217h83l-167 -262l167 -268h-83l-137 223l-136 -223h-83l166 268z" />
    <glyph glyph-name="y" unicode="y" horiz-adv-x="484" 
d="M249 97l152 433h75l-190 -510l-75 -220h-81l83 220l-190 510h75z" />
    <glyph glyph-name="z" unicode="z" horiz-adv-x="463" 
d="M36 48l291 420l-118 -1h-163v63h371v-48l-292 -420l118 1h184v-63h-391v48z" />
    <glyph glyph-name="ampersand" unicode="&#x26;" horiz-adv-x="661" 
d="M265 -11c-138 0 -223 79 -223 214v10c0 100 59 161 127 209c-63 69 -100 118 -100 197v10c0 92 64 162 185 162c122 0 186 -70 186 -162v-10c0 -98 -87 -152 -170 -206l213 -231c26 51 42 120 42 209v3h73c0 -113 -25 -201 -66 -266l118 -128h-91l-70 75
c-59 -58 -137 -86 -224 -86zM269 54h6c61 0 122 21 168 71l-229 249c-56 -41 -100 -88 -100 -158v-9c0 -91 49 -153 155 -153zM141 628v-9c0 -63 37 -110 84 -159c74 47 142 89 142 159v9c0 52 -36 99 -109 99h-7c-73 0 -110 -47 -110 -99z" />
    <glyph glyph-name="period" unicode="." horiz-adv-x="216" 
d="M153 90v-90h-90v90h90z" />
    <glyph glyph-name="comma" unicode="," horiz-adv-x="216" 
d="M153 90v-72c0 -91 -39 -136 -113 -136v42c41 0 66 19 70 76h-47v90h90z" />
    <glyph glyph-name="colon" unicode=":" horiz-adv-x="216" 
d="M153 90v-90h-90v90h90zM153 435v-90h-90v90h90z" />
    <glyph glyph-name="semicolon" unicode=";" horiz-adv-x="216" 
d="M153 90v-72c0 -91 -39 -136 -113 -136v42c41 0 66 19 70 76h-47v90h90zM153 435v-90h-90v90h90z" />
    <glyph glyph-name="ellipsis" unicode="&#x2026;" horiz-adv-x="1000" 
d="M223 90v-90h-90v90h90zM545 90v-90h-90v90h90zM867 90v-90h-90v90h90z" />
    <glyph glyph-name="exclam" unicode="!" horiz-adv-x="216" 
d="M65 780h86l-19 -591h-48zM153 90v-90h-90v90h90z" />
    <glyph glyph-name="question" unicode="?" horiz-adv-x="455" 
d="M231 726c-105 0 -134 -85 -134 -222h-71v12c0 156 42 275 205 275c140 0 196 -83 196 -208c0 -199 -170 -193 -177 -394h-47c-7 201 151 247 151 387c0 93 -27 150 -123 150zM271 90v-90h-90v90h90z" />
    <glyph glyph-name="questiondown" unicode="&#xbf;" horiz-adv-x="455" 
d="M224 -146c105 0 133 78 133 206h72v-12c0 -147 -42 -259 -205 -259c-132 0 -196 74 -196 182c0 198 170 194 177 370h47c7 -176 -151 -225 -151 -363c0 -76 35 -124 123 -124zM184 440v90h90v-90h-90z" />
    <glyph glyph-name="questiondown.cap" unicode="&#xe444;" horiz-adv-x="455" 
d="M224 54c105 0 134 85 134 222h71v-12c0 -156 -42 -275 -205 -275c-140 0 -196 83 -196 208c0 199 170 193 177 394h47c7 -201 -151 -247 -151 -387c0 -93 27 -150 123 -150zM184 690v90h90v-90h-90z" />
    <glyph glyph-name="quoteleft" unicode="&#x2018;" horiz-adv-x="216" 
d="M63 586v72c0 91 39 136 113 136v-42c-42 0 -67 -19 -71 -76h48v-90h-90z" />
    <glyph glyph-name="quoteright" unicode="&#x2019;" horiz-adv-x="216" 
d="M153 780v-72c0 -91 -39 -136 -113 -136v42c41 0 66 19 70 76h-47v90h90z" />
    <glyph glyph-name="quotedblleft" unicode="&#x201c;" horiz-adv-x="362" 
d="M209 586v72c0 91 39 136 113 136v-42c-42 0 -67 -19 -71 -76h48v-90h-90zM63 586v72c0 91 39 136 113 136v-42c-42 0 -67 -19 -71 -76h48v-90h-90z" />
    <glyph glyph-name="quotedblright" unicode="&#x201d;" horiz-adv-x="362" 
d="M153 780v-72c0 -91 -39 -136 -113 -136v42c41 0 66 19 70 76h-47v90h90zM299 780v-72c0 -91 -39 -136 -113 -136v42c41 0 66 19 70 76h-47v90h90z" />
    <glyph glyph-name="quotesinglbase" unicode="&#x201a;" horiz-adv-x="216" 
d="M153 90v-72c0 -91 -39 -136 -113 -136v42c41 0 66 19 70 76h-47v90h90z" />
    <glyph glyph-name="quotedblbase" unicode="&#x201e;" horiz-adv-x="362" 
d="M153 90v-72c0 -91 -39 -136 -113 -136v42c41 0 66 19 70 76h-47v90h90zM299 90v-72c0 -91 -39 -136 -113 -136v42c41 0 66 19 70 76h-47v90h90z" />
    <glyph glyph-name="reversequoteleft" unicode="&#x201b;" horiz-adv-x="216" 
d="M63 780h90v-90h-48c4 -57 29 -76 71 -76v-42c-74 0 -113 45 -113 136v72z" />
    <glyph glyph-name="reversequotedblleft" unicode="&#x201f;" horiz-adv-x="362" 
d="M209 780h90v-90h-48c4 -57 29 -76 71 -76v-42c-74 0 -113 45 -113 136v72zM63 780h90v-90h-48c4 -57 29 -76 71 -76v-42c-74 0 -113 45 -113 136v72z" />
    <glyph glyph-name="guilsinglleft" unicode="&#x2039;" horiz-adv-x="304" 
d="M254 524v-70l-149 -114l149 -114v-70l-204 153v62z" />
    <glyph glyph-name="guillemotleft" unicode="&#xab;" horiz-adv-x="517" 
d="M254 524v-70l-149 -114l149 -114v-70l-204 153v62zM467 524v-70l-150 -114l150 -114v-70l-204 153v62z" />
    <glyph glyph-name="slash" unicode="/" horiz-adv-x="330" 
d="M315 840l-230 -960h-70l230 960h70z" />
    <glyph glyph-name="backslash" unicode="\" horiz-adv-x="329" 
d="M245 -120l-230 960h70l230 -960h-70z" />
    <glyph glyph-name="bar" unicode="|" horiz-adv-x="201" 
d="M66 -120v960h70v-960h-70z" />
    <glyph glyph-name="doublebar" unicode="&#x2016;" horiz-adv-x="327" 
d="M66 -120v960h70v-960h-70zM191 -120v960h70v-960h-70z" />
    <glyph glyph-name="brokenbar" unicode="&#xa6;" horiz-adv-x="201" 
d="M66 396v444h70v-444h-70zM66 -120v444h70v-444h-70z" />
    <glyph glyph-name="bullet" unicode="&#x2022;" horiz-adv-x="397" 
d="M329 481v-262h-261v262h261z" />
    <glyph glyph-name="slash.cap" unicode="&#xe461;" horiz-adv-x="321" 
d="M100 0h-70l192 780h70z" />
    <glyph glyph-name="backslash.cap" unicode="&#xe462;" horiz-adv-x="321" 
d="M30 780h70l192 -780h-70z" />
    <glyph glyph-name="bar.cap" unicode="&#xe463;" horiz-adv-x="201" 
d="M66 0v780h70v-780h-70z" />
    <glyph glyph-name="doublebar.cap" unicode="&#xe464;" horiz-adv-x="327" 
d="M66 0v780h70v-780h-70zM191 0v780h70v-780h-70z" />
    <glyph glyph-name="brokenbar.cap" unicode="&#xe465;" horiz-adv-x="201" 
d="M66 426v354h70v-354h-70zM66 0v354h70v-354h-70z" />
    <glyph glyph-name="bullet.cap" unicode="&#xe466;" horiz-adv-x="397" 
d="M329 521v-262h-261v262h261z" />
    <glyph glyph-name="nbspace" unicode="&#xa0;" horiz-adv-x="200" 
 />
    <glyph glyph-name="enspace" unicode="&#x2002;" horiz-adv-x="500" 
 />
    <glyph glyph-name="emspace" unicode="&#x2003;" horiz-adv-x="1000" 
 />
    <glyph glyph-name="threeperemspace" unicode="&#x2004;" horiz-adv-x="333" 
 />
    <glyph glyph-name="fourperemspace" unicode="&#x2005;" horiz-adv-x="250" 
 />
    <glyph glyph-name="sixperemspace" unicode="&#x2006;" horiz-adv-x="167" 
 />
    <glyph glyph-name="figurespace" unicode="&#x2007;" horiz-adv-x="600" 
 />
    <glyph glyph-name="punctuationspace" unicode="&#x2008;" horiz-adv-x="180" 
 />
    <glyph glyph-name="thinspace" unicode="&#x2009;" horiz-adv-x="150" 
 />
    <glyph glyph-name="hairspace" unicode="&#x200a;" horiz-adv-x="50" 
 />
    <glyph glyph-name="zerowidthspace" unicode="&#x200b;" horiz-adv-x="0" 
 />
    <glyph glyph-name="periodcentered" unicode="&#xb7;" horiz-adv-x="217" 
d="M152 394v-88h-87v88h87z" />
    <glyph glyph-name="hyphen" unicode="-" horiz-adv-x="329" 
d="M40 318v64h249v-64h-249z" />
    <glyph glyph-name="uni00AD" unicode="&#xad;" horiz-adv-x="329" 
d="M40 318v64h249v-64h-249z" />
    <glyph glyph-name="onethirdemdash" unicode="&#xe471;" horiz-adv-x="333" 
d="M293 318h-253v64h253v-64z" />
    <glyph glyph-name="endash" unicode="&#x2013;" horiz-adv-x="500" 
d="M40 318v64h420v-64h-420z" />
    <glyph glyph-name="threequarteremdash" unicode="&#xe472;" horiz-adv-x="750" 
d="M40 318v64h670v-64h-670z" />
    <glyph glyph-name="emdash" unicode="&#x2014;" horiz-adv-x="1000" 
d="M40 318v64h920v-64h-920z" />
    <glyph glyph-name="figuredash" unicode="&#x2012;" horiz-adv-x="600" 
d="M40 318v64h520v-64h-520z" />
    <glyph glyph-name="uni2015" unicode="&#x2015;" horiz-adv-x="1200" 
d="M40 318v64h1120v-64h-1120z" />
    <glyph glyph-name="parenleft" unicode="(" horiz-adv-x="317" 
d="M51 350v20c0 232 72 351 155 470h77c-92 -129 -161 -255 -161 -470v-20c0 -215 69 -341 161 -470h-77c-83 119 -155 238 -155 470z" />
    <glyph glyph-name="parenright" unicode=")" horiz-adv-x="317" 
d="M266 370v-20c0 -232 -71 -351 -155 -470h-77c92 129 161 255 161 470v20c0 215 -69 341 -161 470h77c84 -119 155 -238 155 -470z" />
    <glyph glyph-name="bracketleft" unicode="[" horiz-adv-x="317" 
d="M67 840h208v-66h-137v-828h137v-66h-208v960z" />
    <glyph glyph-name="bracketright" unicode="]" horiz-adv-x="317" 
d="M250 -120h-208v66h138v828h-138v66h208v-960z" />
    <glyph glyph-name="braceleft" unicode="{" horiz-adv-x="317" 
d="M275 840v-66c-59 0 -94 -21 -94 -103v-208c0 -55 -21 -87 -54 -103c33 -17 54 -49 54 -103v-208c0 -82 35 -103 94 -103v-66h-18c-73 0 -146 30 -146 139v220c0 73 -29 88 -86 88v66c57 0 86 15 86 88v220c0 109 73 139 146 139h18z" />
    <glyph glyph-name="braceright" unicode="}" horiz-adv-x="317" 
d="M42 -120v66c59 0 94 21 94 103v208c0 54 21 86 54 103c-33 16 -54 48 -54 103v208c0 82 -35 103 -94 103v66h18c73 0 146 -30 146 -139v-220c0 -73 29 -88 86 -88v-66c-57 0 -86 -15 -86 -88v-220c0 -109 -73 -139 -146 -139h-18z" />
    <glyph glyph-name="anglebracketleft" unicode="&#x3008;" horiz-adv-x="317" 
d="M281 840l-162 -480l162 -480h-73l-162 480l162 480h73z" />
    <glyph glyph-name="anglebracketright" unicode="&#x3009;" horiz-adv-x="317" 
d="M36 -120l162 480l-162 480h73l162 -480l-162 -480h-73z" />
    <glyph glyph-name="parenleft.cap" unicode="&#xe491;" horiz-adv-x="317" 
d="M60 380v20c0 154 53 283 122 380h75c-67 -97 -126 -233 -126 -380v-20c0 -147 59 -283 126 -380h-75c-69 97 -122 226 -122 380z" />
    <glyph glyph-name="parenright.cap" unicode="&#xe492;" horiz-adv-x="317" 
d="M257 400v-20c0 -154 -53 -283 -122 -380h-75c67 97 126 233 126 380v20c0 147 -59 283 -126 380h75c69 -97 122 -226 122 -380z" />
    <glyph glyph-name="bracketleft.cap" unicode="&#xe493;" horiz-adv-x="317" 
d="M67 780h208v-66h-137v-648h137v-66h-208v780z" />
    <glyph glyph-name="bracketright.cap" unicode="&#xe494;" horiz-adv-x="317" 
d="M250 0h-208v66h138v648h-138v66h208v-780z" />
    <glyph glyph-name="braceleft.cap" unicode="&#xe495;" horiz-adv-x="317" 
d="M275 780v-66c-59 0 -94 -21 -94 -103v-118c0 -55 -21 -87 -54 -103c33 -17 54 -49 54 -103v-118c0 -82 35 -103 94 -103v-66h-18c-73 0 -146 30 -146 139v130c0 73 -29 88 -86 88v66c57 0 86 15 86 88v130c0 109 73 139 146 139h18z" />
    <glyph glyph-name="braceright.cap" unicode="&#xe496;" horiz-adv-x="317" 
d="M42 714v66h18c73 0 146 -30 146 -139v-130c0 -73 29 -88 86 -88v-66c-57 0 -86 -15 -86 -88v-130c0 -109 -73 -139 -146 -139h-18v66c59 0 94 21 94 103v118c0 54 21 86 54 103c-33 16 -54 48 -54 103v118c0 82 -35 103 -94 103z" />
    <glyph glyph-name="anglebracketleft.cap" unicode="&#xe497;" horiz-adv-x="317" 
d="M255 780l-134 -390l134 -390h-73l-134 390l134 390h73z" />
    <glyph glyph-name="anglebracketright.cap" unicode="&#xe498;" horiz-adv-x="317" 
d="M197 390l-135 390h73l135 -390l-135 -390h-73z" />
    <glyph glyph-name="asterisk" unicode="*" horiz-adv-x="389" 
d="M168 800h53l-5 -146h-43zM10 648l17 50l137 -50l-13 -40zM107 451l-43 31l90 114l34 -24zM362 698l16 -50l-140 -40l-13 40zM324 482l-42 -31l-82 121l35 24z" />
    <glyph glyph-name="dagger" unicode="&#x2020;" horiz-adv-x="389" 
d="M168 458l5 126h43l5 -126l-5 -127h-43zM168 800h53l-5 -146h-43zM21 593v52l138 -5v-42zM367 645v-52l-137 5v42z" />
    <glyph glyph-name="daggerdbl" unicode="&#x2021;" horiz-adv-x="389" 
d="M168 241l5 126h43l5 -126l-5 -126h-43zM168 800h53l-5 -146h-43zM168 511l5 73h43l5 -73l-5 -73h-43zM21 376v53l138 -5v-43zM367 429v-53l-137 5v43zM21 593v52l138 -5v-42zM367 645v-52l-137 5v42z" />
    <glyph glyph-name="asciitilde" unicode="~" horiz-adv-x="600" 
d="M177 451c106 0 159 -71 248 -71c44 0 80 34 98 56l40 -40c-24 -32 -69 -76 -140 -76c-106 0 -159 71 -248 71c-44 0 -80 -33 -98 -56l-40 40c24 33 69 76 140 76z" />
    <glyph glyph-name="underscore" unicode="_" horiz-adv-x="320" 
d="M48 -135v64h224v-64h-224z" />
    <glyph glyph-name="lowline" unicode="&#xe511;" horiz-adv-x="320" 
d="M48 0v64h224v-64h-224z" />
    <glyph glyph-name="underscoremonospace" unicode="&#xe512;" horiz-adv-x="600" 
d="M48 -135v64h504v-64h-504z" />
    <glyph glyph-name="underscoremonospace" unicode="&#xff3f;" horiz-adv-x="600" 
d="M48 -135v64h504v-64h-504z" />
    <glyph glyph-name="quotesingle" unicode="'" horiz-adv-x="217" 
d="M69 780h79l-15 -269h-49z" />
    <glyph glyph-name="quotedbl" unicode="&#x22;" horiz-adv-x="338" 
d="M69 780h75l-11 -269h-49zM195 780h74l-14 -269h-50z" />
    <glyph glyph-name="tripleprime" unicode="&#x2034;" horiz-adv-x="460" 
d="M316 780h75l-15 -269h-50zM69 780h75l-11 -269h-49zM195 780h70l-10 -269h-50z" />
    <glyph glyph-name="at" unicode="@" horiz-adv-x="961" 
d="M501 -156h6c121 0 229 30 329 104l32 -43c-117 -92 -247 -116 -364 -116c-277 0 -471 178 -471 481v40c0 303 190 481 466 481c233 0 429 -129 429 -403v-30c0 -240 -112 -298 -267 -298h-46l-10 73c-27 -46 -77 -84 -155 -84c-139 0 -196 112 -196 234v24
c0 122 57 234 196 234c78 0 128 -39 155 -84l10 73h54l-6 -147v-269c125 3 206 39 206 244v30c0 250 -177 348 -367 348h-6c-239 0 -406 -157 -406 -426v-40c0 -277 170 -426 411 -426zM465 109c67 0 111 46 133 80v212c-22 34 -66 80 -133 80c-99 0 -142 -75 -142 -174v-24
c0 -99 43 -174 142 -174z" />
    <glyph glyph-name="at.cap" unicode="&#xe513;" horiz-adv-x="961" 
d="M501 -56h6c121 0 229 30 329 104l32 -43c-117 -92 -247 -116 -364 -116c-277 0 -471 178 -471 481v40c0 303 190 481 466 481c233 0 429 -129 429 -403v-30c0 -240 -112 -298 -267 -298h-46l-10 73c-27 -46 -77 -84 -155 -84c-139 0 -196 112 -196 234v24
c0 122 57 234 196 234c78 0 128 -39 155 -84l10 73h54l-6 -147v-269c125 3 206 39 206 244v30c0 250 -177 348 -367 348h-6c-239 0 -406 -157 -406 -426v-40c0 -277 170 -426 411 -426zM465 209c67 0 111 46 133 80v212c-22 34 -66 80 -133 80c-99 0 -142 -75 -142 -174v-24
c0 -99 43 -174 142 -174z" />
    <glyph glyph-name="sterling" unicode="&#xa3;" horiz-adv-x="600" 
d="M328 726c-96 0 -139 -61 -139 -156c0 -48 10 -100 23 -154h201v-65h-183c23 -88 49 -183 53 -285h261v-66h-488v66h165c-8 104 -41 193 -67 285h-98v65h80c-12 51 -20 103 -20 161c0 126 72 214 212 214c162 0 220 -119 220 -279v-12h-71c0 137 -44 226 -149 226z" />
    <glyph glyph-name="plus" unicode="+" horiz-adv-x="600" 
d="M267 642h66v-219h219v-66h-219v-219h-66v219h-219v66h219v219z" />
    <glyph glyph-name="minus" unicode="&#x2212;" horiz-adv-x="600" 
d="M48 357v66h504v-66h-504z" />
    <glyph glyph-name="multiply" unicode="&#xd7;" horiz-adv-x="600" 
d="M83 126l-47 47l217 217l-217 217l47 47l217 -217l217 217l47 -47l-217 -217l217 -217l-47 -47l-217 217z" />
    <glyph glyph-name="divide" unicode="&#xf7;" horiz-adv-x="600" 
d="M48 357v66h504v-66h-504zM344 217v-88h-88v88h88zM344 651v-88h-88v88h88z" />
    <glyph glyph-name="equal" unicode="=" horiz-adv-x="600" 
d="M48 459v66h504v-66h-504zM48 255v66h504v-66h-504z" />
    <glyph glyph-name="notequal" unicode="&#x2260;" horiz-adv-x="600" 
d="M48 459v66h300l71 124h60l-72 -124h145v-66h-183l-79 -138h262v-66h-300l-71 -124h-60l71 124h-144v66h182l80 138h-262z" />
    <glyph glyph-name="approxequal" unicode="&#x2248;" horiz-adv-x="600" 
d="M177 349c106 0 159 -71 248 -71c44 0 80 33 98 56l40 -40c-24 -32 -69 -76 -140 -76c-106 0 -159 71 -248 71c-44 0 -80 -33 -98 -56l-40 40c24 33 69 76 140 76zM177 553c106 0 159 -71 248 -71c44 0 80 34 98 56l40 -40c-24 -32 -69 -76 -140 -76
c-106 0 -159 71 -248 71c-44 0 -80 -33 -98 -56l-40 40c24 33 69 76 140 76z" />
    <glyph glyph-name="less" unicode="&#x3c;" horiz-adv-x="600" 
d="M48 425l504 235v-72l-434 -198l434 -198v-72l-504 235v70z" />
    <glyph glyph-name="greater" unicode="&#x3e;" horiz-adv-x="600" 
d="M552 425v-70l-504 -235v72l433 198l-433 198v72z" />
    <glyph glyph-name="lessequal" unicode="&#x2264;" horiz-adv-x="600" 
d="M552 595l-412 -138l412 -137v-71l-504 174v70l504 174v-72zM552 168v-55l-504 174v55z" />
    <glyph glyph-name="greaterequal" unicode="&#x2265;" horiz-adv-x="600" 
d="M48 320l411 137l-411 138v72l504 -174v-70l-504 -174v71zM48 113v55l504 174v-55z" />
    <glyph glyph-name="logicalnot" unicode="&#xac;" horiz-adv-x="600" 
d="M48 490v67h504v-344h-66v277h-438z" />
    <glyph glyph-name="equivalence" unicode="&#x2261;" horiz-adv-x="600" 
d="M48 561v66h504v-66h-504zM48 153v66h504v-66h-504zM48 357v66h504v-66h-504z" />
    <glyph glyph-name="oe" unicode="&#x153;" horiz-adv-x="919" 
d="M871 236h-376c3 -116 52 -188 159 -188c105 0 149 65 149 122h68v-4c0 -82 -68 -177 -218 -177c-100 0 -161 48 -193 118c-31 -70 -91 -118 -188 -118c-156 0 -223 117 -223 264v24c0 147 67 264 223 264c97 0 157 -48 188 -118c31 70 91 118 188 118
c155 0 223 -118 223 -265v-40zM120 253c0 -121 47 -201 152 -201s152 80 152 201v24c0 121 -47 201 -152 201s-152 -80 -152 -201v-24zM647 482c-100 0 -149 -73 -152 -188h304c-4 115 -51 188 -152 188z" />
    <glyph glyph-name="A" unicode="A" horiz-adv-x="611" 
d="M254 788h103l225 -788h-78l-56 200h-285l-56 -200h-78zM305 709l-124 -444h248z" />
    <glyph glyph-name="B" unicode="B" horiz-adv-x="586" 
d="M74 780h198c130 0 237 -54 237 -196v-20c0 -88 -48 -137 -116 -161c79 -24 136 -77 136 -177v-20c0 -148 -110 -206 -241 -206h-214v780zM293 368h-147v-303h147c88 0 162 42 162 144v15c0 102 -74 144 -162 144zM275 715h-129v-282h129c87 0 160 36 160 133v16
c0 97 -73 133 -160 133z" />
    <glyph glyph-name="C" unicode="C" horiz-adv-x="618" 
d="M131 370c0 -222 59 -316 190 -316h7c117 0 166 71 166 200h74v-10c0 -164 -80 -255 -246 -255c-179 0 -265 111 -265 381v40c0 270 86 381 265 381c166 0 246 -91 246 -267v-28h-74c0 161 -49 230 -166 230h-7c-130 0 -190 -94 -190 -316v-40z" />
    <glyph glyph-name="D" unicode="D" horiz-adv-x="639" 
d="M582 370c0 -270 -112 -370 -302 -370h-206v780h206c190 0 302 -100 302 -370v-40zM146 65h128c150 0 234 83 234 305v40c0 222 -84 305 -234 305h-128v-650z" />
    <glyph glyph-name="E" unicode="E" horiz-adv-x="549" 
d="M74 780h435v-65h-363v-285h313v-64h-313v-301h363v-65h-435v780z" />
    <glyph glyph-name="F" unicode="F" horiz-adv-x="513" 
d="M74 780h419v-65h-347v-285h297v-64h-297v-366h-72v780z" />
    <glyph glyph-name="G" unicode="G" horiz-adv-x="648" 
d="M341 -11c-188 0 -284 111 -284 381v40c0 270 96 381 274 381c167 0 248 -91 248 -267v-28h-73c0 161 -49 230 -169 230h-6c-132 0 -199 -94 -199 -316v-40c0 -222 64 -316 207 -316h7c79 0 133 30 161 60v206h-134v64h206v-305c-42 -44 -114 -90 -238 -90z" />
    <glyph glyph-name="H" unicode="H" horiz-adv-x="639" 
d="M493 780h72v-780h-72v366h-347v-366h-72v780h72v-350h347v350z" />
    <glyph glyph-name="I" unicode="I" horiz-adv-x="230" 
d="M151 780v-780h-72v780h72z" />
    <glyph glyph-name="J" unicode="J" horiz-adv-x="495" 
d="M354 780h72v-540c0 -156 -53 -251 -199 -251c-149 0 -198 92 -198 251v14h68c0 -138 36 -200 129 -200c92 0 128 62 128 198v528z" />
    <glyph glyph-name="K" unicode="K" horiz-adv-x="562" 
d="M146 780v-428l294 428h88l-232 -328l232 -452h-82l-196 387l-104 -147v-240h-72v780h72z" />
    <glyph glyph-name="L" unicode="L" horiz-adv-x="491" 
d="M476 0h-402v780h72v-715h330v-65z" />
    <glyph glyph-name="M" unicode="M" horiz-adv-x="803" 
d="M661 655l-227 -655h-65l-227 655l4 -174v-481h-72v780h101l227 -656l227 656h101v-780h-72v481z" />
    <glyph glyph-name="N" unicode="N" horiz-adv-x="659" 
d="M585 780v-780h-78l-369 658l4 -181v-477h-68v780h78l368 -658l-3 181v477h68z" />
    <glyph glyph-name="O" unicode="O" horiz-adv-x="649" 
d="M324 -11c-178 0 -267 111 -267 381v40c0 270 89 381 267 381c179 0 268 -111 268 -381v-40c0 -270 -89 -381 -268 -381zM321 54h7c131 0 190 94 190 316v40c0 222 -59 316 -190 316h-7c-131 0 -190 -94 -190 -316v-40c0 -222 59 -316 190 -316z" />
    <glyph glyph-name="P" unicode="P" horiz-adv-x="573" 
d="M146 317v-317h-72v780h216c111 0 239 -42 239 -222v-20c0 -179 -128 -221 -239 -221h-144zM146 382h146c67 0 163 25 163 159v15c0 134 -96 159 -163 159h-146v-333z" />
    <glyph glyph-name="Q" unicode="Q" horiz-adv-x="649" 
d="M324 -11c-178 0 -267 111 -267 381v40c0 270 89 381 267 381c179 0 268 -111 268 -381v-40c0 -206 -52 -319 -155 -361l42 -109h-66l-35 93c-17 -2 -35 -4 -54 -4zM353 226l59 -154c72 36 106 131 106 298v40c0 222 -59 316 -190 316h-7c-131 0 -190 -94 -190 -316v-40
c0 -222 59 -316 190 -316h7c9 0 18 0 27 1l-64 171h62z" />
    <glyph glyph-name="R" unicode="R" horiz-adv-x="584" 
d="M146 317v-317h-72v780h216c111 0 239 -42 239 -222v-20c0 -124 -61 -182 -135 -206l135 -332h-79l-124 318c-12 -1 -24 -1 -36 -1h-144zM146 382h146c67 0 163 25 163 159v15c0 134 -96 159 -163 159h-146v-333z" />
    <glyph glyph-name="S" unicode="S" horiz-adv-x="601" 
d="M288 370c-170 23 -233 99 -233 202v10c0 130 97 209 245 209c174 0 246 -90 246 -251v-24h-72c0 148 -52 210 -171 210h-7c-95 0 -167 -51 -167 -135v-8c0 -83 43 -132 186 -152c170 -23 240 -92 240 -212v-10c0 -138 -99 -220 -255 -220c-165 0 -254 94 -254 255v10h72
c0 -137 74 -200 179 -200h7c106 0 177 55 177 150v9c0 92 -57 138 -193 157z" />
    <glyph glyph-name="T" unicode="T" horiz-adv-x="515" 
d="M293 715v-715h-72v715h-198v65h469v-65h-199z" />
    <glyph glyph-name="U" unicode="U" horiz-adv-x="639" 
d="M319 -11c-166 0 -250 65 -250 253v538h72v-533c0 -148 58 -193 178 -193s179 45 179 193v533h72v-538c0 -188 -85 -253 -251 -253z" />
    <glyph glyph-name="V" unicode="V" horiz-adv-x="611" 
d="M357 -8h-103l-225 788h78l198 -709l199 709h78z" />
    <glyph glyph-name="W" unicode="W" horiz-adv-x="895" 
d="M610 -8l-163 710l-162 -710h-99l-145 788h76l122 -699l160 699h97l160 -699l122 699h76l-145 -788h-99z" />
    <glyph glyph-name="X" unicode="X" horiz-adv-x="613" 
d="M31 0l226 397l-226 383h84l191 -328l191 328h85l-227 -383l227 -397h-82l-194 343l-193 -343h-82z" />
    <glyph glyph-name="Y" unicode="Y" horiz-adv-x="577" 
d="M325 236v-236h-72v236l-232 544h78l190 -455l189 455h79z" />
    <glyph glyph-name="Z" unicode="Z" horiz-adv-x="563" 
d="M40 50l384 668l-126 -3h-248v65h463v-50l-384 -668l126 3h268v-65h-483v50z" />
    <glyph glyph-name="AE" unicode="&#xc6;" horiz-adv-x="837" 
d="M309 780h488v-65h-378l42 -285h286v-64h-277l44 -301h283v-65h-349l-29 208h-247l-75 -208h-77zM350 703l-155 -431h215z" />
    <glyph glyph-name="Oslash" unicode="&#xd8;" horiz-adv-x="638" 
d="M57 410c0 270 89 381 267 381c73 0 131 -19 174 -60l30 49h58l-54 -89c40 -61 60 -154 60 -281v-40c0 -270 -89 -381 -268 -381c-76 0 -136 20 -180 65l-32 -54h-58l58 95c-37 62 -55 152 -55 275v40zM518 410c0 90 -10 159 -30 209l-305 -501c31 -44 77 -64 138 -64h7
c131 0 190 94 190 316v40zM131 370c0 -85 8 -151 26 -200l303 498c-31 40 -75 58 -132 58h-7c-131 0 -190 -94 -190 -316v-40z" />
    <glyph glyph-name="germandbls" unicode="&#xdf;" horiz-adv-x="571" 
d="M262 370v46c100 55 143 105 143 186c0 86 -40 144 -135 144s-135 -60 -135 -142v-604h-70v609c0 119 61 202 205 202c140 0 205 -85 205 -202v-7c0 -86 -41 -146 -133 -206l50 -32c98 -65 151 -118 151 -200v-5c0 -79 -32 -170 -174 -170s-173 90 -173 168v5h62
c0 -58 21 -114 108 -114s107 56 107 113c0 60 -44 100 -134 158z" />
    <glyph glyph-name="acute" unicode="&#xb4;" horiz-adv-x="500" 
d="M304 780h76l-94 -166h-72z" />
    <glyph glyph-name="breve" unicode="&#x2d8;" horiz-adv-x="500" 
d="M250 603c-114 0 -162 73 -161 177h57c0 -71 30 -118 104 -118s104 47 104 118h57c1 -104 -47 -177 -161 -177z" />
    <glyph glyph-name="caron" unicode="&#x2c7;" horiz-adv-x="500" 
d="M88 780h69l93 -114l93 114h69l-131 -166h-62z" />
    <glyph glyph-name="caronSlovak" unicode="&#xe413;" horiz-adv-x="500" 
d="M324 800h59l-19 -186h-40v186z" />
    <glyph glyph-name="cedilla" unicode="&#xb8;" horiz-adv-x="602" 
d="M162 -191l15 44c17 -9 44 -15 70 -15c39 0 58 7 58 31c0 23 -24 31 -62 31c-15 0 -29 -3 -29 -3l-19 23l31 80h48l-21 -56h4c49 0 100 -21 100 -77s-42 -78 -103 -78c-37 0 -72 7 -92 20z" />
    <glyph glyph-name="altcedilla" unicode="&#xe416;" horiz-adv-x="602" 
d="M305 -131c0 25 -20 32 -58 32c-21 0 -46 -4 -57 -8v42c17 6 41 10 66 10c57 0 101 -22 101 -78s-42 -78 -103 -78c-37 0 -72 7 -92 20l15 44c17 -9 44 -15 70 -15c39 0 58 7 58 31z" />
    <glyph glyph-name="circumflex" unicode="&#x2c6;" horiz-adv-x="500" 
d="M157 614h-69l131 166h62l131 -166h-69l-93 113z" />
    <glyph glyph-name="commaaccent" unicode="&#xe414;" horiz-adv-x="602" 
d="M291 -56v-50c0 -69 -39 -108 -105 -108v36c36 0 61 15 67 54h-44v68h82z" />
    <glyph glyph-name="commaaccent" unicode="&#xf6c3;" horiz-adv-x="602" 
d="M291 -56v-50c0 -69 -39 -108 -105 -108v36c36 0 61 15 67 54h-44v68h82z" />
    <glyph glyph-name="dieresis" unicode="&#xa8;" horiz-adv-x="500" 
d="M210 745v-88h-87v88h87zM377 745v-88h-87v88h87z" />
    <glyph glyph-name="dotaccent" unicode="&#x2d9;" horiz-adv-x="500" 
d="M294 745v-88h-88v88h88z" />
    <glyph glyph-name="dotbelow" unicode="&#xe415;" horiz-adv-x="602" 
d="M291 -87v-82h-82v82h82z" />
    <glyph glyph-name="doublegrave" unicode="&#xe412;" horiz-adv-x="500" 
d="M62 780h68l90 -166h-63zM192 780h67l84 -166h-63z" />
    <glyph glyph-name="grave" unicode="`" horiz-adv-x="500" 
d="M120 780h76l90 -166h-72z" />
    <glyph glyph-name="hungarumlaut" unicode="&#x2dd;" horiz-adv-x="500" 
d="M370 780h68l-95 -166h-63zM241 780h67l-88 -166h-63z" />
    <glyph glyph-name="invertedbreve" unicode="&#xe411;" horiz-adv-x="500" 
d="M250 791c114 0 162 -74 161 -177h-57c0 70 -30 118 -104 118s-104 -48 -104 -118h-57c-1 103 47 177 161 177z" />
    <glyph glyph-name="macron" unicode="&#xaf;" horiz-adv-x="500" 
d="M133 664v66h234v-66h-234z" />
    <glyph glyph-name="ogonek" unicode="&#x2db;" horiz-adv-x="602" 
d="M200 -103c0 -29 20 -50 56 -50c24 0 48 6 63 14l19 -52c-21 -13 -57 -20 -89 -20c-65 0 -109 29 -109 98c0 80 63 132 126 155l17 -42c-44 -19 -83 -52 -83 -103z" />
    <glyph glyph-name="ring" unicode="&#x2da;" horiz-adv-x="500" 
d="M156 697c0 52 42 94 94 94s94 -42 94 -94s-42 -94 -94 -94s-94 42 -94 94zM194 697c0 -31 25 -56 56 -56s56 25 56 56s-25 56 -56 56s-56 -25 -56 -56z" />
    <glyph glyph-name="tilde" unicode="&#x2dc;" horiz-adv-x="500" 
d="M351 746h55c0 -71 -33 -103 -81 -103c-62 0 -100 54 -140 54c-20 0 -36 -10 -36 -43h-55c0 71 33 103 81 103c62 0 100 -54 140 -54c20 0 36 10 36 43z" />
    <glyph glyph-name="acute.cap" unicode="&#xe422;" horiz-adv-x="500" 
d="M274 950h74l-62 -110h-72z" />
    <glyph glyph-name="breve.cap" unicode="&#xe426;" horiz-adv-x="500" 
d="M250 829c-105 0 -145 52 -145 121h56c0 -44 27 -71 89 -71s89 27 89 71h56c0 -69 -40 -121 -145 -121z" />
    <glyph glyph-name="caron.cap" unicode="&#xe42d;" horiz-adv-x="500" 
d="M112 950h70l68 -67l68 67h70l-106 -110h-64z" />
    <glyph glyph-name="circumflex.cap" unicode="&#xe423;" horiz-adv-x="500" 
d="M182 840h-70l106 110h64l106 -110h-70l-68 66z" />
    <glyph glyph-name="commaaccent.cap" unicode="&#xe42e;" horiz-adv-x="500" 
d="M210 840v42c0 45 27 80 91 80v-32c-32 0 -48 -7 -53 -30h42v-60h-80z" />
    <glyph glyph-name="dieresis.cap" unicode="&#xe429;" horiz-adv-x="500" 
d="M211 930v-70h-79v70h79zM368 930v-70h-79v70h79z" />
    <glyph glyph-name="dotaccent.cap" unicode="&#xe428;" horiz-adv-x="500" 
d="M290 930v-70h-80v70h80z" />
    <glyph glyph-name="doublegrave.cap" unicode="&#xe42c;" horiz-adv-x="500" 
d="M218 950h70l58 -110h-67zM91 950h70l60 -110h-67z" />
    <glyph glyph-name="grave.cap" unicode="&#xe421;" horiz-adv-x="500" 
d="M152 950h74l60 -110h-72z" />
    <glyph glyph-name="hungarumlaut.cap" unicode="&#xe42b;" horiz-adv-x="500" 
d="M212 950h70l-61 -110h-67zM339 950h70l-63 -110h-67z" />
    <glyph glyph-name="invertedbreve.cap" unicode="&#xe427;" horiz-adv-x="500" 
d="M250 961c105 0 145 -52 145 -121h-56c0 44 -27 71 -89 71s-89 -27 -89 -71h-56c0 69 40 121 145 121z" />
    <glyph glyph-name="macron.cap" unicode="&#xe425;" horiz-adv-x="500" 
d="M137 868v54h226v-54h-226z" />
    <glyph glyph-name="ring.cap" unicode="&#xe42a;" horiz-adv-x="500" 
d="M156 867c0 52 42 94 94 94s94 -42 94 -94s-42 -94 -94 -94s-94 42 -94 94zM194 867c0 -31 25 -56 56 -56s56 25 56 56s-25 56 -56 56s-56 -25 -56 -56z" />
    <glyph glyph-name="tilde.cap" unicode="&#xe424;" horiz-adv-x="500" 
d="M352 936h50c0 -65 -33 -93 -79 -93c-62 0 -99 54 -138 54c-20 0 -37 -10 -37 -43h-50c0 65 33 93 79 93c62 0 99 -54 138 -54c20 0 37 10 37 43z" />
    <glyph glyph-name="interrobang" unicode="&#x203d;" horiz-adv-x="455" 
d="M250 189h-43l-17 532c-72 -21 -93 -100 -93 -217h-71v12c0 156 42 275 205 275c140 0 196 -83 196 -208c0 -199 -170 -193 -177 -394zM354 576c0 82 -21 136 -92 148l-12 -369c42 79 104 130 104 221zM271 90v-90h-90v90h90z" />
    <glyph glyph-name="interrobangdown" unicode="&#xe935;" horiz-adv-x="455" 
d="M205 341h42l17 -482c72 18 93 91 93 201h72v-12c0 -147 -42 -259 -205 -259c-132 0 -196 74 -196 182c0 198 170 194 177 370zM101 -22c0 -66 26 -111 91 -121l11 333c-42 -72 -102 -124 -102 -212zM183 440v90h90v-90h-90z" />
    <glyph glyph-name="interrobangdown.cap" unicode="&#xe99b;" horiz-adv-x="455" 
d="M26 197c0 199 170 193 177 394h43l17 -532c72 20 93 99 93 217h71v-12c0 -156 -42 -275 -205 -275c-140 0 -196 83 -196 208zM99 204c0 -82 21 -137 92 -148l11 368c-42 -79 -103 -130 -103 -220zM182 690v90h90v-90h-90z" />
    <glyph glyph-name="guilsinglright" unicode="&#x203a;" horiz-adv-x="304" 
d="M50 454v70l204 -153v-62l-204 -153v70l149 114z" />
    <glyph glyph-name="guillemotright" unicode="&#xbb;" horiz-adv-x="517" 
d="M263 454v70l204 -153v-62l-204 -153v70l148 114zM50 454v70l204 -153v-62l-204 -153v70l149 114z" />
    <glyph glyph-name="periodcentered.cap" unicode="&#xe481;" horiz-adv-x="217" 
d="M152 434v-88h-87v88h87z" />
    <glyph glyph-name="hyphen.cap" unicode="&#xe482;" horiz-adv-x="320" 
d="M40 358v64h249v-64h-249z" />
    <glyph glyph-name="onethirdemdash.cap" unicode="&#xe483;" horiz-adv-x="333" 
d="M293 358h-246v64h246v-64z" />
    <glyph glyph-name="endash.cap" unicode="&#xe484;" horiz-adv-x="500" 
d="M40 358v64h420v-64h-420z" />
    <glyph glyph-name="threequarteremdash.cap" unicode="&#xe485;" horiz-adv-x="750" 
d="M40 358v64h670v-64h-670z" />
    <glyph glyph-name="emdash.cap" unicode="&#xe486;" horiz-adv-x="1000" 
d="M40 358v64h920v-64h-920z" />
    <glyph glyph-name="figuredash.cap" unicode="&#xe487;" horiz-adv-x="600" 
d="M40 358v64h520v-64h-520z" />
    <glyph glyph-name="uni2015.cap" unicode="&#xe488;" horiz-adv-x="1200" 
d="M40 358v64h1120v-64h-1120z" />
    <glyph glyph-name="section" unicode="&#xa7;" horiz-adv-x="513" 
d="M471 389c0 -61 -31 -106 -91 -129c46 -26 63 -65 63 -114v-6c0 -92 -73 -151 -198 -151c-145 0 -198 74 -198 178v4h70c0 -75 30 -123 128 -123c80 0 127 34 127 92c0 55 -26 87 -140 96c-133 11 -191 50 -191 149v6c0 60 31 105 91 129c-46 25 -62 65 -62 114v6
c0 92 73 151 197 151c145 0 199 -74 199 -178v-4h-70c0 75 -30 123 -129 123c-79 0 -126 -34 -126 -92c0 -55 26 -87 140 -96c133 -11 190 -50 190 -149v-6zM399 390c0 73 -44 93 -147 100h-3c-88 0 -135 -39 -135 -100c0 -73 44 -93 146 -100h4c88 0 135 39 135 100z" />
    <glyph glyph-name="paragraph" unicode="&#xb6;" horiz-adv-x="513" 
d="M375 0v715h-40v-715h-70v317c-110 2 -229 47 -229 221v20c0 180 127 222 239 222h172v-780h-72zM110 541c0 -129 88 -157 155 -159v333c-67 -2 -155 -30 -155 -159v-15z" />
    <glyph glyph-name="asciicircum" unicode="^" horiz-adv-x="600" 
d="M335 780l235 -504h-72l-198 433l-198 -433h-72l235 504h70z" />
    <glyph glyph-name="exclamdown" unicode="&#xa1;" horiz-adv-x="216" 
d="M151 -200h-86l19 541h48zM63 440v90h90v-90h-90z" />
    <glyph glyph-name="exclamdown.cap" unicode="&#xe441;" horiz-adv-x="216" 
d="M151 0h-86l19 591h48zM63 690v90h90v-90h-90z" />
    <glyph glyph-name="copyright" unicode="&#xa9;" horiz-adv-x="920" 
d="M59 390c0 221 180 401 401 401s401 -180 401 -401s-180 -401 -401 -401s-401 180 -401 401zM102 390c0 -198 160 -358 358 -358s358 160 358 358s-160 358 -358 358s-358 -160 -358 -358zM461 206c98 0 125 60 125 105h65v-13c0 -61 -48 -154 -191 -154
c-151 0 -208 124 -208 234v24c0 110 57 234 208 234c143 0 191 -97 191 -160v-17h-65c0 57 -30 115 -125 115c-103 0 -141 -87 -141 -172v-24c0 -85 38 -172 141 -172z" />
    <glyph glyph-name="registered" unicode="&#xae;" horiz-adv-x="330" 
d="M19 665c0 80 66 146 146 146s146 -66 146 -146s-66 -146 -146 -146s-146 66 -146 146zM43 665c0 -67 55 -122 122 -122s122 55 122 122s-55 122 -122 122s-122 -55 -122 -122zM229 693c0 -25 -12 -40 -30 -47l30 -67h-36l-27 63h-30v-63h-35v172h72c32 0 56 -17 56 -51
v-7zM194 698c0 16 -10 23 -28 23h-30v-50h30c18 0 28 7 28 24v3z" />
    <glyph glyph-name="registered.cap" unicode="&#xe99c;" horiz-adv-x="920" 
d="M59 390c0 221 180 401 401 401s401 -180 401 -401s-180 -401 -401 -401s-401 180 -401 401zM102 390c0 -198 160 -358 358 -358s358 160 358 358s-160 358 -358 358s-358 -160 -358 -358zM363 342v-187h-66v470h182c69 0 147 -26 147 -135v-12c0 -73 -35 -109 -78 -125
l78 -198h-70l-69 187h-124zM363 396h107c40 0 90 14 90 84v7c0 71 -50 84 -90 84h-107v-175z" />
    <glyph glyph-name="trademark" unicode="&#x2122;" horiz-adv-x="523" 
d="M131 762v-232h-42v232h-70v38h182v-38h-70zM431 734l-55 -204h-47l-55 204l2 -67v-137h-42v270h63l55 -203l55 203h64v-270h-42v137z" />
    <glyph glyph-name="servicemark" unicode="&#x2120;" horiz-adv-x="523" 
d="M101 649c-60 8 -80 32 -80 75v4c0 47 32 77 88 77c65 0 88 -31 88 -91v-8h-42c0 43 -10 61 -45 61h-2c-29 0 -45 -13 -45 -36v-3c0 -24 11 -37 54 -42c59 -8 83 -32 83 -77v-4c0 -50 -31 -83 -91 -83c-61 0 -91 34 -91 95v4h42c0 -40 13 -61 49 -61h2c33 0 46 15 46 42v2
c0 26 -14 39 -56 45zM431 734l-55 -204h-47l-55 204l2 -67v-137h-42v270h63l55 -203l55 203h64v-270h-42v137z" />
    <glyph glyph-name="dollar" unicode="$" horiz-adv-x="600" 
d="M435 840l-31 -129c86 -29 126 -100 126 -199v-16h-70c0 75 -23 126 -71 151l-54 -224c137 -20 202 -72 202 -174v-8c0 -115 -86 -188 -229 -188c-22 0 -42 1 -60 4l-28 -117h-61l32 133c-84 34 -128 105 -128 194v7h71c0 -63 26 -110 72 -136l56 234
c-139 22 -191 81 -191 168v7c0 111 93 180 229 180c16 0 32 -1 46 -3l28 116h61zM310 115c93 0 154 45 154 122v5c0 74 -46 106 -143 122l-59 -245c14 -3 29 -4 45 -4h3zM143 547c0 -61 35 -98 133 -116l56 232c-10 1 -20 2 -30 2h-4c-86 0 -155 -42 -155 -113v-5z" />
    <glyph glyph-name="cent" unicode="&#xa2;" horiz-adv-x="600" 
d="M434 840l-30 -126c92 -30 134 -110 134 -213v-24h-71c0 89 -24 146 -79 171l-125 -523c15 -4 32 -5 50 -5h3c109 0 151 66 151 162h71v-13c0 -125 -69 -214 -225 -214c-24 0 -45 2 -65 6l-29 -121h-62l34 142c-86 45 -129 145 -129 294v28c0 210 84 323 251 323
c11 0 21 -1 31 -2l28 115h62zM135 376c0 -109 24 -183 73 -223l121 507c-4 0 -9 1 -13 1h-3c-117 0 -178 -86 -178 -257v-28z" />
    <glyph glyph-name="yen" unicode="&#xa5;" horiz-adv-x="600" 
d="M44 414v66h114l-141 300h79l204 -442l204 442h79l-142 -300h115v-66h-146l-63 -134h209v-66h-220v-214h-72v214h-220v66h208l-63 134h-145z" />
    <glyph glyph-name="arrowleft" unicode="&#x2190;" horiz-adv-x="920" 
d="M449 780h93l-357 -357h665v-66h-665l357 -357h-93l-390 390z" />
    <glyph glyph-name="arrowright" unicode="&#x2192;" horiz-adv-x="920" 
d="M378 780h93l390 -390l-390 -390h-93l357 357h-665v66h665z" />
    <glyph glyph-name="arrowup" unicode="&#x2191;" horiz-adv-x="920" 
d="M70 308v93l390 390l390 -390v-93l-357 357v-665h-66v665z" />
    <glyph glyph-name="arrowdown" unicode="&#x2193;" horiz-adv-x="920" 
d="M70 379v93l357 -357v665h66v-665l357 357v-93l-390 -390z" />
    <glyph glyph-name="uni2196" unicode="&#x2196;" horiz-adv-x="920" 
d="M136 0h-66v780h780v-66h-667l678 -678l-47 -47l-678 678v-667z" />
    <glyph glyph-name="uni2197" unicode="&#x2197;" horiz-adv-x="920" 
d="M850 0h-66v667l-678 -678l-47 47l678 678h-667v66h780v-780z" />
    <glyph glyph-name="uni2198" unicode="&#x2198;" horiz-adv-x="920" 
d="M70 0v66h667l-678 678l47 47l678 -678v667h66v-780h-780z" />
    <glyph glyph-name="uni2199" unicode="&#x2199;" horiz-adv-x="920" 
d="M850 66v-66h-780v780h66v-667l678 678l47 -47l-678 -678h667z" />
    <glyph glyph-name="whitecircle" unicode="&#x25cb;" horiz-adv-x="920" 
d="M59 390c0 221 180 401 401 401s401 -180 401 -401s-180 -401 -401 -401s-401 180 -401 401zM124 390c0 -186 150 -336 336 -336s336 150 336 336s-150 336 -336 336s-336 -150 -336 -336z" />
    <glyph glyph-name="whitecircle" unicode="&#x25ef;" horiz-adv-x="920" 
d="M59 390c0 221 180 401 401 401s401 -180 401 -401s-180 -401 -401 -401s-401 180 -401 401zM124 390c0 -186 150 -336 336 -336s336 150 336 336s-150 336 -336 336s-336 -150 -336 -336z" />
    <glyph glyph-name="blackcircle" unicode="&#x25cf;" horiz-adv-x="920" 
d="M59 390c0 221 180 401 401 401s401 -180 401 -401s-180 -401 -401 -401s-401 180 -401 401z" />
    <glyph glyph-name="mediumwhitecircle" unicode="&#x26aa;" horiz-adv-x="670" 
d="M59 265c0 152 124 276 276 276s276 -124 276 -276s-124 -276 -276 -276s-276 124 -276 276zM124 265c0 -117 94 -211 211 -211s211 94 211 211s-94 211 -211 211s-211 -94 -211 -211z" />
    <glyph glyph-name="mediumblackcircle" unicode="&#x26ab;" horiz-adv-x="670" 
d="M59 265c0 152 124 276 276 276s276 -124 276 -276s-124 -276 -276 -276s-276 124 -276 276z" />
    <glyph glyph-name="blacksquare" unicode="&#x25a0;" horiz-adv-x="920" 
d="M850 0h-780v780h780v-780z" />
    <glyph glyph-name="blacksquare" unicode="&#xe740;" horiz-adv-x="920" 
d="M850 0h-780v780h780v-780z" />
    <glyph glyph-name="whitesquare" unicode="&#x25a1;" horiz-adv-x="920" 
d="M850 0h-780v780h780v-780zM786 716h-652v-652h652v652z" />
    <glyph glyph-name="squaremultiply" unicode="&#x22a0;" horiz-adv-x="920" 
d="M850 0h-780v780h780v-780zM786 716h-652v-652h652v652zM256 138l-48 48l204 204l-204 204l48 48l204 -204l204 204l48 -48l-204 -204l204 -204l-48 -48l-204 204z" />
    <glyph glyph-name="blacksmallsquare" unicode="&#x25aa;" horiz-adv-x="680" 
d="M600 0h-530v530h530v-530z" />
    <glyph glyph-name="whitesmallsquare" unicode="&#x25ab;" horiz-adv-x="680" 
d="M70 530h530v-530h-530v530zM536 466h-402v-402h402v402z" />
    <glyph glyph-name="triagup" unicode="&#x25b2;" horiz-adv-x="930" 
d="M500 791l366 -791h-72l-329 716l-329 -716h-72l366 791h70z" />
    <glyph glyph-name="triagdn" unicode="&#x25bc;" horiz-adv-x="930" 
d="M430 -11l-366 791h72l329 -716l329 716h72l-366 -791h-70z" />
    <glyph glyph-name="triaglf" unicode="&#x25c4;" horiz-adv-x="930" 
d="M59 425l791 366v-72l-716 -329l716 -329v-72l-791 366v70z" />
    <glyph glyph-name="triagrt" unicode="&#x25ba;" horiz-adv-x="930" 
d="M871 425v-70l-791 -366v72l716 329l-716 329v72z" />
    <glyph glyph-name="uni25E4" unicode="&#x25e4;" horiz-adv-x="930" 
d="M55 756l24 25l25 24l818 -300l-51 -51l-739 273l274 -738l-51 -51z" />
    <glyph glyph-name="uni25E5" unicode="&#x25e5;" horiz-adv-x="930" 
d="M851 781l24 -25l-300 -818l-51 51l273 738l-738 -273l-51 51l818 300z" />
    <glyph glyph-name="uni25E2" unicode="&#x25e2;" horiz-adv-x="930" 
d="M875 24l-49 -49l-818 300l51 51l739 -274l-274 739l51 51z" />
    <glyph glyph-name="uni25E3" unicode="&#x25e3;" horiz-adv-x="930" 
d="M55 24l300 818l51 -51l-274 -739l739 274l51 -51l-818 -300z" />
    <glyph glyph-name="percent" unicode="%" horiz-adv-x="921" 
d="M332 0h-67l292 703c-4 -1 -52 -15 -114 -15c-30 0 -57 2 -83 7c9 -21 14 -47 14 -75v-11c0 -113 -75 -171 -168 -171s-168 58 -168 171v11c0 113 75 171 168 171c23 0 46 -4 66 -11c57 -22 117 -31 179 -31c69 0 159 20 186 32v-47zM548 171c0 113 75 171 167 171
c93 0 168 -58 168 -171v-11c0 -113 -75 -171 -168 -171c-92 0 -167 58 -167 171v11zM315 623c0 71 -48 109 -106 109h-6c-58 0 -106 -38 -106 -109v-17c0 -71 48 -109 106 -109h6c58 0 106 38 106 109v17zM607 157c0 -71 47 -109 105 -109h6c59 0 106 38 106 109v17
c0 71 -47 109 -106 109h-6c-58 0 -105 -38 -105 -109v-17z" />
    <glyph glyph-name="plusminus" unicode="&#xb1;" horiz-adv-x="600" 
d="M267 649h66v-139h219v-67h-219v-139h-66v139h-219v67h219v139zM48 161v66h504v-66h-504z" />
    <glyph glyph-name="degree" unicode="&#xb0;" horiz-adv-x="400" 
d="M300 634v7c0 60 -44 96 -97 96h-6c-53 0 -97 -36 -97 -96v-7c0 -60 44 -97 97 -97h6c53 0 97 37 97 97zM353 639v-4c0 -94 -66 -151 -153 -151s-153 57 -153 151v4c0 94 66 152 153 152s153 -58 153 -152z" />
    <glyph glyph-name="uni2605" unicode="&#x2605;" horiz-adv-x="880" 
d="M440 180l-260 -190l99 307l-260 189h322l99 306l99 -306h322l-260 -189l99 -307z" />
    <glyph glyph-name="uni263C" unicode="&#x263c;" horiz-adv-x="960" 
d="M521 191l-42 -202l-42 202c0 -4 0 -39 -29 -66c-32 -29 -68 -38 -68 -78c0 -21 12 -35 12 -35c-31 9 -46 35 -46 62c0 19 7 37 21 51c29 29 41 71 41 95l-172 -113l113 172c-3 -3 -26 -26 -66 -26c-18 0 -45 8 -62 8c-54 0 -59 -48 -59 -48c-5 9 -8 17 -8 28
c0 38 31 69 71 69c46 0 92 32 96 38l-202 42l202 42c-4 0 -39 0 -66 29c-29 32 -38 68 -78 68c-21 0 -35 -12 -35 -12c9 31 35 46 62 46c19 0 37 -7 51 -21c29 -29 71 -41 95 -41l-113 172l172 -113c-3 3 -26 26 -26 66c0 18 8 45 8 62c0 54 -48 59 -48 59c9 5 17 8 28 8
c38 0 69 -31 69 -71c0 -46 32 -92 38 -96l42 202l42 -202c0 4 0 39 29 66c32 29 68 38 68 78c0 21 -12 35 -12 35c31 -9 46 -35 46 -62c0 -19 -7 -37 -21 -51c-29 -29 -41 -71 -41 -95l172 113l-113 -172c3 3 26 26 66 26c18 0 45 -8 62 -8c54 0 59 48 59 48
c5 -9 8 -17 8 -28c0 -38 -31 -69 -71 -69c-46 0 -92 -32 -96 -38l202 -42l-202 -42c4 0 39 0 66 -29c29 -32 38 -68 78 -68c21 0 35 12 35 12c-9 -31 -35 -46 -62 -46c-19 0 -37 7 -51 21c-29 29 -71 41 -95 41l113 -172l-172 113c3 -3 26 -26 26 -66c0 -18 -8 -45 -8 -62
c0 -54 48 -59 48 -59c-9 -5 -17 -8 -28 -8c-38 0 -69 31 -69 71c0 46 -32 92 -38 96z" />
    <glyph glyph-name="uni263E" unicode="&#x263e;" horiz-adv-x="960" 
d="M624 728c-179 0 -324 -151 -324 -338s145 -338 324 -338c33 0 65 5 96 15c-68 -49 -152 -77 -240 -77c-221 0 -400 179 -400 400s179 400 400 400c88 0 172 -29 240 -77c-31 9 -63 15 -96 15z" />
    <glyph glyph-name="uni267B" unicode="&#x267b;" horiz-adv-x="960" 
d="M863 266l1 -2l-96 -167c-21 -31 -35 -56 -88 -56h-57v-49l-113 136l113 135v-49h145c59 0 95 52 95 52zM186 122h-2l-96 168c-17 32 -31 58 -4 103l28 49l-42 24l174 31l59 -166l-41 24s-70 -120 -72 -125c-30 -51 -4 -108 -4 -108zM404 779v1h193c38 -1 66 -2 92 -47
l28 -49l43 24l-61 -166l-173 31l41 24l-72 125c-30 52 -91 57 -91 57zM200 598l67 119c5 9 18 22 34 31c59 35 144 3 165 -35l-116 -201zM446 41h-135c-11 0 -29 4 -44 13c-61 35 -75 123 -53 160h232v-173zM806 527l69 -117c5 -9 10 -26 10 -44c1 -69 -70 -126 -112 -126
l-116 201z" />
    <glyph glyph-name="uni267C" unicode="&#x267c;" horiz-adv-x="960" 
d="M292 645l-52 -92l116 -67l90 156c-16 29 -82 54 -128 27c-12 -7 -22 -17 -26 -24zM394 694v-1s48 -5 71 -44l56 -97l-32 -19l134 -24l47 129l-33 -19l-22 38c-20 35 -42 37 -71 37h-150zM322 121h105v134h-180c-17 -29 -6 -97 41 -124c12 -7 26 -10 34 -10zM228 184h1
s-20 44 3 84l56 97l32 -19l-46 129l-135 -24l33 -19l-22 -38c-21 -35 -10 -55 3 -80zM763 407l-53 91l-116 -67l90 -156c33 0 88 44 87 98c0 14 -4 27 -8 34zM755 294l-1 1s-28 -40 -74 -40h-112v38l-88 -105l88 -105v38h44c41 0 54 19 68 43zM64 390c0 219 177 396 396 396
s396 -177 396 -396s-177 -396 -396 -396s-396 177 -396 396z" />
    <glyph glyph-name="uni267D" unicode="&#x267d;" horiz-adv-x="960" 
d="M240 553l52 92c4 7 14 17 26 24c46 27 112 2 128 -27l-90 -156zM394 693v1h150c29 0 51 -2 71 -37l22 -38l33 19l-47 -129l-134 24l32 19l-56 97c-23 39 -71 44 -71 44zM427 121h-105c-8 0 -22 3 -34 10c-47 27 -58 95 -41 124h180v-134zM229 184h-1l-75 130
c-13 25 -24 45 -3 80l22 38l-33 19l135 24l46 -129l-32 19l-56 -97c-23 -40 -3 -84 -3 -84zM710 498l53 -91c4 -7 8 -20 8 -34c1 -54 -54 -98 -87 -98l-90 156zM754 295l1 -1l-75 -130c-14 -24 -27 -43 -68 -43h-44v-38l-88 105l88 105v-38h112c46 0 74 40 74 40zM60 390
c0 221 179 400 400 400s400 -179 400 -400s-179 -400 -400 -400s-400 179 -400 400zM98 390c0 -200 162 -362 362 -362s362 162 362 362s-162 362 -362 362s-362 -162 -362 -362z" />
    <glyph glyph-name="house" unicode="&#x2302;" horiz-adv-x="850" 
d="M780 0h-710v450l355 340l355 -340v-450z" />
    <glyph glyph-name="spade" unicode="&#x2660;" horiz-adv-x="900" 
d="M451 790c33 -50 127 -161 233 -230c87 -57 164 -122 164 -226c0 -98 -78 -174 -176 -174c-99 0 -166 78 -200 161l-3 -1c11 -135 32 -220 82 -320h-202c50 100 71 185 82 320l-3 1c-34 -83 -101 -161 -200 -161c-98 0 -176 76 -176 174c0 104 77 169 164 226
c106 69 200 180 233 230h2z" />
    <glyph glyph-name="club" unicode="&#x2663;" horiz-adv-x="900" 
d="M349 0c50 100 71 185 82 320l-3 1c-34 -83 -101 -161 -200 -161c-98 0 -176 76 -176 174c0 104 70 180 174 180c34 0 61 -11 84 -23l2 2c-22 33 -38 73 -38 117c0 99 75 180 176 180s176 -81 176 -180c0 -44 -16 -84 -38 -117l2 -2c23 12 50 23 84 23
c104 0 174 -76 174 -180c0 -98 -78 -174 -176 -174c-99 0 -166 78 -200 161l-3 -1c11 -135 32 -220 82 -320h-202z" />
    <glyph glyph-name="heart" unicode="&#x2665;" horiz-adv-x="900" 
d="M451 -10h-2c-33 50 -127 173 -233 293c-69 78 -164 197 -164 301c0 118 73 206 191 206c124 0 176 -74 205 -157h4c29 83 81 157 205 157c118 0 191 -88 191 -206c0 -104 -95 -223 -164 -301c-106 -120 -200 -243 -233 -293z" />
    <glyph glyph-name="diamond" unicode="&#x2666;" horiz-adv-x="900" 
d="M817 390c-142 -111 -277 -259 -366 -400h-2c-89 141 -224 289 -366 400c142 111 277 259 366 400h2c89 -141 224 -289 366 -400z" />
    <glyph glyph-name="published" unicode="&#x2117;" horiz-adv-x="920" 
d="M59 390c0 221 180 401 401 401s401 -180 401 -401s-180 -401 -401 -401s-401 180 -401 401zM102 390c0 -198 160 -358 358 -358s358 160 358 358s-160 358 -358 358s-358 -160 -358 -358zM368 342v-187h-67v470h182c70 0 148 -26 148 -135v-12c0 -110 -78 -136 -148 -136
h-115zM368 396h107c40 0 89 14 89 84v7c0 71 -49 84 -89 84h-107v-175z" />
    <glyph glyph-name="dotlessi" unicode="&#x131;" horiz-adv-x="216" 
d="M73 0v530h70v-530h-70z" />
    <glyph glyph-name="idotaccent" unicode="&#xe785;" horiz-adv-x="216" 
d="M73 0v530h70v-530h-70zM153 745v-90h-90v90h90z" />
    <glyph glyph-name="dotlessj" unicode="&#x237;" horiz-adv-x="216" 
d="M73 -44v574h70v-583c0 -115 -65 -158 -155 -158c-42 0 -66 8 -74 11v61c9 -4 35 -9 57 -9c67 0 102 20 102 104z" />
    <glyph glyph-name="thorn" unicode="&#xfe;" horiz-adv-x="537" 
d="M65 800h70v-332c28 41 76 73 151 73c145 0 203 -117 203 -264v-24c0 -147 -58 -264 -203 -264c-75 0 -123 32 -151 73v-262h-70v1000zM136 134c21 -35 62 -82 134 -82c100 0 147 78 147 201v24c0 123 -47 201 -147 201c-72 0 -113 -47 -134 -82v-262z" />
    <glyph glyph-name="Thorn" unicode="&#xde;" horiz-adv-x="573" 
d="M146 780v-158h144c111 0 239 -42 239 -222v-20c0 -180 -128 -222 -239 -222h-144v-158h-72v780h72zM146 223h146c67 0 163 25 163 160v14c0 135 -96 160 -163 160h-146v-334z" />
    <glyph glyph-name="IJ" unicode="&#x132;" horiz-adv-x="499" 
d="M358 166v614h72v-623c0 -121 -62 -168 -147 -168c-43 0 -69 9 -77 13v62c10 -4 38 -10 58 -10c64 0 94 28 94 112zM151 780v-780h-72v780h72z" />
    <glyph glyph-name="Anocross" unicode="&#xe731;" horiz-adv-x="611" 
d="M254 788h103l225 -788h-78l-199 709l-198 -709h-78z" />
    <glyph glyph-name="ruble" unicode="&#x20bd;" horiz-adv-x="600" 
d="M183 317v-62h208v-65h-208v-190h-72v190h-88v65h88v62h-88v65h88v398h204c112 0 239 -42 239 -222v-20c0 -179 -127 -221 -239 -221h-132zM183 382h134c67 0 163 25 163 159v15c0 134 -96 159 -163 159h-134v-333z" />
    <glyph glyph-name="numbersign" unicode="#" horiz-adv-x="600" 
d="M91 479v66h104l53 235h65l-53 -235h149l53 235h66l-53 -235h92v-66h-107l-40 -178h89v-66h-104l-53 -235h-65l52 235h-149l-52 -235h-66l53 235h-92v66h107l40 178h-89zM245 479l-40 -178h149l40 178h-149z" />
    <glyph glyph-name="zero" unicode="0" horiz-adv-x="600" 
d="M62 556c0 135 68 235 238 235s238 -100 238 -235v-332c0 -135 -68 -235 -238 -235s-238 100 -238 235v332zM467 548c0 108 -42 179 -164 179h-6c-122 0 -164 -71 -164 -179v-316c0 -108 42 -179 164 -179h6c122 0 164 71 164 179v316z" />
    <glyph glyph-name="one" unicode="1" horiz-adv-x="600" 
d="M549 0h-478v65h204v623l-184 -125l-36 55l245 166h46v-719h203v-65z" />
    <glyph glyph-name="two" unicode="2" horiz-adv-x="600" 
d="M240 65h304v-65h-488v45l337 358c60 62 80 102 80 159v10c0 96 -69 155 -170 155h-6c-113 0 -170 -60 -170 -207h-71v24c0 157 75 247 244 247c158 0 244 -85 244 -208v-12c0 -80 -21 -127 -91 -201l-288 -306z" />
    <glyph glyph-name="three" unicode="3" horiz-adv-x="600" 
d="M122 250c0 -136 65 -197 173 -197h10c89 0 173 48 173 150v14c0 100 -72 149 -164 149h-114v64h110c91 0 163 42 163 139v7c0 92 -68 151 -168 151h-10c-113 0 -168 -60 -168 -207h-71v24c0 157 75 247 244 247c158 0 244 -85 244 -206v-15c0 -92 -50 -147 -121 -172
c74 -27 126 -87 126 -182v-16c0 -124 -102 -211 -249 -211c-170 0 -249 96 -249 250v11h71z" />
    <glyph glyph-name="four" unicode="4" horiz-adv-x="600" 
d="M438 0h-71v207h-334v48l336 525h69v-508h129v-65h-129v-207zM368 658l-247 -387l86 1h160v284z" />
    <glyph glyph-name="five" unicode="5" horiz-adv-x="600" 
d="M51 250h71c0 -136 65 -197 173 -197h10c89 0 173 54 173 180v18c0 126 -84 179 -175 179h-9c-72 0 -147 -35 -177 -106l-60 18l19 438h463v-65h-394l-13 -277c42 35 101 56 170 56c141 0 247 -86 247 -246v-12c0 -161 -106 -247 -249 -247c-170 0 -249 96 -249 250v11z
" />
    <glyph glyph-name="six" unicode="6" horiz-adv-x="600" 
d="M517 791v-64c-103 0 -220 -40 -295 -138c-40 -52 -65 -111 -79 -171c42 43 102 72 176 72c134 0 234 -80 234 -245v-10c0 -164 -100 -246 -249 -246c-144 0 -249 99 -249 274v11c0 124 27 246 110 357c86 115 226 160 352 160zM306 426c-79 0 -145 -44 -179 -110
c-1 -15 -1 -31 -1 -46v-10c0 -129 78 -207 175 -207h6c106 0 175 66 175 179v17c0 114 -68 177 -170 177h-6z" />
    <glyph glyph-name="seven" unicode="7" horiz-adv-x="600" 
d="M58 500v280h492v-44l-299 -736h-77l292 716l-110 -1h-233v-215h-65z" />
    <glyph glyph-name="eight" unicode="8" horiz-adv-x="600" 
d="M300 -11c-147 0 -249 85 -249 209v16c0 96 52 156 126 184c-71 26 -121 82 -121 174v15c0 121 86 204 244 204s244 -83 244 -204v-15c0 -92 -50 -148 -122 -174c74 -28 127 -88 127 -184v-16c0 -124 -102 -209 -249 -209zM286 366c-92 0 -164 -51 -164 -151v-14
c0 -103 84 -148 173 -148h10c89 0 173 45 173 148v14c0 100 -72 151 -164 151h-28zM305 727h-10c-100 0 -168 -57 -168 -148v-8c0 -96 72 -141 163 -141h20c91 0 163 45 163 141v8c0 91 -68 148 -168 148z" />
    <glyph glyph-name="nine" unicode="9" horiz-adv-x="600" 
d="M83 -11v64c103 0 220 40 295 138c40 52 64 110 79 170c-43 -43 -102 -71 -176 -71c-134 0 -234 80 -234 245v10c0 164 100 246 249 246c144 0 249 -99 249 -274v-11c0 -124 -27 -246 -110 -357c-86 -115 -226 -160 -352 -160zM294 354c78 0 145 44 178 109
c1 16 2 31 2 47v10c0 129 -78 207 -175 207h-6c-106 0 -175 -66 -175 -179v-17c0 -114 68 -177 170 -177h6z" />
    <glyph glyph-name="guilsinglleft.cap" unicode="&#xe451;" horiz-adv-x="304" 
d="M254 574v-70l-149 -114l149 -114v-70l-204 153v62z" />
    <glyph glyph-name="guilsinglright.cap" unicode="&#xe452;" horiz-adv-x="304" 
d="M50 504v70l204 -153v-62l-204 -153v70l149 114z" />
    <glyph glyph-name="guillemotleft.cap" unicode="&#xe453;" horiz-adv-x="517" 
d="M254 574v-70l-149 -114l149 -114v-70l-204 153v62zM467 574v-70l-150 -114l150 -114v-70l-204 153v62z" />
    <glyph glyph-name="guillemotright.cap" unicode="&#xe454;" horiz-adv-x="517" 
d="M263 504v70l204 -153v-62l-204 -153v70l148 114zM50 504v70l204 -153v-62l-204 -153v70l149 114z" />
    <glyph glyph-name="oslash" unicode="&#xf8;" horiz-adv-x="544" 
d="M495 530l-51 -69c35 -47 51 -112 51 -184v-24c0 -147 -67 -264 -223 -264c-61 0 -108 18 -143 48l-27 -37h-53l51 68c-35 48 -51 113 -51 185v24c0 147 67 264 223 264c60 0 107 -18 142 -48l28 37h53zM120 253c0 -49 8 -92 24 -125l230 310c-24 26 -58 40 -102 40
c-105 0 -152 -80 -152 -201v-24zM424 277c0 49 -8 91 -25 124l-230 -310c25 -25 59 -39 103 -39c105 0 152 80 152 201v24z" />
    <glyph glyph-name="Aring" unicode="&#xc5;" horiz-adv-x="611" 
d="M211 867c0 52 42 94 94 94s94 -42 94 -94c0 -33 -17 -63 -43 -79h1l225 -788h-78l-56 200h-285l-56 -200h-78l225 788c-26 16 -43 46 -43 79zM305 709l-124 -444h248zM249 867c0 -31 25 -56 56 -56s56 25 56 56s-25 56 -56 56s-56 -25 -56 -56z" />
    <glyph glyph-name="Aacute" unicode="&#xc1;" horiz-adv-x="611" 
d="M254 788h103l225 -788h-78l-56 200h-285l-56 -200h-78zM305 709l-124 -444h248zM329 950h74l-62 -110h-72z" />
    <glyph glyph-name="Abreve" unicode="&#x102;" horiz-adv-x="611" 
d="M254 788h103l225 -788h-78l-56 200h-285l-56 -200h-78zM305 709l-124 -444h248zM305 829c-105 0 -145 52 -145 121h56c0 -44 27 -71 89 -71s89 27 89 71h56c0 -69 -40 -121 -145 -121z" />
    <glyph glyph-name="Acircumflex" unicode="&#xc2;" horiz-adv-x="611" 
d="M254 788h103l225 -788h-78l-56 200h-285l-56 -200h-78zM305 709l-124 -444h248zM237 840h-70l106 110h64l106 -110h-70l-68 66z" />
    <glyph glyph-name="Adieresis" unicode="&#xc4;" horiz-adv-x="611" 
d="M254 788h103l225 -788h-78l-56 200h-285l-56 -200h-78zM305 709l-124 -444h248zM266 930v-70h-79v70h79zM423 930v-70h-79v70h79z" />
    <glyph glyph-name="Agrave" unicode="&#xc0;" horiz-adv-x="611" 
d="M254 788h103l225 -788h-78l-56 200h-285l-56 -200h-78zM305 709l-124 -444h248zM207 950h74l60 -110h-72z" />
    <glyph glyph-name="Amacron" unicode="&#x100;" horiz-adv-x="611" 
d="M254 788h103l225 -788h-78l-56 200h-285l-56 -200h-78zM305 709l-124 -444h248zM192 868v54h226v-54h-226z" />
    <glyph glyph-name="Aogonek" unicode="&#x104;" horiz-adv-x="611" 
d="M499 -103c0 -29 20 -50 56 -50c24 0 48 6 63 14l19 -52c-21 -13 -57 -20 -89 -20c-65 0 -109 29 -109 98c0 52 27 93 63 120l-54 193h-285l-56 -200h-78l225 788h103l225 -788c-44 -19 -83 -52 -83 -103zM305 709l-124 -444h248z" />
    <glyph glyph-name="Atilde" unicode="&#xc3;" horiz-adv-x="611" 
d="M254 788h103l225 -788h-78l-56 200h-285l-56 -200h-78zM305 709l-124 -444h248zM407 936h50c0 -65 -33 -93 -79 -93c-62 0 -99 54 -138 54c-20 0 -37 -10 -37 -43h-50c0 65 33 93 79 93c62 0 99 -54 138 -54c20 0 37 10 37 43z" />
    <glyph glyph-name="Bdotaccent" unicode="&#x1e02;" horiz-adv-x="586" 
d="M74 780h198c130 0 237 -54 237 -196v-20c0 -88 -48 -137 -116 -161c79 -24 136 -77 136 -177v-20c0 -148 -110 -206 -241 -206h-214v780zM293 368h-147v-303h147c88 0 162 42 162 144v15c0 102 -74 144 -162 144zM275 715h-129v-282h129c87 0 160 36 160 133v16
c0 97 -73 133 -160 133zM314 930v-70h-80v70h80z" />
    <glyph glyph-name="Cacute" unicode="&#x106;" horiz-adv-x="618" 
d="M131 370c0 -222 59 -316 190 -316h7c117 0 166 71 166 200h74v-10c0 -164 -80 -255 -246 -255c-179 0 -265 111 -265 381v40c0 270 86 381 265 381c166 0 246 -91 246 -267v-28h-74c0 161 -49 230 -166 230h-7c-130 0 -190 -94 -190 -316v-40zM346 950h74l-62 -110h-72z
" />
    <glyph glyph-name="Ccaron" unicode="&#x10c;" horiz-adv-x="618" 
d="M131 370c0 -222 59 -316 190 -316h7c117 0 166 71 166 200h74v-10c0 -164 -80 -255 -246 -255c-179 0 -265 111 -265 381v40c0 270 86 381 265 381c166 0 246 -91 246 -267v-28h-74c0 161 -49 230 -166 230h-7c-130 0 -190 -94 -190 -316v-40zM184 950h70l68 -67l68 67
h70l-106 -110h-64z" />
    <glyph glyph-name="Ccedilla" unicode="&#xc7;" horiz-adv-x="618" 
d="M240 -191l15 44c17 -9 44 -15 70 -15c39 0 58 7 58 31c0 23 -24 31 -62 31c-15 0 -29 -3 -29 -3l-19 23l27 70c-164 9 -243 121 -243 380v40c0 270 86 381 265 381c166 0 246 -91 246 -267v-28h-74c0 161 -49 230 -166 230h-7c-130 0 -190 -94 -190 -316v-40
c0 -222 59 -316 190 -316h7c117 0 166 71 166 200h74v-10c0 -156 -72 -245 -220 -254l-17 -46h4c49 0 100 -21 100 -77s-42 -78 -103 -78c-37 0 -72 7 -92 20z" />
    <glyph glyph-name="Ccircumflex" unicode="&#x108;" horiz-adv-x="618" 
d="M131 370c0 -222 59 -316 190 -316h7c117 0 166 71 166 200h74v-10c0 -164 -80 -255 -246 -255c-179 0 -265 111 -265 381v40c0 270 86 381 265 381c166 0 246 -91 246 -267v-28h-74c0 161 -49 230 -166 230h-7c-130 0 -190 -94 -190 -316v-40zM254 840h-70l106 110h64
l106 -110h-70l-68 66z" />
    <glyph glyph-name="Cdotaccent" unicode="&#x10a;" horiz-adv-x="618" 
d="M131 370c0 -222 59 -316 190 -316h7c117 0 166 71 166 200h74v-10c0 -164 -80 -255 -246 -255c-179 0 -265 111 -265 381v40c0 270 86 381 265 381c166 0 246 -91 246 -267v-28h-74c0 161 -49 230 -166 230h-7c-130 0 -190 -94 -190 -316v-40zM362 930v-70h-80v70h80z
" />
    <glyph glyph-name="Dcaron" unicode="&#x10e;" horiz-adv-x="639" 
d="M582 370c0 -270 -112 -370 -302 -370h-206v780h206c190 0 302 -100 302 -370v-40zM146 65h128c150 0 234 83 234 305v40c0 222 -84 305 -234 305h-128v-650zM154 950h70l68 -67l68 67h70l-106 -110h-64z" />
    <glyph glyph-name="Dcroat" unicode="&#x110;" horiz-adv-x="699" 
d="M18 369v59h116v352h206c190 0 302 -100 302 -370v-40c0 -270 -112 -370 -302 -370h-206v369h-116zM206 715v-287h213v-59h-213v-304h128c150 0 234 83 234 305v40c0 222 -84 305 -234 305h-128z" />
    <glyph glyph-name="Ddotaccent" unicode="&#x1e0a;" horiz-adv-x="639" 
d="M582 370c0 -270 -112 -370 -302 -370h-206v780h206c190 0 302 -100 302 -370v-40zM146 65h128c150 0 234 83 234 305v40c0 222 -84 305 -234 305h-128v-650zM332 930v-70h-80v70h80z" />
    <glyph glyph-name="Eth" unicode="&#xd0;" horiz-adv-x="699" 
d="M18 369v59h116v352h206c190 0 302 -100 302 -370v-40c0 -270 -112 -370 -302 -370h-206v369h-116zM206 715v-287h213v-59h-213v-304h128c150 0 234 83 234 305v40c0 222 -84 305 -234 305h-128z" />
    <glyph glyph-name="Eacute" unicode="&#xc9;" horiz-adv-x="549" 
d="M74 780h435v-65h-363v-285h313v-64h-313v-301h363v-65h-435v780zM323 950h74l-62 -110h-72z" />
    <glyph glyph-name="Ebreve" unicode="&#x114;" horiz-adv-x="549" 
d="M299 829c-105 0 -145 52 -145 121h56c0 -44 27 -71 89 -71s89 27 89 71h56c0 -69 -40 -121 -145 -121zM74 780h435v-65h-363v-285h313v-64h-313v-301h363v-65h-435v780z" />
    <glyph glyph-name="Ecaron" unicode="&#x11a;" horiz-adv-x="549" 
d="M74 780h435v-65h-363v-285h313v-64h-313v-301h363v-65h-435v780zM161 950h70l68 -67l68 67h70l-106 -110h-64z" />
    <glyph glyph-name="Ecircumflex" unicode="&#xca;" horiz-adv-x="549" 
d="M74 780h435v-65h-363v-285h313v-64h-313v-301h363v-65h-435v780zM231 840h-70l106 110h64l106 -110h-70l-68 66z" />
    <glyph glyph-name="Edieresis" unicode="&#xcb;" horiz-adv-x="549" 
d="M74 780h435v-65h-363v-285h313v-64h-313v-301h363v-65h-435v780zM260 930v-70h-79v70h79zM417 930v-70h-79v70h79z" />
    <glyph glyph-name="Edotaccent" unicode="&#x116;" horiz-adv-x="549" 
d="M74 780h435v-65h-363v-285h313v-64h-313v-301h363v-65h-435v780zM339 930v-70h-80v70h80z" />
    <glyph glyph-name="Egrave" unicode="&#xc8;" horiz-adv-x="549" 
d="M74 780h435v-65h-363v-285h313v-64h-313v-301h363v-65h-435v780zM201 950h74l60 -110h-72z" />
    <glyph glyph-name="Emacron" unicode="&#x112;" horiz-adv-x="549" 
d="M74 780h435v-65h-363v-285h313v-64h-313v-301h363v-65h-435v780zM186 868v54h226v-54h-226z" />
    <glyph glyph-name="Eogonek" unicode="&#x118;" horiz-adv-x="549" 
d="M74 780h435v-65h-363v-285h313v-64h-313v-301h363v-65h-1c-44 -19 -83 -52 -83 -103c0 -29 20 -50 56 -50c24 0 48 6 63 14l19 -52c-21 -13 -57 -20 -89 -20c-65 0 -109 29 -109 98c0 48 22 86 54 113h-345v780z" />
    <glyph glyph-name="Fdotaccent" unicode="&#x1e1e;" horiz-adv-x="513" 
d="M74 780h419v-65h-347v-285h297v-64h-297v-366h-72v780zM339 930v-70h-80v70h80z" />
    <glyph glyph-name="Gbreve" unicode="&#x11e;" horiz-adv-x="648" 
d="M341 -11c-188 0 -284 111 -284 381v40c0 270 96 381 274 381c167 0 248 -91 248 -267v-28h-73c0 161 -49 230 -169 230h-6c-132 0 -199 -94 -199 -316v-40c0 -222 64 -316 207 -316h7c79 0 133 30 161 60v206h-134v64h206v-305c-42 -44 -114 -90 -238 -90zM331 829
c-105 0 -145 52 -145 121h56c0 -44 27 -71 89 -71s89 27 89 71h56c0 -69 -40 -121 -145 -121z" />
    <glyph glyph-name="Gcircumflex" unicode="&#x11c;" horiz-adv-x="648" 
d="M341 -11c-188 0 -284 111 -284 381v40c0 270 96 381 274 381c167 0 248 -91 248 -267v-28h-73c0 161 -49 230 -169 230h-6c-132 0 -199 -94 -199 -316v-40c0 -222 64 -316 207 -316h7c79 0 133 30 161 60v206h-134v64h206v-305c-42 -44 -114 -90 -238 -90zM263 840h-70
l106 110h64l106 -110h-70l-68 66z" />
    <glyph glyph-name="Gcommaaccent" unicode="&#x122;" horiz-adv-x="648" 
d="M341 -11c-188 0 -284 111 -284 381v40c0 270 96 381 274 381c167 0 248 -91 248 -267v-28h-73c0 161 -49 230 -169 230h-6c-132 0 -199 -94 -199 -316v-40c0 -222 64 -316 207 -316h7c79 0 133 30 161 60v206h-134v64h206v-305c-42 -44 -114 -90 -238 -90zM382 -56v-50
c0 -69 -39 -108 -105 -108v36c36 0 61 15 67 54h-44v68h82z" />
    <glyph glyph-name="Gdotaccent" unicode="&#x120;" horiz-adv-x="648" 
d="M341 -11c-188 0 -284 111 -284 381v40c0 270 96 381 274 381c167 0 248 -91 248 -267v-28h-73c0 161 -49 230 -169 230h-6c-132 0 -199 -94 -199 -316v-40c0 -222 64 -316 207 -316h7c79 0 133 30 161 60v206h-134v64h206v-305c-42 -44 -114 -90 -238 -90zM371 930v-70
h-80v70h80z" />
    <glyph glyph-name="Hbar" unicode="&#x126;" horiz-adv-x="639" 
d="M493 780h72v-780h-72v366h-347v-366h-72v780h72v-144h347v144zM146 430h347v147h-347v-147z" />
    <glyph glyph-name="Hcircumflex" unicode="&#x124;" horiz-adv-x="639" 
d="M493 780h72v-780h-72v366h-347v-366h-72v780h72v-350h347v350zM251 840h-70l106 110h64l106 -110h-70l-68 66z" />
    <glyph glyph-name="Iacute" unicode="&#xcd;" horiz-adv-x="229" 
d="M151 780v-780h-72v780h72zM139 950h74l-62 -110h-72z" />
    <glyph glyph-name="Ibreve" unicode="&#x12c;" horiz-adv-x="229" 
d="M151 780v-780h-72v780h72zM115 829c-105 0 -145 52 -145 121h56c0 -44 27 -71 89 -71s89 27 89 71h56c0 -69 -40 -121 -145 -121z" />
    <glyph glyph-name="Icircumflex" unicode="&#xce;" horiz-adv-x="229" 
d="M151 780v-780h-72v780h72zM47 840h-70l106 110h64l106 -110h-70l-68 66z" />
    <glyph glyph-name="Idieresis" unicode="&#xcf;" horiz-adv-x="229" 
d="M151 780v-780h-72v780h72zM233 930v-70h-79v70h79zM76 930v-70h-79v70h79z" />
    <glyph glyph-name="Idotaccent" unicode="&#x130;" horiz-adv-x="229" 
d="M151 780v-780h-72v780h72zM155 930v-70h-80v70h80z" />
    <glyph glyph-name="Igrave" unicode="&#xcc;" horiz-adv-x="229" 
d="M151 780v-780h-72v780h72zM17 950h74l60 -110h-72z" />
    <glyph glyph-name="Imacron" unicode="&#x12a;" horiz-adv-x="229" 
d="M151 780v-780h-72v780h72zM2 868v54h226v-54h-226z" />
    <glyph glyph-name="Iogonek" unicode="&#x12e;" horiz-adv-x="229" 
d="M67 -103c0 -29 20 -50 56 -50c24 0 48 6 63 14l19 -52c-21 -13 -57 -20 -89 -20c-65 0 -109 29 -109 98c0 57 31 100 72 127v766h72v-780h-1c-44 -19 -83 -52 -83 -103z" />
    <glyph glyph-name="Itilde" unicode="&#x128;" horiz-adv-x="229" 
d="M151 780v-780h-72v780h72zM217 936h50c0 -65 -33 -93 -79 -93c-62 0 -99 54 -138 54c-20 0 -37 -10 -37 -43h-50c0 65 33 93 79 93c62 0 99 -54 138 -54c20 0 37 10 37 43z" />
    <glyph glyph-name="Jcircumflex" unicode="&#x134;" horiz-adv-x="495" 
d="M354 780h72v-540c0 -156 -53 -251 -199 -251c-149 0 -198 92 -198 251v14h68c0 -138 36 -200 129 -200c92 0 128 62 128 198v528zM322 840h-70l106 110h64l106 -110h-70l-68 66z" />
    <glyph glyph-name="Kcommaaccent" unicode="&#x136;" horiz-adv-x="562" 
d="M146 780v-428l294 428h88l-232 -328l232 -452h-82l-196 387l-104 -147v-240h-72v780h72zM319 -56v-50c0 -69 -39 -108 -105 -108v36c36 0 61 15 67 54h-44v68h82z" />
    <glyph glyph-name="Lacute" unicode="&#x139;" horiz-adv-x="491" 
d="M476 0h-402v780h72v-715h330v-65zM134 950h74l-62 -110h-72z" />
    <glyph glyph-name="Lcaron" unicode="&#x13d;" horiz-adv-x="491" 
d="M476 0h-402v780h72v-715h330v-65zM292 800h59l-19 -186h-40v186z" />
    <glyph glyph-name="Lcommaaccent" unicode="&#x13b;" horiz-adv-x="491" 
d="M476 0h-402v780h72v-715h330v-65zM317 -56v-50c0 -69 -39 -108 -105 -108v36c36 0 61 15 67 54h-44v68h82z" />
    <glyph glyph-name="Ldot" unicode="&#x13f;" horiz-adv-x="491" 
d="M476 0h-402v780h72v-715h330v-65zM393 442v-88h-88v88h88z" />
    <glyph glyph-name="Lslash" unicode="&#x141;" horiz-adv-x="551" 
d="M18 265v67l116 60v388h72v-351l217 112v-66l-217 -113v-297h330v-65h-402v325z" />
    <glyph glyph-name="Mdotaccent" unicode="&#x1e40;" horiz-adv-x="803" 
d="M661 655l-227 -655h-65l-227 655l4 -174v-481h-72v780h101l227 -656l227 656h101v-780h-72v481zM442 930v-70h-80v70h80z" />
    <glyph glyph-name="Nacute" unicode="&#x143;" horiz-adv-x="659" 
d="M585 780v-780h-78l-369 658l4 -181v-477h-68v780h78l368 -658l-3 181v477h68zM353 950h74l-62 -110h-72z" />
    <glyph glyph-name="Ncaron" unicode="&#x147;" horiz-adv-x="659" 
d="M585 780v-780h-78l-369 658l4 -181v-477h-68v780h78l368 -658l-3 181v477h68zM191 950h70l68 -67l68 67h70l-106 -110h-64z" />
    <glyph glyph-name="Ncommaaccent" unicode="&#x145;" horiz-adv-x="659" 
d="M585 780v-780h-78l-369 658l4 -181v-477h-68v780h78l368 -658l-3 181v477h68zM370 -56v-50c0 -69 -39 -108 -105 -108v36c36 0 61 15 67 54h-44v68h82z" />
    <glyph glyph-name="Ntilde" unicode="&#xd1;" horiz-adv-x="659" 
d="M585 780v-780h-78l-369 658l4 -181v-477h-68v780h78l368 -658l-3 181v477h68zM431 936h50c0 -65 -33 -93 -79 -93c-62 0 -99 54 -138 54c-20 0 -37 -10 -37 -43h-50c0 65 33 93 79 93c62 0 99 -54 138 -54c20 0 37 10 37 43z" />
    <glyph glyph-name="Eng" unicode="&#x14a;" horiz-adv-x="659" 
d="M514 -44v30l-376 672l4 -181v-477h-68v780h78l368 -658l-3 181v477h68v-832c0 -116 -65 -159 -155 -159c-43 0 -67 8 -74 11v61c8 -3 34 -8 57 -8c66 0 101 19 101 103z" />
    <glyph glyph-name="Oacute" unicode="&#xd3;" horiz-adv-x="649" 
d="M324 -11c-178 0 -267 111 -267 381v40c0 270 89 381 267 381c179 0 268 -111 268 -381v-40c0 -270 -89 -381 -268 -381zM321 54h7c131 0 190 94 190 316v40c0 222 -59 316 -190 316h-7c-131 0 -190 -94 -190 -316v-40c0 -222 59 -316 190 -316zM348 950h74l-62 -110h-72z
" />
    <glyph glyph-name="Obreve" unicode="&#x14e;" horiz-adv-x="649" 
d="M324 -11c-178 0 -267 111 -267 381v40c0 270 89 381 267 381c179 0 268 -111 268 -381v-40c0 -270 -89 -381 -268 -381zM321 54h7c131 0 190 94 190 316v40c0 222 -59 316 -190 316h-7c-131 0 -190 -94 -190 -316v-40c0 -222 59 -316 190 -316zM324 829
c-105 0 -145 52 -145 121h56c0 -44 27 -71 89 -71s89 27 89 71h56c0 -69 -40 -121 -145 -121z" />
    <glyph glyph-name="Ocircumflex" unicode="&#xd4;" horiz-adv-x="649" 
d="M324 -11c-178 0 -267 111 -267 381v40c0 270 89 381 267 381c179 0 268 -111 268 -381v-40c0 -270 -89 -381 -268 -381zM321 54h7c131 0 190 94 190 316v40c0 222 -59 316 -190 316h-7c-131 0 -190 -94 -190 -316v-40c0 -222 59 -316 190 -316zM256 840h-70l106 110h64
l106 -110h-70l-68 66z" />
    <glyph glyph-name="Odieresis" unicode="&#xd6;" horiz-adv-x="649" 
d="M324 -11c-178 0 -267 111 -267 381v40c0 270 89 381 267 381c179 0 268 -111 268 -381v-40c0 -270 -89 -381 -268 -381zM321 54h7c131 0 190 94 190 316v40c0 222 -59 316 -190 316h-7c-131 0 -190 -94 -190 -316v-40c0 -222 59 -316 190 -316zM285 930v-70h-79v70h79z
M442 930v-70h-79v70h79z" />
    <glyph glyph-name="Ograve" unicode="&#xd2;" horiz-adv-x="649" 
d="M324 -11c-178 0 -267 111 -267 381v40c0 270 89 381 267 381c179 0 268 -111 268 -381v-40c0 -270 -89 -381 -268 -381zM321 54h7c131 0 190 94 190 316v40c0 222 -59 316 -190 316h-7c-131 0 -190 -94 -190 -316v-40c0 -222 59 -316 190 -316zM226 950h74l60 -110h-72z
" />
    <glyph glyph-name="Ohungarumlaut" unicode="&#x150;" horiz-adv-x="649" 
d="M324 -11c-178 0 -267 111 -267 381v40c0 270 89 381 267 381c179 0 268 -111 268 -381v-40c0 -270 -89 -381 -268 -381zM321 54h7c131 0 190 94 190 316v40c0 222 -59 316 -190 316h-7c-131 0 -190 -94 -190 -316v-40c0 -222 59 -316 190 -316zM286 950h70l-61 -110h-67z
M413 950h70l-63 -110h-67z" />
    <glyph glyph-name="Omacron" unicode="&#x14c;" horiz-adv-x="649" 
d="M324 -11c-178 0 -267 111 -267 381v40c0 270 89 381 267 381c179 0 268 -111 268 -381v-40c0 -270 -89 -381 -268 -381zM321 54h7c131 0 190 94 190 316v40c0 222 -59 316 -190 316h-7c-131 0 -190 -94 -190 -316v-40c0 -222 59 -316 190 -316zM211 868v54h226v-54h-226z
" />
    <glyph glyph-name="Otilde" unicode="&#xd5;" horiz-adv-x="649" 
d="M324 -11c-178 0 -267 111 -267 381v40c0 270 89 381 267 381c179 0 268 -111 268 -381v-40c0 -270 -89 -381 -268 -381zM321 54h7c131 0 190 94 190 316v40c0 222 -59 316 -190 316h-7c-131 0 -190 -94 -190 -316v-40c0 -222 59 -316 190 -316zM426 936h50
c0 -65 -33 -93 -79 -93c-62 0 -99 54 -138 54c-20 0 -37 -10 -37 -43h-50c0 65 33 93 79 93c62 0 99 -54 138 -54c20 0 37 10 37 43z" />
    <glyph glyph-name="Pdotaccent" unicode="&#x1e56;" horiz-adv-x="573" 
d="M146 317v-317h-72v780h216c111 0 239 -42 239 -222v-20c0 -179 -128 -221 -239 -221h-144zM146 382h146c67 0 163 25 163 159v15c0 134 -96 159 -163 159h-146v-333zM327 930v-70h-80v70h80z" />
    <glyph glyph-name="Racute" unicode="&#x154;" horiz-adv-x="584" 
d="M146 317v-317h-72v780h216c111 0 239 -42 239 -222v-20c0 -124 -61 -182 -135 -206l135 -332h-79l-124 318c-12 -1 -24 -1 -36 -1h-144zM146 382h146c67 0 163 25 163 159v15c0 134 -96 159 -163 159h-146v-333zM298 950h74l-62 -110h-72z" />
    <glyph glyph-name="Rcaron" unicode="&#x158;" horiz-adv-x="584" 
d="M146 317v-317h-72v780h216c111 0 239 -42 239 -222v-20c0 -124 -61 -182 -135 -206l135 -332h-79l-124 318c-12 -1 -24 -1 -36 -1h-144zM146 382h146c67 0 163 25 163 159v15c0 134 -96 159 -163 159h-146v-333zM136 950h70l68 -67l68 67h70l-106 -110h-64z" />
    <glyph glyph-name="Rcommaaccent" unicode="&#x156;" horiz-adv-x="584" 
d="M146 317v-317h-72v780h216c111 0 239 -42 239 -222v-20c0 -124 -61 -182 -135 -206l135 -332h-79l-124 318c-12 -1 -24 -1 -36 -1h-144zM146 382h146c67 0 163 25 163 159v15c0 134 -96 159 -163 159h-146v-333zM325 -56v-50c0 -69 -39 -108 -105 -108v36
c36 0 61 15 67 54h-44v68h82z" />
    <glyph glyph-name="Sacute" unicode="&#x15a;" horiz-adv-x="601" 
d="M288 370c-170 23 -233 99 -233 202v10c0 130 97 209 245 209c174 0 246 -90 246 -251v-24h-72c0 148 -52 210 -171 210h-7c-95 0 -167 -51 -167 -135v-8c0 -83 43 -132 186 -152c170 -23 240 -92 240 -212v-10c0 -138 -99 -220 -255 -220c-165 0 -254 94 -254 255v10h72
c0 -137 74 -200 179 -200h7c106 0 177 55 177 150v9c0 92 -57 138 -193 157zM324 950h74l-62 -110h-72z" />
    <glyph glyph-name="Scaron" unicode="&#x160;" horiz-adv-x="601" 
d="M288 370c-170 23 -233 99 -233 202v10c0 130 97 209 245 209c174 0 246 -90 246 -251v-24h-72c0 148 -52 210 -171 210h-7c-95 0 -167 -51 -167 -135v-8c0 -83 43 -132 186 -152c170 -23 240 -92 240 -212v-10c0 -138 -99 -220 -255 -220c-165 0 -254 94 -254 255v10h72
c0 -137 74 -200 179 -200h7c106 0 177 55 177 150v9c0 92 -57 138 -193 157zM162 950h70l68 -67l68 67h70l-106 -110h-64z" />
    <glyph glyph-name="Scedilla" unicode="&#x15e;" horiz-adv-x="601" 
d="M212 -191l15 44c17 -9 44 -15 70 -15c39 0 58 7 58 31c0 23 -24 31 -62 31c-15 0 -29 -3 -29 -3l-19 23l27 70c-147 10 -226 102 -226 254v10h72c0 -137 74 -200 179 -200h7c106 0 177 55 177 150v9c0 92 -57 138 -193 157c-170 23 -233 99 -233 202v10
c0 130 97 209 245 209c174 0 246 -90 246 -251v-24h-72c0 148 -52 210 -171 210h-7c-95 0 -167 -51 -167 -135v-8c0 -83 43 -132 186 -152c170 -23 240 -92 240 -212v-10c0 -132 -91 -212 -235 -219l-17 -46h4c49 0 100 -21 100 -77s-42 -78 -103 -78c-37 0 -72 7 -92 20z
" />
    <glyph glyph-name="Scircumflex" unicode="&#x15c;" horiz-adv-x="601" 
d="M288 370c-170 23 -233 99 -233 202v10c0 130 97 209 245 209c174 0 246 -90 246 -251v-24h-72c0 148 -52 210 -171 210h-7c-95 0 -167 -51 -167 -135v-8c0 -83 43 -132 186 -152c170 -23 240 -92 240 -212v-10c0 -138 -99 -220 -255 -220c-165 0 -254 94 -254 255v10h72
c0 -137 74 -200 179 -200h7c106 0 177 55 177 150v9c0 92 -57 138 -193 157zM232 840h-70l106 110h64l106 -110h-70l-68 66z" />
    <glyph glyph-name="Scommaaccent" unicode="&#x218;" horiz-adv-x="601" 
d="M288 370c-170 23 -233 99 -233 202v10c0 130 97 209 245 209c174 0 246 -90 246 -251v-24h-72c0 148 -52 210 -171 210h-7c-95 0 -167 -51 -167 -135v-8c0 -83 43 -132 186 -152c170 -23 240 -92 240 -212v-10c0 -138 -99 -220 -255 -220c-165 0 -254 94 -254 255v10h72
c0 -137 74 -200 179 -200h7c106 0 177 55 177 150v9c0 92 -57 138 -193 157zM341 -56v-50c0 -69 -39 -108 -105 -108v36c36 0 61 15 67 54h-44v68h82z" />
    <glyph glyph-name="Eszett" unicode="&#x1e9e;" horiz-adv-x="757" 
d="M306 440l159 271c-32 11 -70 15 -109 15c-126 0 -215 -45 -215 -193v-533h-72v538c0 188 115 253 287 253c71 0 135 -12 185 -40v-50l-150 -257l91 -11c162 -21 239 -94 239 -214v-10c0 -138 -89 -220 -232 -220c-155 0 -233 83 -233 255v10h72c0 -146 67 -200 158 -200
h7c92 0 154 53 154 150v9c0 92 -65 142 -187 158l-154 19v50z" />
    <glyph glyph-name="Tbar" unicode="&#x166;" horiz-adv-x="515" 
d="M293 715v-286h126v-62h-126v-367h-72v367h-125v62h125v286h-198v65h469v-65h-199z" />
    <glyph glyph-name="Tcaron" unicode="&#x164;" horiz-adv-x="515" 
d="M293 715v-715h-72v715h-198v65h469v-65h-199zM119 950h70l68 -67l68 67h70l-106 -110h-64z" />
    <glyph glyph-name="Tcommaaccent" unicode="&#x162;" horiz-adv-x="515" 
d="M293 715v-715h-72v715h-198v65h469v-65h-199zM298 -56v-50c0 -69 -39 -108 -105 -108v36c36 0 61 15 67 54h-44v68h82z" />
    <glyph glyph-name="Tdotaccent" unicode="&#x1e6a;" horiz-adv-x="515" 
d="M293 715v-715h-72v715h-198v65h469v-65h-199zM297 930v-70h-80v70h80z" />
    <glyph glyph-name="Uacute" unicode="&#xda;" horiz-adv-x="639" 
d="M319 -11c-166 0 -250 65 -250 253v538h72v-533c0 -148 58 -193 178 -193s179 45 179 193v533h72v-538c0 -188 -85 -253 -251 -253zM343 950h74l-62 -110h-72z" />
    <glyph glyph-name="Ubreve" unicode="&#x16c;" horiz-adv-x="639" 
d="M319 829c-105 0 -145 52 -145 121h56c0 -44 27 -71 89 -71s89 27 89 71h56c0 -69 -40 -121 -145 -121zM319 -11c-166 0 -250 65 -250 253v538h72v-533c0 -148 58 -193 178 -193s179 45 179 193v533h72v-538c0 -188 -85 -253 -251 -253z" />
    <glyph glyph-name="Ucircumflex" unicode="&#xdb;" horiz-adv-x="639" 
d="M319 -11c-166 0 -250 65 -250 253v538h72v-533c0 -148 58 -193 178 -193s179 45 179 193v533h72v-538c0 -188 -85 -253 -251 -253zM251 840h-70l106 110h64l106 -110h-70l-68 66z" />
    <glyph glyph-name="Udieresis" unicode="&#xdc;" horiz-adv-x="639" 
d="M319 -11c-166 0 -250 65 -250 253v538h72v-533c0 -148 58 -193 178 -193s179 45 179 193v533h72v-538c0 -188 -85 -253 -251 -253zM280 930v-70h-79v70h79zM437 930v-70h-79v70h79z" />
    <glyph glyph-name="Ugrave" unicode="&#xd9;" horiz-adv-x="639" 
d="M319 -11c-166 0 -250 65 -250 253v538h72v-533c0 -148 58 -193 178 -193s179 45 179 193v533h72v-538c0 -188 -85 -253 -251 -253zM221 950h74l60 -110h-72z" />
    <glyph glyph-name="Uhungarumlaut" unicode="&#x170;" horiz-adv-x="639" 
d="M319 -11c-166 0 -250 65 -250 253v538h72v-533c0 -148 58 -193 178 -193s179 45 179 193v533h72v-538c0 -188 -85 -253 -251 -253zM408 950h70l-63 -110h-67zM281 950h70l-61 -110h-67z" />
    <glyph glyph-name="Umacron" unicode="&#x16a;" horiz-adv-x="639" 
d="M319 -11c-166 0 -250 65 -250 253v538h72v-533c0 -148 58 -193 178 -193s179 45 179 193v533h72v-538c0 -188 -85 -253 -251 -253zM206 868v54h226v-54h-226z" />
    <glyph glyph-name="Uogonek" unicode="&#x172;" horiz-adv-x="639" 
d="M319 -11c-166 0 -250 65 -250 253v538h72v-533c0 -148 58 -193 178 -193s179 45 179 193v533h72v-538c0 -145 -51 -216 -150 -242c-45 -12 -83 -52 -83 -103c0 -29 20 -50 56 -50c24 0 48 6 63 14l19 -52c-21 -13 -57 -20 -89 -20c-65 0 -109 29 -109 98
c0 42 17 76 42 102z" />
    <glyph glyph-name="Uring" unicode="&#x16e;" horiz-adv-x="639" 
d="M319 -11c-166 0 -250 65 -250 253v538h72v-533c0 -148 58 -193 178 -193s179 45 179 193v533h72v-538c0 -188 -85 -253 -251 -253zM225 867c0 52 42 94 94 94s94 -42 94 -94s-42 -94 -94 -94s-94 42 -94 94zM263 867c0 -31 25 -56 56 -56s56 25 56 56s-25 56 -56 56
s-56 -25 -56 -56z" />
    <glyph glyph-name="Utilde" unicode="&#x168;" horiz-adv-x="639" 
d="M421 936h50c0 -65 -33 -93 -79 -93c-62 0 -99 54 -138 54c-20 0 -37 -10 -37 -43h-50c0 65 33 93 79 93c62 0 99 -54 138 -54c20 0 37 10 37 43zM319 -11c-166 0 -250 65 -250 253v538h72v-533c0 -148 58 -193 178 -193s179 45 179 193v533h72v-538
c0 -188 -85 -253 -251 -253z" />
    <glyph glyph-name="Wacute" unicode="&#x1e82;" horiz-adv-x="895" 
d="M610 -8l-163 710l-162 -710h-99l-145 788h76l122 -699l160 699h97l160 -699l122 699h76l-145 -788h-99zM471 950h74l-62 -110h-72z" />
    <glyph glyph-name="Wcircumflex" unicode="&#x174;" horiz-adv-x="895" 
d="M610 -8l-163 710l-162 -710h-99l-145 788h76l122 -699l160 699h97l160 -699l122 699h76l-145 -788h-99zM379 840h-70l106 110h64l106 -110h-70l-68 66z" />
    <glyph glyph-name="Wdieresis" unicode="&#x1e84;" horiz-adv-x="895" 
d="M610 -8l-163 710l-162 -710h-99l-145 788h76l122 -699l160 699h97l160 -699l122 699h76l-145 -788h-99zM408 930v-70h-79v70h79zM565 930v-70h-79v70h79z" />
    <glyph glyph-name="Wgrave" unicode="&#x1e80;" horiz-adv-x="895" 
d="M610 -8l-163 710l-162 -710h-99l-145 788h76l122 -699l160 699h97l160 -699l122 699h76l-145 -788h-99zM349 950h74l60 -110h-72z" />
    <glyph glyph-name="Yacute" unicode="&#xdd;" horiz-adv-x="577" 
d="M325 236v-236h-72v236l-232 544h78l190 -455l189 455h79zM313 950h74l-62 -110h-72z" />
    <glyph glyph-name="Ycircumflex" unicode="&#x176;" horiz-adv-x="577" 
d="M325 236v-236h-72v236l-232 544h78l190 -455l189 455h79zM221 840h-70l106 110h64l106 -110h-70l-68 66z" />
    <glyph glyph-name="Ydieresis" unicode="&#x178;" horiz-adv-x="577" 
d="M325 236v-236h-72v236l-232 544h78l190 -455l189 455h79zM407 930v-70h-79v70h79zM250 930v-70h-79v70h79z" />
    <glyph glyph-name="Ygrave" unicode="&#x1ef2;" horiz-adv-x="577" 
d="M325 236v-236h-72v236l-232 544h78l190 -455l189 455h79zM191 950h74l60 -110h-72z" />
    <glyph glyph-name="Ymacron" unicode="&#x232;" horiz-adv-x="577" 
d="M325 236v-236h-72v236l-232 544h78l190 -455l189 455h79zM176 868v54h226v-54h-226z" />
    <glyph glyph-name="Zacute" unicode="&#x179;" horiz-adv-x="563" 
d="M303 950h74l-62 -110h-72zM40 50l384 668l-126 -3h-248v65h463v-50l-384 -668l126 3h268v-65h-483v50z" />
    <glyph glyph-name="Zcaron" unicode="&#x17d;" horiz-adv-x="563" 
d="M141 950h70l68 -67l68 67h70l-106 -110h-64zM40 50l384 668l-126 -3h-248v65h463v-50l-384 -668l126 3h268v-65h-483v50z" />
    <glyph glyph-name="Zdotaccent" unicode="&#x17b;" horiz-adv-x="563" 
d="M319 930v-70h-80v70h80zM40 50l384 668l-126 -3h-248v65h463v-50l-384 -668l126 3h268v-65h-483v50z" />
    <glyph glyph-name="aacute" unicode="&#xe1;" horiz-adv-x="512" 
d="M396 0l-11 74c-35 -46 -95 -85 -187 -85c-97 0 -153 60 -153 145v10c0 115 87 148 173 161l160 25v14c0 91 -29 138 -123 138c-100 0 -123 -58 -123 -127h-67v9c0 80 35 177 191 177c147 0 192 -80 192 -197v-194l6 -150h-58zM216 50c98 0 143 53 162 84v145l-154 -25
c-68 -12 -109 -45 -109 -105v-9c0 -47 30 -90 101 -90zM310 780h76l-94 -166h-72z" />
    <glyph glyph-name="abreve" unicode="&#x103;" horiz-adv-x="512" 
d="M396 0l-11 74c-35 -46 -95 -85 -187 -85c-97 0 -153 60 -153 145v10c0 115 87 148 173 161l160 25v14c0 91 -29 138 -123 138c-100 0 -123 -58 -123 -127h-67v9c0 80 35 177 191 177c147 0 192 -80 192 -197v-194l6 -150h-58zM216 50c98 0 143 53 162 84v145l-154 -25
c-68 -12 -109 -45 -109 -105v-9c0 -47 30 -90 101 -90zM256 603c-114 0 -162 73 -161 177h57c0 -71 30 -118 104 -118s104 47 104 118h57c1 -104 -47 -177 -161 -177z" />
    <glyph glyph-name="acircumflex" unicode="&#xe2;" horiz-adv-x="512" 
d="M396 0l-11 74c-35 -46 -95 -85 -187 -85c-97 0 -153 60 -153 145v10c0 115 87 148 173 161l160 25v14c0 91 -29 138 -123 138c-100 0 -123 -58 -123 -127h-67v9c0 80 35 177 191 177c147 0 192 -80 192 -197v-194l6 -150h-58zM216 50c98 0 143 53 162 84v145l-154 -25
c-68 -12 -109 -45 -109 -105v-9c0 -47 30 -90 101 -90zM163 614h-69l131 166h62l131 -166h-69l-93 113z" />
    <glyph glyph-name="adieresis" unicode="&#xe4;" horiz-adv-x="512" 
d="M396 0l-11 74c-35 -46 -95 -85 -187 -85c-97 0 -153 60 -153 145v10c0 115 87 148 173 161l160 25v14c0 91 -29 138 -123 138c-100 0 -123 -58 -123 -127h-67v9c0 80 35 177 191 177c147 0 192 -80 192 -197v-194l6 -150h-58zM216 50c98 0 143 53 162 84v145l-154 -25
c-68 -12 -109 -45 -109 -105v-9c0 -47 30 -90 101 -90zM216 745v-88h-87v88h87zM383 745v-88h-87v88h87z" />
    <glyph glyph-name="agrave" unicode="&#xe0;" horiz-adv-x="512" 
d="M396 0l-11 74c-35 -46 -95 -85 -187 -85c-97 0 -153 60 -153 145v10c0 115 87 148 173 161l160 25v14c0 91 -29 138 -123 138c-100 0 -123 -58 -123 -127h-67v9c0 80 35 177 191 177c147 0 192 -80 192 -197v-194l6 -150h-58zM216 50c98 0 143 53 162 84v145l-154 -25
c-68 -12 -109 -45 -109 -105v-9c0 -47 30 -90 101 -90zM126 780h76l90 -166h-72z" />
    <glyph glyph-name="amacron" unicode="&#x101;" horiz-adv-x="512" 
d="M396 0l-11 74c-35 -46 -95 -85 -187 -85c-97 0 -153 60 -153 145v10c0 115 87 148 173 161l160 25v14c0 91 -29 138 -123 138c-100 0 -123 -58 -123 -127h-67v9c0 80 35 177 191 177c147 0 192 -80 192 -197v-194l6 -150h-58zM216 50c98 0 143 53 162 84v145l-154 -25
c-68 -12 -109 -45 -109 -105v-9c0 -47 30 -90 101 -90zM139 664v66h234v-66h-234z" />
    <glyph glyph-name="aogonek" unicode="&#x105;" horiz-adv-x="512" 
d="M371 -103c0 -29 20 -50 56 -50c24 0 48 6 63 14l19 -52c-21 -13 -57 -20 -89 -20c-65 0 -109 29 -109 98c0 61 36 106 82 134l-8 53c-35 -46 -95 -85 -187 -85c-97 0 -153 60 -153 145v10c0 115 87 148 173 161l160 25v14c0 91 -29 138 -123 138
c-100 0 -123 -58 -123 -127h-67v9c0 80 35 177 191 177c147 0 192 -80 192 -197v-194l6 -150c-44 -19 -83 -52 -83 -103zM216 50c98 0 143 53 162 84v145l-154 -25c-68 -12 -109 -45 -109 -105v-9c0 -47 30 -90 101 -90z" />
    <glyph glyph-name="atilde" unicode="&#xe3;" horiz-adv-x="512" 
d="M396 0l-11 74c-35 -46 -95 -85 -187 -85c-97 0 -153 60 -153 145v10c0 115 87 148 173 161l160 25v14c0 91 -29 138 -123 138c-100 0 -123 -58 -123 -127h-67v9c0 80 35 177 191 177c147 0 192 -80 192 -197v-194l6 -150h-58zM216 50c98 0 143 53 162 84v145l-154 -25
c-68 -12 -109 -45 -109 -105v-9c0 -47 30 -90 101 -90zM357 746h55c0 -71 -33 -103 -81 -103c-62 0 -100 54 -140 54c-20 0 -36 -10 -36 -43h-55c0 71 33 103 81 103c62 0 100 -54 140 -54c20 0 36 10 36 43z" />
    <glyph glyph-name="bdotaccent" unicode="&#x1e03;" horiz-adv-x="537" 
d="M136 800v-331c28 40 76 72 150 72c145 0 203 -117 203 -264v-24c0 -147 -58 -264 -203 -264c-81 0 -130 37 -158 83l-10 -72h-58l6 150v650h70zM136 396v-262c21 -35 62 -82 134 -82c100 0 147 78 147 201v24c0 123 -47 201 -147 201c-72 0 -113 -47 -134 -82zM141 930
v-70h-80v70h80z" />
    <glyph glyph-name="cacute" unicode="&#x107;" horiz-adv-x="522" 
d="M120 253c0 -121 46 -201 151 -201c99 0 135 63 135 132h67v-16c0 -84 -57 -179 -203 -179c-155 0 -221 117 -221 264v24c0 147 66 264 221 264c146 0 203 -99 203 -185v-20h-67c0 81 -39 142 -135 142c-105 0 -151 -80 -151 -201v-24zM324 780h76l-94 -166h-72z" />
    <glyph glyph-name="ccaron" unicode="&#x10d;" horiz-adv-x="522" 
d="M120 253c0 -121 46 -201 151 -201c99 0 135 63 135 132h67v-16c0 -84 -57 -179 -203 -179c-155 0 -221 117 -221 264v24c0 147 66 264 221 264c146 0 203 -99 203 -185v-20h-67c0 81 -39 142 -135 142c-105 0 -151 -80 -151 -201v-24zM108 780h69l93 -114l93 114h69
l-131 -166h-62z" />
    <glyph glyph-name="ccedilla" unicode="&#xe7;" horiz-adv-x="522" 
d="M188 -191l15 44c17 -9 44 -15 70 -15c39 0 58 7 58 31c0 23 -24 31 -62 31c-15 0 -29 -3 -29 -3l-19 23l27 70c-139 10 -199 123 -199 263v24c0 147 66 264 221 264c146 0 203 -99 203 -185v-20h-67c0 81 -39 142 -135 142c-105 0 -151 -80 -151 -201v-24
c0 -121 46 -201 151 -201c99 0 135 63 135 132h67v-16c0 -79 -50 -167 -177 -178l-17 -46h4c49 0 100 -21 100 -77s-42 -78 -103 -78c-37 0 -72 7 -92 20z" />
    <glyph glyph-name="ccircumflex" unicode="&#x109;" horiz-adv-x="522" 
d="M120 253c0 -121 46 -201 151 -201c99 0 135 63 135 132h67v-16c0 -84 -57 -179 -203 -179c-155 0 -221 117 -221 264v24c0 147 66 264 221 264c146 0 203 -99 203 -185v-20h-67c0 81 -39 142 -135 142c-105 0 -151 -80 -151 -201v-24zM177 614h-69l131 166h62l131 -166
h-69l-93 113z" />
    <glyph glyph-name="cdotaccent" unicode="&#x10b;" horiz-adv-x="522" 
d="M120 253c0 -121 46 -201 151 -201c99 0 135 63 135 132h67v-16c0 -84 -57 -179 -203 -179c-155 0 -221 117 -221 264v24c0 147 66 264 221 264c146 0 203 -99 203 -185v-20h-67c0 81 -39 142 -135 142c-105 0 -151 -80 -151 -201v-24zM314 745v-88h-88v88h88z" />
    <glyph glyph-name="dcaron" unicode="&#x10f;" horiz-adv-x="540" 
d="M254 541c74 0 121 -32 150 -72v331h70v-650l6 -150h-59l-10 71c-27 -45 -77 -82 -157 -82c-145 0 -203 117 -203 264v24c0 147 58 264 203 264zM269 52c72 0 113 47 135 82v262c-22 35 -63 82 -135 82c-100 0 -147 -78 -147 -201v-24c0 -123 47 -201 147 -201zM548 800
h59l-19 -186h-40v186z" />
    <glyph glyph-name="dcroat" unicode="&#x111;" horiz-adv-x="540" 
d="M565 694v-58h-91v-486l6 -150h-59l-10 71c-27 -45 -77 -82 -157 -82c-145 0 -203 117 -203 264v24c0 147 58 264 203 264c74 0 121 -32 150 -72v167h-133v58h133v106h70v-106h91zM404 396c-22 35 -63 82 -135 82c-100 0 -147 -78 -147 -201v-24c0 -123 47 -201 147 -201
c72 0 113 47 135 82v262z" />
    <glyph glyph-name="ddotaccent" unicode="&#x1e0b;" horiz-adv-x="540" 
d="M254 541c74 0 121 -32 150 -72v331h70v-650l6 -150h-59l-10 71c-27 -45 -77 -82 -157 -82c-145 0 -203 117 -203 264v24c0 147 58 264 203 264zM404 396c-22 35 -63 82 -135 82c-100 0 -147 -78 -147 -201v-24c0 -123 47 -201 147 -201c72 0 113 47 135 82v262zM479 930
v-70h-80v70h80z" />
    <glyph glyph-name="eth" unicode="&#xf0;" horiz-adv-x="544" 
d="M49 747v64c84 -7 162 -26 232 -68l117 68v-55l-74 -42c19 -15 38 -33 56 -52c92 -103 115 -269 115 -385v-24c0 -147 -67 -264 -223 -264s-223 117 -223 264v24c0 147 67 264 217 264c56 0 100 -18 132 -47c-17 48 -41 91 -73 126c-21 22 -44 40 -67 56l-171 -99v55
l123 71c-50 24 -104 37 -161 44zM272 52c105 0 152 80 152 201v24c0 121 -47 201 -152 201s-152 -80 -152 -201v-24c0 -121 47 -201 152 -201z" />
    <glyph glyph-name="eacute" unicode="&#xe9;" horiz-adv-x="544" 
d="M495 236h-375c3 -116 52 -188 158 -188s150 65 150 122h67v-4c0 -82 -68 -177 -217 -177c-160 0 -229 118 -229 265v22c0 147 69 265 224 265s222 -118 222 -265v-40zM272 482c-100 0 -149 -73 -152 -188h304c-4 115 -51 188 -152 188zM327 780h76l-94 -166h-72z" />
    <glyph glyph-name="ebreve" unicode="&#x115;" horiz-adv-x="544" 
d="M495 236h-375c3 -116 52 -188 158 -188s150 65 150 122h67v-4c0 -82 -68 -177 -217 -177c-160 0 -229 118 -229 265v22c0 147 69 265 224 265s222 -118 222 -265v-40zM272 482c-100 0 -149 -73 -152 -188h304c-4 115 -51 188 -152 188zM273 603c-114 0 -162 73 -161 177
h57c0 -71 30 -118 104 -118s104 47 104 118h57c1 -104 -47 -177 -161 -177z" />
    <glyph glyph-name="ecaron" unicode="&#x11b;" horiz-adv-x="544" 
d="M495 236h-375c3 -116 52 -188 158 -188s150 65 150 122h67v-4c0 -82 -68 -177 -217 -177c-160 0 -229 118 -229 265v22c0 147 69 265 224 265s222 -118 222 -265v-40zM272 482c-100 0 -149 -73 -152 -188h304c-4 115 -51 188 -152 188zM111 780h69l93 -114l93 114h69
l-131 -166h-62z" />
    <glyph glyph-name="ecircumflex" unicode="&#xea;" horiz-adv-x="544" 
d="M495 236h-375c3 -116 52 -188 158 -188s150 65 150 122h67v-4c0 -82 -68 -177 -217 -177c-160 0 -229 118 -229 265v22c0 147 69 265 224 265s222 -118 222 -265v-40zM272 482c-100 0 -149 -73 -152 -188h304c-4 115 -51 188 -152 188zM180 614h-69l131 166h62l131 -166
h-69l-93 113z" />
    <glyph glyph-name="edieresis" unicode="&#xeb;" horiz-adv-x="544" 
d="M495 236h-375c3 -116 52 -188 158 -188s150 65 150 122h67v-4c0 -82 -68 -177 -217 -177c-160 0 -229 118 -229 265v22c0 147 69 265 224 265s222 -118 222 -265v-40zM272 482c-100 0 -149 -73 -152 -188h304c-4 115 -51 188 -152 188zM400 745v-88h-87v88h87zM233 745
v-88h-87v88h87z" />
    <glyph glyph-name="edotaccent" unicode="&#x117;" horiz-adv-x="544" 
d="M495 236h-375c3 -116 52 -188 158 -188s150 65 150 122h67v-4c0 -82 -68 -177 -217 -177c-160 0 -229 118 -229 265v22c0 147 69 265 224 265s222 -118 222 -265v-40zM272 482c-100 0 -149 -73 -152 -188h304c-4 115 -51 188 -152 188zM317 745v-88h-88v88h88z" />
    <glyph glyph-name="egrave" unicode="&#xe8;" horiz-adv-x="544" 
d="M495 236h-375c3 -116 52 -188 158 -188s150 65 150 122h67v-4c0 -82 -68 -177 -217 -177c-160 0 -229 118 -229 265v22c0 147 69 265 224 265s222 -118 222 -265v-40zM272 482c-100 0 -149 -73 -152 -188h304c-4 115 -51 188 -152 188zM143 780h76l90 -166h-72z" />
    <glyph glyph-name="emacron" unicode="&#x113;" horiz-adv-x="544" 
d="M495 236h-375c3 -116 52 -188 158 -188s150 65 150 122h67v-4c0 -82 -68 -177 -217 -177c-160 0 -229 118 -229 265v22c0 147 69 265 224 265s222 -118 222 -265v-40zM272 482c-100 0 -149 -73 -152 -188h304c-4 115 -51 188 -152 188zM156 664v66h234v-66h-234z" />
    <glyph glyph-name="eogonek" unicode="&#x119;" horiz-adv-x="544" 
d="M495 236h-375c3 -116 52 -188 158 -188s150 65 150 122h67v-4c0 -66 -42 -139 -137 -166c-42 -12 -82 -52 -82 -103c0 -29 20 -50 56 -50c24 0 48 6 63 14l19 -52c-21 -13 -57 -20 -89 -20c-65 0 -109 29 -109 98c0 42 17 76 43 103c-147 9 -210 123 -210 264v22
c0 147 69 265 224 265s222 -118 222 -265v-40zM272 482c-100 0 -149 -73 -152 -188h304c-4 115 -51 188 -152 188z" />
    <glyph glyph-name="fdotaccent" unicode="&#x1e1f;" horiz-adv-x="370" 
d="M185 644v-114h149v-63h-149v-467h-70v467h-84v63h84v123c0 115 65 158 155 158c42 0 66 -8 74 -11v-61c-8 4 -35 9 -57 9c-67 0 -102 -20 -102 -104zM281 930v-70h-80v70h80z" />
    <glyph glyph-name="gbreve" unicode="&#x11f;" horiz-adv-x="537" 
d="M402 -1v98c-29 -40 -76 -70 -150 -70c-144 0 -203 111 -203 246v22c0 133 59 246 203 246c81 0 130 -37 158 -82l10 71h58l-6 -150v-385c0 -119 -57 -206 -208 -206c-153 0 -205 89 -205 198v13h67c0 -100 38 -150 137 -150c102 0 139 52 139 149zM402 396
c-22 35 -62 82 -135 82c-99 0 -147 -74 -147 -183v-22c0 -111 48 -183 147 -183c73 0 113 47 135 81v225zM265 603c-114 0 -162 73 -161 177h57c0 -71 30 -118 104 -118s104 47 104 118h57c1 -104 -47 -177 -161 -177z" />
    <glyph glyph-name="gcircumflex" unicode="&#x11d;" horiz-adv-x="537" 
d="M402 -1v98c-29 -40 -76 -70 -150 -70c-144 0 -203 111 -203 246v22c0 133 59 246 203 246c81 0 130 -37 158 -82l10 71h58l-6 -150v-385c0 -119 -57 -206 -208 -206c-153 0 -205 89 -205 198v13h67c0 -100 38 -150 137 -150c102 0 139 52 139 149zM402 396
c-22 35 -62 82 -135 82c-99 0 -147 -74 -147 -183v-22c0 -111 48 -183 147 -183c73 0 113 47 135 81v225zM172 614h-69l131 166h62l131 -166h-69l-93 113z" />
    <glyph glyph-name="gcommaaccent" unicode="&#x123;" horiz-adv-x="537" 
d="M402 -1v98c-29 -40 -76 -70 -150 -70c-144 0 -203 111 -203 246v22c0 133 59 246 203 246c81 0 130 -37 158 -82l10 71h58l-6 -150v-385c0 -119 -57 -206 -208 -206c-153 0 -205 89 -205 198v13h67c0 -100 38 -150 137 -150c102 0 139 52 139 149zM402 396
c-22 35 -62 82 -135 82c-99 0 -147 -74 -147 -183v-22c0 -111 48 -183 147 -183c73 0 113 47 135 81v225zM224 614v52c0 85 34 125 104 125v-36c-41 0 -64 -17 -68 -71h45v-70h-81z" />
    <glyph glyph-name="gdotaccent" unicode="&#x121;" horiz-adv-x="537" 
d="M402 -1v98c-29 -40 -76 -70 -150 -70c-144 0 -203 111 -203 246v22c0 133 59 246 203 246c81 0 130 -37 158 -82l10 71h58l-6 -150v-385c0 -119 -57 -206 -208 -206c-153 0 -205 89 -205 198v13h67c0 -100 38 -150 137 -150c102 0 139 52 139 149zM402 396
c-22 35 -62 82 -135 82c-99 0 -147 -74 -147 -183v-22c0 -111 48 -183 147 -183c73 0 113 47 135 81v225zM308 745v-88h-88v88h88z" />
    <glyph glyph-name="hbar" unicode="&#x127;" horiz-adv-x="528" 
d="M136 800v-106h133v-58h-133v-170c32 42 86 75 170 75c105 0 161 -71 161 -170v-371h-70v361c0 80 -45 117 -115 117c-83 0 -124 -47 -146 -82v-396h-70v636h-92v58h92v106h70z" />
    <glyph glyph-name="hcircumflex" unicode="&#x125;" horiz-adv-x="528" 
d="M136 800v-334c32 42 86 75 170 75c105 0 161 -71 161 -170v-371h-70v361c0 80 -45 117 -115 117c-83 0 -124 -47 -146 -82v-396h-70v800h70zM33 840h-70l106 110h64l106 -110h-70l-68 66z" />
    <glyph glyph-name="iacute" unicode="&#xed;" horiz-adv-x="217" 
d="M73 0v530h70v-530h-70zM162 780h76l-94 -166h-72z" />
    <glyph glyph-name="ibreve" unicode="&#x12d;" horiz-adv-x="217" 
d="M73 0v530h70v-530h-70zM108 603c-114 0 -162 73 -161 177h57c0 -71 30 -118 104 -118s104 47 104 118h57c1 -104 -47 -177 -161 -177z" />
    <glyph glyph-name="icircumflex" unicode="&#xee;" horiz-adv-x="217" 
d="M73 0v530h70v-530h-70zM15 614h-69l131 166h62l131 -166h-69l-93 113z" />
    <glyph glyph-name="idieresis" unicode="&#xef;" horiz-adv-x="217" 
d="M73 0v530h70v-530h-70zM68 745v-88h-87v88h87zM235 745v-88h-87v88h87z" />
    <glyph glyph-name="igrave" unicode="&#xec;" horiz-adv-x="217" 
d="M73 0v530h70v-530h-70zM-22 780h76l90 -166h-72z" />
    <glyph glyph-name="imacron" unicode="&#x12b;" horiz-adv-x="217" 
d="M73 0v530h70v-530h-70zM-9 664v66h234v-66h-234z" />
    <glyph glyph-name="iogonek" unicode="&#x12f;" horiz-adv-x="217" 
d="M60 -103c0 -29 20 -50 56 -50c24 0 48 6 63 14l19 -52c-21 -13 -57 -20 -89 -20c-65 0 -109 29 -109 98c0 57 32 100 73 128v515h70v-530c-44 -19 -83 -52 -83 -103zM153 745v-90h-90v90h90z" />
    <glyph glyph-name="itilde" unicode="&#x129;" horiz-adv-x="217" 
d="M73 0v530h70v-530h-70zM209 746h55c0 -71 -33 -103 -81 -103c-62 0 -100 54 -140 54c-20 0 -36 -10 -36 -43h-55c0 71 33 103 81 103c62 0 100 -54 140 -54c20 0 36 10 36 43z" />
    <glyph glyph-name="jcircumflex" unicode="&#x135;" horiz-adv-x="217" 
d="M73 -44v574h70v-583c0 -115 -65 -158 -155 -158c-42 0 -66 8 -74 11v61c9 -4 35 -9 57 -9c67 0 102 20 102 104zM15 614h-69l131 166h62l131 -166h-69l-93 113z" />
    <glyph glyph-name="kcommaaccent" unicode="&#x137;" horiz-adv-x="501" 
d="M65 0v800h70v-550l252 280h87l-182 -201l182 -329h-80l-150 276l-109 -120v-156h-70zM295 -56v-50c0 -69 -39 -108 -105 -108v36c36 0 61 15 67 54h-44v68h82z" />
    <glyph glyph-name="kgreenlandic" unicode="&#x138;" horiz-adv-x="501" 
d="M65 0v530h70v-280l252 280h87l-182 -201l182 -329h-80l-150 276l-109 -120v-156h-70z" />
    <glyph glyph-name="lacute" unicode="&#x13a;" horiz-adv-x="217" 
d="M73 0v800h70v-800h-70zM132 950h74l-62 -110h-72z" />
    <glyph glyph-name="lcaron" unicode="&#x13e;" horiz-adv-x="217" 
d="M73 0v800h70v-800h-70zM217 800h59l-19 -186h-40v186z" />
    <glyph glyph-name="lcommaaccent" unicode="&#x13c;" horiz-adv-x="217" 
d="M73 0v800h70v-800h-70zM149 -56v-50c0 -69 -39 -108 -105 -108v36c36 0 61 15 67 54h-44v68h82z" />
    <glyph glyph-name="ldot" unicode="&#x140;" horiz-adv-x="335" 
d="M73 0v800h70v-800h-70zM320 394v-88h-87v88h87z" />
    <glyph glyph-name="lslash" unicode="&#x142;" horiz-adv-x="329" 
d="M32 262v70l93 70v398h70v-344l112 85v-70l-112 -85v-386h-70v332z" />
    <glyph glyph-name="mdotaccent" unicode="&#x1e41;" horiz-adv-x="805" 
d="M744 0h-70v374c0 81 -42 104 -102 104c-74 0 -110 -46 -132 -80v-398h-70v374c0 81 -42 104 -102 104c-74 0 -110 -46 -132 -80v-398h-70v380l-6 150h58l10 -72c29 45 81 83 164 83c70 0 117 -31 137 -88c28 48 81 88 167 88c95 0 148 -57 148 -157v-384zM449 745v-88
h-88v88h88z" />
    <glyph glyph-name="nacute" unicode="&#x144;" horiz-adv-x="528" 
d="M467 0h-70v361c0 80 -45 117 -115 117c-83 0 -124 -47 -146 -82v-396h-70v380l-6 150h58l10 -75c31 47 87 86 178 86c105 0 161 -71 161 -170v-371zM321 780h76l-94 -166h-72z" />
    <glyph glyph-name="ncaron" unicode="&#x148;" horiz-adv-x="528" 
d="M467 0h-70v361c0 80 -45 117 -115 117c-83 0 -124 -47 -146 -82v-396h-70v380l-6 150h58l10 -75c31 47 87 86 178 86c105 0 161 -71 161 -170v-371zM105 780h69l93 -114l93 114h69l-131 -166h-62z" />
    <glyph glyph-name="ncommaaccent" unicode="&#x146;" horiz-adv-x="528" 
d="M467 0h-70v361c0 80 -45 117 -115 117c-83 0 -124 -47 -146 -82v-396h-70v380l-6 150h58l10 -75c31 47 87 86 178 86c105 0 161 -71 161 -170v-371zM308 -56v-50c0 -69 -39 -108 -105 -108v36c36 0 61 15 67 54h-44v68h82z" />
    <glyph glyph-name="ntilde" unicode="&#xf1;" horiz-adv-x="528" 
d="M467 0h-70v361c0 80 -45 117 -115 117c-83 0 -124 -47 -146 -82v-396h-70v380l-6 150h58l10 -75c31 47 87 86 178 86c105 0 161 -71 161 -170v-371zM368 746h55c0 -71 -33 -103 -81 -103c-62 0 -100 54 -140 54c-20 0 -36 -10 -36 -43h-55c0 71 33 103 81 103
c62 0 100 -54 140 -54c20 0 36 10 36 43z" />
    <glyph glyph-name="eng" unicode="&#x14b;" horiz-adv-x="528" 
d="M397 -44v405c0 80 -45 117 -115 117c-83 0 -124 -47 -146 -82v-396h-70v380l-6 150h58l10 -75c31 47 87 86 178 86c105 0 161 -71 161 -170v-424c0 -115 -65 -158 -155 -158c-42 0 -66 8 -74 11v61c8 -4 35 -9 57 -9c67 0 102 20 102 104z" />
    <glyph glyph-name="oacute" unicode="&#xf3;" horiz-adv-x="544" 
d="M272 -11c-156 0 -223 117 -223 264v24c0 147 67 264 223 264s223 -117 223 -264v-24c0 -147 -67 -264 -223 -264zM272 52c105 0 152 80 152 201v24c0 121 -47 201 -152 201s-152 -80 -152 -201v-24c0 -121 47 -201 152 -201zM326 780h76l-94 -166h-72z" />
    <glyph glyph-name="obreve" unicode="&#x14f;" horiz-adv-x="544" 
d="M272 -11c-156 0 -223 117 -223 264v24c0 147 67 264 223 264s223 -117 223 -264v-24c0 -147 -67 -264 -223 -264zM272 52c105 0 152 80 152 201v24c0 121 -47 201 -152 201s-152 -80 -152 -201v-24c0 -121 47 -201 152 -201zM272 603c-114 0 -162 73 -161 177h57
c0 -71 30 -118 104 -118s104 47 104 118h57c1 -104 -47 -177 -161 -177z" />
    <glyph glyph-name="ocircumflex" unicode="&#xf4;" horiz-adv-x="544" 
d="M272 -11c-156 0 -223 117 -223 264v24c0 147 67 264 223 264s223 -117 223 -264v-24c0 -147 -67 -264 -223 -264zM272 52c105 0 152 80 152 201v24c0 121 -47 201 -152 201s-152 -80 -152 -201v-24c0 -121 47 -201 152 -201zM179 614h-69l131 166h62l131 -166h-69
l-93 113z" />
    <glyph glyph-name="odieresis" unicode="&#xf6;" horiz-adv-x="544" 
d="M272 -11c-156 0 -223 117 -223 264v24c0 147 67 264 223 264s223 -117 223 -264v-24c0 -147 -67 -264 -223 -264zM272 52c105 0 152 80 152 201v24c0 121 -47 201 -152 201s-152 -80 -152 -201v-24c0 -121 47 -201 152 -201zM232 745v-88h-87v88h87zM399 745v-88h-87v88
h87z" />
    <glyph glyph-name="ograve" unicode="&#xf2;" horiz-adv-x="544" 
d="M272 -11c-156 0 -223 117 -223 264v24c0 147 67 264 223 264s223 -117 223 -264v-24c0 -147 -67 -264 -223 -264zM272 52c105 0 152 80 152 201v24c0 121 -47 201 -152 201s-152 -80 -152 -201v-24c0 -121 47 -201 152 -201zM142 780h76l90 -166h-72z" />
    <glyph glyph-name="ohungarumlaut" unicode="&#x151;" horiz-adv-x="544" 
d="M272 -11c-156 0 -223 117 -223 264v24c0 147 67 264 223 264s223 -117 223 -264v-24c0 -147 -67 -264 -223 -264zM272 52c105 0 152 80 152 201v24c0 121 -47 201 -152 201s-152 -80 -152 -201v-24c0 -121 47 -201 152 -201zM392 780h68l-95 -166h-63zM263 780h67
l-88 -166h-63z" />
    <glyph glyph-name="omacron" unicode="&#x14d;" horiz-adv-x="544" 
d="M272 -11c-156 0 -223 117 -223 264v24c0 147 67 264 223 264s223 -117 223 -264v-24c0 -147 -67 -264 -223 -264zM272 52c105 0 152 80 152 201v24c0 121 -47 201 -152 201s-152 -80 -152 -201v-24c0 -121 47 -201 152 -201zM155 664v66h234v-66h-234z" />
    <glyph glyph-name="otilde" unicode="&#xf5;" horiz-adv-x="544" 
d="M272 -11c-156 0 -223 117 -223 264v24c0 147 67 264 223 264s223 -117 223 -264v-24c0 -147 -67 -264 -223 -264zM272 52c105 0 152 80 152 201v24c0 121 -47 201 -152 201s-152 -80 -152 -201v-24c0 -121 47 -201 152 -201zM373 746h55c0 -71 -33 -103 -81 -103
c-62 0 -100 54 -140 54c-20 0 -36 -10 -36 -43h-55c0 71 33 103 81 103c62 0 100 -54 140 -54c20 0 36 10 36 43z" />
    <glyph glyph-name="pdotaccent" unicode="&#x1e57;" horiz-adv-x="537" 
d="M286 -11c-74 0 -122 31 -150 71v-260h-70v580l-6 150h58l10 -72c28 45 77 83 158 83c145 0 203 -117 203 -264v-24c0 -147 -58 -264 -203 -264zM136 396v-262c21 -35 62 -82 134 -82c100 0 147 78 147 201v24c0 123 -47 201 -147 201c-72 0 -113 -47 -134 -82zM317 745
v-88h-88v88h88z" />
    <glyph glyph-name="racute" unicode="&#x155;" horiz-adv-x="333" 
d="M276 541c7 0 14 -1 15 -1v-67h-14c-80 0 -119 -45 -141 -80v-393h-70v380l-6 150h58l10 -70c28 44 77 81 148 81zM232 780h76l-94 -166h-72z" />
    <glyph glyph-name="rcaron" unicode="&#x159;" horiz-adv-x="333" 
d="M276 541c7 0 14 -1 15 -1v-67h-14c-80 0 -119 -45 -141 -80v-393h-70v380l-6 150h58l10 -70c28 44 77 81 148 81zM16 780h69l93 -114l93 114h69l-131 -166h-62z" />
    <glyph glyph-name="rcommaaccent" unicode="&#x157;" horiz-adv-x="333" 
d="M276 541c7 0 14 -1 15 -1v-67h-14c-80 0 -119 -45 -141 -80v-393h-70v380l-6 150h58l10 -70c28 44 77 81 148 81zM142 -56v-50c0 -69 -39 -108 -105 -108v36c36 0 61 15 67 54h-44v68h82z" />
    <glyph glyph-name="sacute" unicode="&#x15b;" horiz-adv-x="522" 
d="M261 48c86 0 132 38 132 97c0 72 -42 89 -145 98c-143 12 -184 62 -184 141v6c0 92 73 151 197 151c145 0 198 -74 198 -178v-4h-69c0 76 -30 123 -129 123c-80 0 -127 -33 -127 -92c0 -55 26 -85 141 -94c133 -11 190 -49 190 -146v-5c0 -92 -73 -156 -204 -156
c-150 0 -204 88 -204 169v4h70c0 -58 29 -114 134 -114zM315 780h76l-94 -166h-72z" />
    <glyph glyph-name="scaron" unicode="&#x161;" horiz-adv-x="522" 
d="M261 48c86 0 132 38 132 97c0 72 -42 89 -145 98c-143 12 -184 62 -184 141v6c0 92 73 151 197 151c145 0 198 -74 198 -178v-4h-69c0 76 -30 123 -129 123c-80 0 -127 -33 -127 -92c0 -55 26 -85 141 -94c133 -11 190 -49 190 -146v-5c0 -92 -73 -156 -204 -156
c-150 0 -204 88 -204 169v4h70c0 -58 29 -114 134 -114zM99 780h69l93 -114l93 114h69l-131 -166h-62z" />
    <glyph glyph-name="scedilla" unicode="&#x15f;" horiz-adv-x="522" 
d="M173 -191l15 44c17 -9 44 -15 70 -15c39 0 58 7 58 31c0 23 -24 31 -62 31c-15 0 -29 -3 -29 -3l-19 23l27 70c-129 10 -176 92 -176 168v4h70c0 -58 29 -114 134 -114c86 0 132 38 132 97c0 72 -42 89 -145 98c-143 12 -184 62 -184 141v6c0 92 73 151 197 151
c145 0 198 -74 198 -178v-4h-69c0 76 -30 123 -129 123c-80 0 -127 -33 -127 -92c0 -55 26 -85 141 -94c133 -11 190 -49 190 -146v-5c0 -87 -66 -149 -184 -155l-17 -46h4c49 0 100 -21 100 -77s-42 -78 -103 -78c-37 0 -72 7 -92 20z" />
    <glyph glyph-name="scircumflex" unicode="&#x15d;" horiz-adv-x="522" 
d="M261 48c86 0 132 38 132 97c0 72 -42 89 -145 98c-143 12 -184 62 -184 141v6c0 92 73 151 197 151c145 0 198 -74 198 -178v-4h-69c0 76 -30 123 -129 123c-80 0 -127 -33 -127 -92c0 -55 26 -85 141 -94c133 -11 190 -49 190 -146v-5c0 -92 -73 -156 -204 -156
c-150 0 -204 88 -204 169v4h70c0 -58 29 -114 134 -114zM168 614h-69l131 166h62l131 -166h-69l-93 113z" />
    <glyph glyph-name="scommaaccent" unicode="&#x219;" horiz-adv-x="522" 
d="M261 48c86 0 132 38 132 97c0 72 -42 89 -145 98c-143 12 -184 62 -184 141v6c0 92 73 151 197 151c145 0 198 -74 198 -178v-4h-69c0 76 -30 123 -129 123c-80 0 -127 -33 -127 -92c0 -55 26 -85 141 -94c133 -11 190 -49 190 -146v-5c0 -92 -73 -156 -204 -156
c-150 0 -204 88 -204 169v4h70c0 -58 29 -114 134 -114zM302 -56v-50c0 -69 -39 -108 -105 -108v36c36 0 61 15 67 54h-44v68h82z" />
    <glyph glyph-name="tbar" unicode="&#x167;" horiz-adv-x="400" 
d="M185 530h169v-63h-169v-173h129v-58h-129v-80c0 -84 35 -104 102 -104c22 0 49 5 57 9v-61c-8 -3 -32 -11 -74 -11c-90 0 -155 43 -155 158v89h-80v58h80v173h-84v63h84v150h70v-150z" />
    <glyph glyph-name="tcaron" unicode="&#x165;" horiz-adv-x="400" 
d="M185 530h169v-63h-169v-311c0 -84 35 -104 102 -104c22 0 49 5 57 9v-61c-8 -3 -32 -11 -74 -11c-90 0 -155 43 -155 158v320h-84v63h84v150h70v-150zM259 800h59l-19 -186h-40v186z" />
    <glyph glyph-name="tcommaaccent" unicode="&#x163;" horiz-adv-x="400" 
d="M185 530h169v-63h-169v-311c0 -84 35 -104 102 -104c22 0 49 5 57 9v-61c-8 -3 -32 -11 -74 -11c-90 0 -155 43 -155 158v320h-84v63h84v150h70v-150zM273 -56v-50c0 -69 -39 -108 -105 -108v36c36 0 61 15 67 54h-44v68h82z" />
    <glyph glyph-name="tdotaccent" unicode="&#x1e6b;" horiz-adv-x="400" 
d="M185 530h169v-63h-169v-311c0 -84 35 -104 102 -104c22 0 49 5 57 9v-61c-8 -3 -32 -11 -74 -11c-90 0 -155 43 -155 158v320h-84v63h84v150h70v-150zM190 810v-70h-80v70h80z" />
    <glyph glyph-name="uacute" unicode="&#xfa;" horiz-adv-x="528" 
d="M61 530h69v-361c0 -80 45 -117 115 -117c84 0 125 47 147 82v396h70v-380l6 -150h-58l-11 74c-30 -47 -87 -85 -177 -85c-106 0 -161 71 -161 170v371zM315 780h76l-94 -166h-72z" />
    <glyph glyph-name="ubreve" unicode="&#x16d;" horiz-adv-x="528" 
d="M61 530h69v-361c0 -80 45 -117 115 -117c84 0 125 47 147 82v396h70v-380l6 -150h-58l-11 74c-30 -47 -87 -85 -177 -85c-106 0 -161 71 -161 170v371zM261 603c-114 0 -162 73 -161 177h57c0 -71 30 -118 104 -118s104 47 104 118h57c1 -104 -47 -177 -161 -177z" />
    <glyph glyph-name="ucircumflex" unicode="&#xfb;" horiz-adv-x="528" 
d="M61 530h69v-361c0 -80 45 -117 115 -117c84 0 125 47 147 82v396h70v-380l6 -150h-58l-11 74c-30 -47 -87 -85 -177 -85c-106 0 -161 71 -161 170v371zM168 614h-69l131 166h62l131 -166h-69l-93 113z" />
    <glyph glyph-name="udieresis" unicode="&#xfc;" horiz-adv-x="528" 
d="M61 530h69v-361c0 -80 45 -117 115 -117c84 0 125 47 147 82v396h70v-380l6 -150h-58l-11 74c-30 -47 -87 -85 -177 -85c-106 0 -161 71 -161 170v371zM388 745v-88h-87v88h87zM221 745v-88h-87v88h87z" />
    <glyph glyph-name="ugrave" unicode="&#xf9;" horiz-adv-x="528" 
d="M61 530h69v-361c0 -80 45 -117 115 -117c84 0 125 47 147 82v396h70v-380l6 -150h-58l-11 74c-30 -47 -87 -85 -177 -85c-106 0 -161 71 -161 170v371zM131 780h76l90 -166h-72z" />
    <glyph glyph-name="uhungarumlaut" unicode="&#x171;" horiz-adv-x="528" 
d="M61 530h69v-361c0 -80 45 -117 115 -117c84 0 125 47 147 82v396h70v-380l6 -150h-58l-11 74c-30 -47 -87 -85 -177 -85c-106 0 -161 71 -161 170v371zM381 780h68l-95 -166h-63zM252 780h67l-88 -166h-63z" />
    <glyph glyph-name="umacron" unicode="&#x16b;" horiz-adv-x="528" 
d="M61 530h69v-361c0 -80 45 -117 115 -117c84 0 125 47 147 82v396h70v-380l6 -150h-58l-11 74c-30 -47 -87 -85 -177 -85c-106 0 -161 71 -161 170v371zM144 664v66h234v-66h-234z" />
    <glyph glyph-name="uogonek" unicode="&#x173;" horiz-adv-x="528" 
d="M61 530h69v-361c0 -80 45 -117 115 -117c84 0 125 47 147 82v396h70v-380l6 -150c-44 -19 -83 -52 -83 -103c0 -29 20 -50 56 -50c24 0 48 6 63 14l19 -52c-21 -13 -57 -20 -89 -20c-65 0 -109 29 -109 98c0 61 36 106 82 134l-8 53c-30 -47 -87 -85 -177 -85
c-106 0 -161 71 -161 170v371z" />
    <glyph glyph-name="uring" unicode="&#x16f;" horiz-adv-x="528" 
d="M61 530h69v-361c0 -80 45 -117 115 -117c84 0 125 47 147 82v396h70v-380l6 -150h-58l-11 74c-30 -47 -87 -85 -177 -85c-106 0 -161 71 -161 170v371zM167 697c0 52 42 94 94 94s94 -42 94 -94s-42 -94 -94 -94s-94 42 -94 94zM205 697c0 -31 25 -56 56 -56s56 25 56 56
s-25 56 -56 56s-56 -25 -56 -56z" />
    <glyph glyph-name="utilde" unicode="&#x169;" horiz-adv-x="528" 
d="M61 530h69v-361c0 -80 45 -117 115 -117c84 0 125 47 147 82v396h70v-380l6 -150h-58l-11 74c-30 -47 -87 -85 -177 -85c-106 0 -161 71 -161 170v371zM362 746h55c0 -71 -33 -103 -81 -103c-62 0 -100 54 -140 54c-20 0 -36 -10 -36 -43h-55c0 71 33 103 81 103
c62 0 100 -54 140 -54c20 0 36 10 36 43z" />
    <glyph glyph-name="wacute" unicode="&#x1e83;" horiz-adv-x="717" 
d="M358 452l-121 -452h-92l-114 530h70l92 -457l123 457h85l123 -457l92 457h70l-114 -530h-93zM412 780h76l-94 -166h-72z" />
    <glyph glyph-name="wcircumflex" unicode="&#x175;" horiz-adv-x="717" 
d="M358 452l-121 -452h-92l-114 530h70l92 -457l123 457h85l123 -457l92 457h70l-114 -530h-93zM265 614h-69l131 166h62l131 -166h-69l-93 113z" />
    <glyph glyph-name="wdieresis" unicode="&#x1e85;" horiz-adv-x="717" 
d="M358 452l-121 -452h-92l-114 530h70l92 -457l123 457h85l123 -457l92 457h70l-114 -530h-93zM318 745v-88h-87v88h87zM485 745v-88h-87v88h87z" />
    <glyph glyph-name="wgrave" unicode="&#x1e81;" horiz-adv-x="717" 
d="M358 452l-121 -452h-92l-114 530h70l92 -457l123 457h85l123 -457l92 457h70l-114 -530h-93zM228 780h76l90 -166h-72z" />
    <glyph glyph-name="yacute" unicode="&#xfd;" horiz-adv-x="484" 
d="M249 97l152 433h75l-190 -510l-75 -220h-81l83 220l-190 510h75zM303 780h76l-94 -166h-72z" />
    <glyph glyph-name="ycircumflex" unicode="&#x177;" horiz-adv-x="484" 
d="M249 97l152 433h75l-190 -510l-75 -220h-81l83 220l-190 510h75zM156 614h-69l131 166h62l131 -166h-69l-93 113z" />
    <glyph glyph-name="ydieresis" unicode="&#xff;" horiz-adv-x="484" 
d="M249 97l152 433h75l-190 -510l-75 -220h-81l83 220l-190 510h75zM376 745v-88h-87v88h87zM209 745v-88h-87v88h87z" />
    <glyph glyph-name="ygrave" unicode="&#x1ef3;" horiz-adv-x="484" 
d="M249 97l152 433h75l-190 -510l-75 -220h-81l83 220l-190 510h75zM119 780h76l90 -166h-72z" />
    <glyph glyph-name="ymacron" unicode="&#x233;" horiz-adv-x="484" 
d="M249 97l152 433h75l-190 -510l-75 -220h-81l83 220l-190 510h75zM132 664v66h234v-66h-234z" />
    <glyph glyph-name="ij" unicode="&#x133;" horiz-adv-x="383" 
d="M240 -44v574h70v-583c0 -115 -65 -158 -155 -158c-42 0 -66 8 -74 11v61c9 -4 35 -9 57 -9c67 0 102 20 102 104zM73 0v530h70v-530h-70zM153 745v-90h-90v90h90zM320 745v-90h-90v90h90z" />
    <glyph glyph-name="zacute" unicode="&#x17a;" horiz-adv-x="463" 
d="M284 780h76l-94 -166h-72zM36 48l291 420l-118 -1h-163v63h371v-48l-292 -420l118 1h184v-63h-391v48z" />
    <glyph glyph-name="zcaron" unicode="&#x17e;" horiz-adv-x="463" 
d="M68 780h69l93 -114l93 114h69l-131 -166h-62zM36 48l291 420l-118 -1h-163v63h371v-48l-292 -420l118 1h184v-63h-391v48z" />
    <glyph glyph-name="zdotaccent" unicode="&#x17c;" horiz-adv-x="463" 
d="M274 745v-88h-88v88h88zM36 48l291 420l-118 -1h-163v63h371v-48l-292 -420l118 1h184v-63h-391v48z" />
    <glyph glyph-name="aring" unicode="&#xe5;" horiz-adv-x="512" 
d="M396 0l-11 74c-35 -46 -95 -85 -187 -85c-97 0 -153 60 -153 145v10c0 115 87 148 173 161l160 25v14c0 91 -29 138 -123 138c-100 0 -123 -58 -123 -127h-67v9c0 80 35 177 191 177c147 0 192 -80 192 -197v-194l6 -150h-58zM216 50c98 0 143 53 162 84v145l-154 -25
c-68 -12 -109 -45 -109 -105v-9c0 -47 30 -90 101 -90zM162 697c0 52 42 94 94 94s94 -42 94 -94s-42 -94 -94 -94s-94 42 -94 94zM200 697c0 -31 25 -56 56 -56s56 25 56 56s-25 56 -56 56s-56 -25 -56 -56z" />
    <glyph glyph-name="ordfeminine" unicode="&#xaa;" horiz-adv-x="390" 
d="M299 388l-9 53c-26 -34 -69 -62 -136 -62c-75 0 -116 46 -116 110v7c0 86 64 111 132 122l114 17v9c0 62 -20 95 -85 95c-69 0 -85 -40 -85 -87h-61v7c0 61 29 132 147 132c113 0 147 -59 147 -147v-145l5 -111h-53zM172 433c64 0 97 34 112 55v104l-106 -17
c-47 -8 -76 -32 -76 -74v-6c0 -32 20 -62 70 -62zM352 212h-305v57h305v-57z" />
    <glyph glyph-name="ordmasculine" unicode="&#xba;" horiz-adv-x="418" 
d="M378 575c0 -110 -51 -196 -169 -196c-117 0 -169 86 -169 196v20c0 111 52 196 169 196c118 0 169 -85 169 -196v-20zM104 575c0 -84 32 -140 105 -140s105 56 105 140v20c0 85 -32 140 -105 140s-105 -55 -105 -140v-20zM48 212v57h323v-57h-323z" />
    <glyph glyph-name="ae" unicode="&#xe6;" horiz-adv-x="871" 
d="M825 236h-376c3 -116 52 -188 159 -188c105 0 149 65 149 122h68v-4c0 -82 -68 -177 -218 -177c-94 0 -157 40 -192 103c-38 -53 -109 -103 -214 -103c-99 0 -156 60 -156 145v10c0 115 88 148 174 161l159 25v14c0 91 -29 138 -123 138c-100 0 -123 -58 -123 -127h-67v9
c0 80 35 177 191 177c99 0 147 -38 168 -99c33 60 90 99 178 99c155 0 223 -118 223 -265v-40zM381 138l10 14c-9 31 -13 66 -13 102v24l-153 -25c-69 -12 -110 -45 -110 -105v-9c0 -47 30 -90 101 -90c104 0 148 60 165 89zM601 482c-100 0 -149 -73 -152 -188h304
c-4 115 -51 188 -152 188z" />
    <glyph glyph-name="perthousand" unicode="&#x2030;" horiz-adv-x="1321" 
d="M332 0h-67l292 703c-4 -1 -52 -15 -114 -15c-30 0 -57 2 -83 7c9 -21 14 -47 14 -75v-11c0 -113 -75 -171 -168 -171s-168 58 -168 171v11c0 113 75 171 168 171c23 0 46 -4 66 -11c57 -22 117 -31 179 -31c69 0 159 20 186 32v-47zM548 171c0 113 75 171 167 171
c93 0 168 -58 168 -171v-11c0 -113 -75 -171 -168 -171c-92 0 -167 58 -167 171v11zM948 171c0 113 75 171 167 171c93 0 168 -58 168 -171v-11c0 -113 -75 -171 -168 -171c-92 0 -167 58 -167 171v11zM315 623c0 71 -48 109 -106 109h-6c-58 0 -106 -38 -106 -109v-17
c0 -71 48 -109 106 -109h6c58 0 106 38 106 109v17zM1007 157c0 -71 47 -109 105 -109h6c59 0 106 38 106 109v17c0 71 -47 109 -106 109h-6c-58 0 -105 -38 -105 -109v-17zM607 157c0 -71 47 -109 105 -109h6c59 0 106 38 106 109v17c0 71 -47 109 -106 109h-6
c-58 0 -105 -38 -105 -109v-17z" />
    <glyph glyph-name="ballotboxwithx" unicode="&#x2612;" horiz-adv-x="680" 
d="M600 0h-530v530h530v-530zM536 466h-402v-402h402v402zM256 138l-48 48l79 79l-79 79l48 48l79 -79l79 79l48 -48l-79 -79l79 -79l-48 -48l-79 79z" />
    <glyph glyph-name="Euro" unicode="&#x20ac;" horiz-adv-x="600" 
d="M108 295h-74v65h72v60h-72v65h74c15 216 94 306 237 306c151 0 208 -91 208 -263v-28h-65c0 161 -39 226 -137 226h-7c-92 0 -149 -73 -161 -241h266l-32 -65h-237v-60h229l-32 -65h-194c12 -169 69 -241 161 -241h7c90 0 137 67 137 196h65v-10
c0 -160 -61 -251 -208 -251c-143 0 -222 90 -237 306z" />
    <glyph glyph-name="uni2070" unicode="&#x2070;" 
d="M274 501c0 -68 -39 -118 -124 -118s-124 50 -124 118v168c0 67 39 117 124 117s124 -50 124 -117v-168zM214 666c0 41 -18 67 -63 67h-3c-45 0 -62 -26 -62 -67v-163c0 -40 17 -67 62 -67h3c45 0 63 27 63 67v163z" />
    <glyph glyph-name="onesuperior" unicode="&#xb9;" 
d="M277 390h-245v52h93v263l-76 -51l-29 44l122 83h43v-339h92v-52z" />
    <glyph glyph-name="twosuperior" unicode="&#xb2;" 
d="M275 442v-52h-250v37l158 172c23 24 32 40 32 65v5c0 41 -26 64 -64 64h-3c-41 0 -64 -23 -64 -83h-59v11c0 81 39 125 125 125c88 0 125 -50 125 -107v-7c0 -43 -13 -66 -45 -101l-119 -129h164z" />
    <glyph glyph-name="threesuperior" unicode="&#xb3;" 
d="M82 515c0 -56 26 -79 65 -79h5c34 0 66 19 66 61v7c0 39 -26 59 -63 59h-55v52h53c36 0 62 18 62 56v4c0 35 -26 58 -63 58h-5c-41 0 -63 -23 -63 -83h-59v11c0 81 39 125 125 125c88 0 125 -50 125 -104v-8c0 -44 -22 -71 -51 -85c30 -15 53 -43 53 -88v-9
c0 -55 -43 -109 -127 -109c-86 0 -128 47 -128 125v7h60z" />
    <glyph glyph-name="uni2074" unicode="&#x2074;" 
d="M233 390h-60v93h-159v41l161 256h58v-244h52v-53h-52v-93zM174 683l-94 -148l34 1h59v108z" />
    <glyph glyph-name="uni2075" unicode="&#x2075;" 
d="M22 515h60c0 -56 26 -79 65 -79h5c34 0 66 21 66 72v8c0 51 -32 72 -69 72h-3c-28 0 -58 -14 -70 -41l-51 17l9 216h238v-53h-185l-5 -105c20 11 44 18 71 18c76 0 124 -46 124 -124v-8c0 -78 -48 -125 -127 -125c-86 0 -128 47 -128 125v7z" />
    <glyph glyph-name="uni2076" unicode="&#x2076;" 
d="M260 786v-53c-55 0 -104 -17 -135 -58c-16 -19 -26 -41 -32 -65c18 15 43 25 73 25c66 0 113 -43 113 -123v-5c0 -79 -47 -124 -128 -124c-79 0 -128 55 -128 141v6c0 62 14 124 55 179c43 58 110 77 182 77zM152 583c-29 0 -56 -16 -69 -43v-20c0 -54 30 -84 66 -84h3
c39 0 67 25 67 70v9c0 45 -26 68 -64 68h-3z" />
    <glyph glyph-name="uni2077" unicode="&#x2077;" 
d="M23 640v140h256v-37l-144 -353h-63l139 338l-51 -1h-84v-87h-53z" />
    <glyph glyph-name="uni2078" unicode="&#x2078;" 
d="M150 383c-85 0 -128 54 -128 109v9c0 45 23 73 54 88c-30 14 -51 41 -51 85v9c0 53 37 103 125 103s125 -50 125 -103v-9c0 -44 -22 -71 -52 -85c31 -15 54 -43 54 -88v-9c0 -55 -43 -109 -127 -109zM145 563c-37 0 -63 -21 -63 -60v-6c0 -42 31 -61 65 -61h5
c34 0 66 19 66 61v6c0 39 -26 60 -63 60h-10zM152 733h-5c-37 0 -63 -22 -63 -57v-5c0 -38 26 -56 63 -56h6c36 0 62 18 62 56v5c0 35 -26 57 -63 57z" />
    <glyph glyph-name="uni2079" unicode="&#x2079;" 
d="M39 383v53c56 1 104 17 136 58c15 19 25 42 32 66c-19 -15 -44 -25 -74 -25c-66 0 -112 43 -112 122v5c0 79 47 124 128 124c78 0 127 -54 127 -141v-5c0 -62 -13 -124 -55 -180c-43 -57 -110 -77 -182 -77zM148 587c28 0 55 15 69 42v21c0 53 -30 83 -67 83h-3
c-39 0 -66 -25 -66 -69v-9c0 -46 26 -68 64 -68h3z" />
    <glyph glyph-name="uni207A" unicode="&#x207a;" 
d="M123 713h53v-102h102v-53h-102v-101h-53v101h-101v53h101v102z" />
    <glyph glyph-name="uni207B" unicode="&#x207b;" 
d="M22 558v53h256v-53h-256z" />
    <glyph glyph-name="uni207C" unicode="&#x207c;" 
d="M22 505v54h256v-54h-256zM22 611v53h256v-53h-256z" />
    <glyph glyph-name="uni207D" unicode="&#x207d;" horiz-adv-x="171" 
d="M26 580v10c0 82 26 146 60 190h62c-31 -45 -63 -113 -63 -190v-10c0 -77 32 -145 63 -190h-62c-34 43 -60 107 -60 190z" />
    <glyph glyph-name="uni207E" unicode="&#x207e;" horiz-adv-x="171" 
d="M145 590v-10c0 -83 -26 -147 -60 -190h-61c30 45 62 113 62 190v10c0 77 -32 145 -62 190h61c34 -44 60 -108 60 -190z" />
    <glyph glyph-name="fraction" unicode="&#x2044;" horiz-adv-x="200" 
d="M-156 0h-64l576 780h64z" />
    <glyph glyph-name="uni2080" unicode="&#x2080;" 
d="M274 111c0 -68 -39 -118 -124 -118s-124 50 -124 118v168c0 67 39 117 124 117s124 -50 124 -117v-168zM214 276c0 41 -18 67 -63 67h-3c-45 0 -62 -26 -62 -67v-163c0 -40 17 -67 62 -67h3c45 0 63 27 63 67v163z" />
    <glyph glyph-name="uni2081" unicode="&#x2081;" 
d="M277 0h-245v52h93v263l-76 -51l-29 44l122 83h43v-339h92v-52z" />
    <glyph glyph-name="uni2082" unicode="&#x2082;" 
d="M275 52v-52h-250v37l158 172c23 24 32 40 32 65v5c0 41 -26 64 -64 64h-3c-41 0 -64 -23 -64 -83h-59v11c0 81 39 125 125 125c88 0 125 -50 125 -107v-7c0 -43 -13 -66 -45 -101l-119 -129h164z" />
    <glyph glyph-name="uni2083" unicode="&#x2083;" 
d="M82 125c0 -56 26 -79 65 -79h5c34 0 66 19 66 61v7c0 39 -26 59 -63 59h-55v52h53c36 0 62 18 62 56v4c0 35 -26 58 -63 58h-5c-41 0 -63 -23 -63 -83h-59v11c0 81 39 125 125 125c88 0 125 -50 125 -104v-8c0 -44 -22 -71 -51 -85c30 -15 53 -43 53 -88v-9
c0 -55 -43 -109 -127 -109c-86 0 -128 47 -128 125v7h60z" />
    <glyph glyph-name="uni2084" unicode="&#x2084;" 
d="M233 0h-60v93h-159v41l161 256h58v-244h52v-53h-52v-93zM174 293l-94 -148l34 1h59v108z" />
    <glyph glyph-name="uni2085" unicode="&#x2085;" 
d="M22 125h60c0 -56 26 -79 65 -79h5c34 0 66 21 66 72v8c0 51 -32 72 -69 72h-3c-28 0 -58 -14 -70 -41l-51 17l9 216h238v-53h-185l-5 -105c20 11 44 18 71 18c76 0 124 -46 124 -124v-8c0 -78 -48 -125 -127 -125c-86 0 -128 47 -128 125v7z" />
    <glyph glyph-name="uni2086" unicode="&#x2086;" 
d="M260 396v-53c-55 0 -104 -17 -135 -58c-16 -19 -26 -41 -32 -65c18 15 43 25 73 25c66 0 113 -43 113 -123v-5c0 -79 -47 -124 -128 -124c-79 0 -128 55 -128 141v6c0 62 14 124 55 179c43 58 110 77 182 77zM152 193c-29 0 -56 -16 -69 -43v-20c0 -54 30 -84 66 -84h3
c39 0 67 25 67 70v9c0 45 -26 68 -64 68h-3z" />
    <glyph glyph-name="uni2087" unicode="&#x2087;" 
d="M23 250v140h256v-37l-144 -353h-63l139 338l-51 -1h-84v-87h-53z" />
    <glyph glyph-name="uni2088" unicode="&#x2088;" 
d="M150 -7c-85 0 -128 54 -128 109v9c0 45 23 73 54 88c-30 14 -51 41 -51 85v9c0 53 37 103 125 103s125 -50 125 -103v-9c0 -44 -22 -71 -52 -85c31 -15 54 -43 54 -88v-9c0 -55 -43 -109 -127 -109zM145 173c-37 0 -63 -21 -63 -60v-6c0 -42 31 -61 65 -61h5
c34 0 66 19 66 61v6c0 39 -26 60 -63 60h-10zM152 343h-5c-37 0 -63 -22 -63 -57v-5c0 -38 26 -56 63 -56h6c36 0 62 18 62 56v5c0 35 -26 57 -63 57z" />
    <glyph glyph-name="uni2089" unicode="&#x2089;" 
d="M39 -7v53c56 1 104 17 136 58c15 19 25 42 32 66c-19 -15 -44 -25 -74 -25c-66 0 -112 43 -112 122v5c0 79 47 124 128 124c78 0 127 -54 127 -141v-5c0 -62 -13 -124 -55 -180c-43 -57 -110 -77 -182 -77zM148 197c28 0 55 15 69 42v21c0 53 -30 83 -67 83h-3
c-39 0 -66 -25 -66 -69v-9c0 -46 26 -68 64 -68h3z" />
    <glyph glyph-name="uni208A" unicode="&#x208a;" 
d="M123 323h53v-102h102v-53h-102v-101h-53v101h-101v53h101v102z" />
    <glyph glyph-name="uni208B" unicode="&#x208b;" 
d="M22 168v53h256v-53h-256z" />
    <glyph glyph-name="uni208C" unicode="&#x208c;" 
d="M22 115v54h256v-54h-256zM22 221v53h256v-53h-256z" />
    <glyph glyph-name="uni208D" unicode="&#x208d;" horiz-adv-x="171" 
d="M26 190v10c0 82 26 146 60 190h62c-31 -45 -63 -113 -63 -190v-10c0 -77 32 -145 63 -190h-62c-34 43 -60 107 -60 190z" />
    <glyph glyph-name="uni208E" unicode="&#x208e;" horiz-adv-x="171" 
d="M145 200v-10c0 -83 -26 -147 -60 -190h-61c30 45 62 113 62 190v10c0 77 -32 145 -62 190h61c34 -44 60 -108 60 -190z" />
    <glyph glyph-name="zero.inf" unicode="&#xe571;" 
d="M274 -89c0 -68 -39 -118 -124 -118s-124 50 -124 118v168c0 67 39 117 124 117s124 -50 124 -117v-168zM214 76c0 41 -18 67 -63 67h-3c-45 0 -62 -26 -62 -67v-163c0 -40 17 -67 62 -67h3c45 0 63 27 63 67v163z" />
    <glyph glyph-name="one.inf" unicode="&#xe572;" 
d="M277 -200h-245v52h93v263l-76 -51l-29 44l122 83h43v-339h92v-52z" />
    <glyph glyph-name="two.inf" unicode="&#xe573;" 
d="M275 -148v-52h-250v37l158 172c23 24 32 40 32 65v5c0 41 -26 64 -64 64h-3c-41 0 -64 -23 -64 -83h-59v11c0 81 39 125 125 125c88 0 125 -50 125 -107v-7c0 -43 -13 -66 -45 -101l-119 -129h164z" />
    <glyph glyph-name="three.inf" unicode="&#xe574;" 
d="M82 -75c0 -56 26 -79 65 -79h5c34 0 66 19 66 61v7c0 39 -26 59 -63 59h-55v52h53c36 0 62 18 62 56v4c0 35 -26 58 -63 58h-5c-41 0 -63 -23 -63 -83h-59v11c0 81 39 125 125 125c88 0 125 -50 125 -104v-8c0 -44 -22 -71 -51 -85c30 -14 53 -43 53 -88v-9
c0 -55 -43 -109 -127 -109c-86 0 -128 47 -128 125v7h60z" />
    <glyph glyph-name="four.inf" unicode="&#xe575;" 
d="M233 -200h-60v93h-159v41l161 256h58v-244h52v-53h-52v-93zM174 93l-94 -148l34 1h59v108z" />
    <glyph glyph-name="five.inf" unicode="&#xe576;" 
d="M22 -75h60c0 -56 26 -79 65 -79h5c34 0 66 21 66 72v8c0 51 -32 72 -69 72h-3c-28 0 -58 -14 -70 -41l-51 17l9 216h238v-53h-185l-5 -105c20 11 44 18 71 18c76 0 124 -46 124 -124v-8c0 -78 -48 -125 -127 -125c-86 0 -128 47 -128 125v7z" />
    <glyph glyph-name="six.inf" unicode="&#xe577;" 
d="M260 196v-53c-55 0 -104 -17 -135 -58c-16 -19 -26 -41 -32 -65c18 15 43 25 73 25c66 0 113 -43 113 -123v-5c0 -79 -47 -124 -128 -124c-79 0 -128 55 -128 141v6c0 62 14 124 55 179c43 58 110 77 182 77zM152 -7c-29 0 -56 -15 -69 -42v-21c0 -54 30 -84 66 -84h3
c39 0 67 25 67 70v9c0 45 -26 68 -64 68h-3z" />
    <glyph glyph-name="seven.inf" unicode="&#xe578;" 
d="M23 50v140h256v-37l-144 -353h-63l139 338l-51 -1h-84v-87h-53z" />
    <glyph glyph-name="eight.inf" unicode="&#xe579;" 
d="M150 -207c-85 0 -128 54 -128 109v9c0 45 23 74 54 88c-30 14 -51 41 -51 85v9c0 53 37 103 125 103s125 -50 125 -103v-9c0 -44 -22 -71 -52 -85c31 -14 54 -43 54 -88v-9c0 -55 -43 -109 -127 -109zM145 -27c-37 0 -63 -21 -63 -60v-6c0 -42 31 -61 65 -61h5
c34 0 66 19 66 61v6c0 39 -26 60 -63 60h-10zM152 143h-5c-37 0 -63 -22 -63 -57v-5c0 -38 26 -56 63 -56h6c36 0 62 18 62 56v5c0 35 -26 57 -63 57z" />
    <glyph glyph-name="nine.inf" unicode="&#xe57a;" 
d="M39 -207v53c56 1 104 17 136 58c15 20 25 42 32 67c-19 -15 -44 -26 -74 -26c-66 0 -112 43 -112 122v5c0 79 47 124 128 124c78 0 127 -54 127 -141v-5c0 -62 -13 -124 -55 -180c-43 -57 -110 -77 -182 -77zM148 -3c28 0 55 15 69 42v21c0 53 -30 83 -67 83h-3
c-39 0 -66 -25 -66 -69v-9c0 -46 26 -68 64 -68h3z" />
    <glyph glyph-name="plus.inf" unicode="&#xe57b;" 
d="M123 123h53v-102h102v-53h-102v-101h-53v101h-101v53h101v102z" />
    <glyph glyph-name="minus.inf" unicode="&#xe57c;" 
d="M22 -32v53h256v-53h-256z" />
    <glyph glyph-name="equal.inf" unicode="&#xe57d;" 
d="M22 -85v54h256v-54h-256zM22 21v53h256v-53h-256z" />
    <glyph glyph-name="parenleft.inf" unicode="&#xe57e;" horiz-adv-x="171" 
d="M26 -10v10c0 82 26 146 60 190h62c-31 -45 -63 -113 -63 -190v-10c0 -77 32 -145 63 -190h-62c-34 43 -60 107 -60 190z" />
    <glyph glyph-name="parenright.inf" unicode="&#xe57f;" horiz-adv-x="171" 
d="M145 0v-10c0 -83 -26 -147 -60 -190h-61c30 45 62 113 62 190v10c0 77 -32 145 -62 190h61c34 -44 60 -108 60 -190z" />
    <glyph glyph-name="period.T" unicode="&#xf182;" 
d="M195 90v-90h-90v90h90z" />
    <glyph glyph-name="comma.T" unicode="&#xf183;" 
d="M195 90v-72c0 -91 -39 -136 -113 -136v42c41 0 66 19 70 76h-47v90h90z" />
    <glyph glyph-name="colon.T" unicode="&#xf184;" 
d="M195 90v-90h-90v90h90zM195 435v-90h-90v90h90z" />
    <glyph glyph-name="semicolon.T" unicode="&#xf185;" 
d="M195 90v-72c0 -91 -39 -136 -113 -136v42c41 0 66 19 70 76h-47v90h90zM195 435v-90h-90v90h90z" />
    <glyph glyph-name="numero" unicode="&#x2116;" horiz-adv-x="1077" 
d="M585 780v-780h-78l-369 658l4 -181v-477h-68v780h78l368 -658l-3 181v477h68zM1037 575c0 -110 -51 -196 -169 -196c-117 0 -169 86 -169 196v20c0 111 52 196 169 196c118 0 169 -85 169 -196v-20zM763 575c0 -84 32 -140 105 -140s105 56 105 140v20
c0 85 -32 140 -105 140s-105 -55 -105 -140v-20zM707 212v57h323v-57h-323z" />
    <glyph glyph-name="uni215F" unicode="&#x215f;" horiz-adv-x="500" 
d="M144 0h-64l576 780h64zM277 390h-245v52h93v263l-76 -51l-29 44l122 83h43v-339h92v-52z" />
    <glyph glyph-name="onehalf" unicode="&#xbd;" horiz-adv-x="800" 
d="M144 0h-64l576 780h64zM775 52v-52h-250v37l158 172c23 24 32 40 32 65v5c0 41 -26 64 -64 64h-3c-41 0 -64 -23 -64 -83h-59v11c0 81 39 125 125 125c88 0 125 -50 125 -107v-7c0 -43 -13 -66 -45 -101l-119 -129h164zM277 390h-245v52h93v263l-76 -51l-29 44l122 83h43
v-339h92v-52z" />
    <glyph glyph-name="uni2153" unicode="&#x2153;" horiz-adv-x="800" 
d="M582 125c0 -56 26 -79 65 -79h5c34 0 66 19 66 61v7c0 39 -26 59 -63 59h-55v52h53c36 0 62 18 62 56v4c0 35 -26 58 -63 58h-5c-41 0 -63 -23 -63 -83h-59v11c0 81 39 125 125 125c88 0 125 -50 125 -104v-8c0 -44 -22 -71 -51 -85c30 -15 53 -43 53 -88v-9
c0 -55 -43 -109 -127 -109c-86 0 -128 47 -128 125v7h60zM144 0h-64l576 780h64zM277 390h-245v52h93v263l-76 -51l-29 44l122 83h43v-339h92v-52z" />
    <glyph glyph-name="uni2154" unicode="&#x2154;" horiz-adv-x="800" 
d="M582 125c0 -56 26 -79 65 -79h5c34 0 66 19 66 61v7c0 39 -26 59 -63 59h-55v52h53c36 0 62 18 62 56v4c0 35 -26 58 -63 58h-5c-41 0 -63 -23 -63 -83h-59v11c0 81 39 125 125 125c88 0 125 -50 125 -104v-8c0 -44 -22 -71 -51 -85c30 -15 53 -43 53 -88v-9
c0 -55 -43 -109 -127 -109c-86 0 -128 47 -128 125v7h60zM144 0h-64l576 780h64zM275 442v-52h-250v37l158 172c23 24 32 40 32 65v5c0 41 -26 64 -64 64h-3c-41 0 -64 -23 -64 -83h-59v11c0 81 39 125 125 125c88 0 125 -50 125 -107v-7c0 -43 -13 -66 -45 -101l-119 -129
h164z" />
    <glyph glyph-name="onequarter" unicode="&#xbc;" horiz-adv-x="800" 
d="M733 0h-60v93h-159v41l161 256h58v-244h52v-53h-52v-93zM144 0h-64l576 780h64zM277 390h-245v52h93v263l-76 -51l-29 44l122 83h43v-339h92v-52zM674 293l-94 -148l34 1h59v108z" />
    <glyph glyph-name="threequarters" unicode="&#xbe;" horiz-adv-x="800" 
d="M733 0h-60v93h-159v41l161 256h58v-244h52v-53h-52v-93zM82 515c0 -56 26 -79 65 -79h5c34 0 66 19 66 61v7c0 39 -26 59 -63 59h-55v52h53c36 0 62 18 62 56v4c0 35 -26 58 -63 58h-5c-41 0 -63 -23 -63 -83h-59v11c0 81 39 125 125 125c88 0 125 -50 125 -104v-8
c0 -44 -22 -71 -51 -85c30 -15 53 -43 53 -88v-9c0 -55 -43 -109 -127 -109c-86 0 -128 47 -128 125v7h60zM144 0h-64l576 780h64zM674 293l-94 -148l34 1h59v108z" />
    <glyph glyph-name="uni2155" unicode="&#x2155;" horiz-adv-x="800" 
d="M522 125h60c0 -56 26 -79 65 -79h5c34 0 66 21 66 72v8c0 51 -32 72 -69 72h-3c-28 0 -58 -14 -70 -41l-51 17l9 216h238v-53h-185l-5 -105c20 11 44 18 71 18c76 0 124 -46 124 -124v-8c0 -78 -48 -125 -127 -125c-86 0 -128 47 -128 125v7zM144 0h-64l576 780h64z
M277 390h-245v52h93v263l-76 -51l-29 44l122 83h43v-339h92v-52z" />
    <glyph glyph-name="uni2156" unicode="&#x2156;" horiz-adv-x="800" 
d="M522 125h60c0 -56 26 -79 65 -79h5c34 0 66 21 66 72v8c0 51 -32 72 -69 72h-3c-28 0 -58 -14 -70 -41l-51 17l9 216h238v-53h-185l-5 -105c20 11 44 18 71 18c76 0 124 -46 124 -124v-8c0 -78 -48 -125 -127 -125c-86 0 -128 47 -128 125v7zM144 0h-64l576 780h64z
M275 442v-52h-250v37l158 172c23 24 32 40 32 65v5c0 41 -26 64 -64 64h-3c-41 0 -64 -23 -64 -83h-59v11c0 81 39 125 125 125c88 0 125 -50 125 -107v-7c0 -43 -13 -66 -45 -101l-119 -129h164z" />
    <glyph glyph-name="uni2157" unicode="&#x2157;" horiz-adv-x="800" 
d="M522 125h60c0 -56 26 -79 65 -79h5c34 0 66 21 66 72v8c0 51 -32 72 -69 72h-3c-28 0 -58 -14 -70 -41l-51 17l9 216h238v-53h-185l-5 -105c20 11 44 18 71 18c76 0 124 -46 124 -124v-8c0 -78 -48 -125 -127 -125c-86 0 -128 47 -128 125v7zM82 515c0 -56 26 -79 65 -79
h5c34 0 66 19 66 61v7c0 39 -26 59 -63 59h-55v52h53c36 0 62 18 62 56v4c0 35 -26 58 -63 58h-5c-41 0 -63 -23 -63 -83h-59v11c0 81 39 125 125 125c88 0 125 -50 125 -104v-8c0 -44 -22 -71 -51 -85c30 -15 53 -43 53 -88v-9c0 -55 -43 -109 -127 -109
c-86 0 -128 47 -128 125v7h60zM144 0h-64l576 780h64z" />
    <glyph glyph-name="uni2158" unicode="&#x2158;" horiz-adv-x="800" 
d="M522 125h60c0 -56 26 -79 65 -79h5c34 0 66 21 66 72v8c0 51 -32 72 -69 72h-3c-28 0 -58 -14 -70 -41l-51 17l9 216h238v-53h-185l-5 -105c20 11 44 18 71 18c76 0 124 -46 124 -124v-8c0 -78 -48 -125 -127 -125c-86 0 -128 47 -128 125v7zM233 390h-60v93h-159v41
l161 256h58v-244h52v-53h-52v-93zM144 0h-64l576 780h64zM174 683l-94 -148l34 1h59v108z" />
    <glyph glyph-name="uni2159" unicode="&#x2159;" horiz-adv-x="800" 
d="M760 396v-53c-55 0 -104 -17 -135 -58c-16 -19 -26 -41 -32 -65c18 15 43 25 73 25c66 0 113 -43 113 -123v-5c0 -79 -47 -124 -128 -124c-79 0 -128 55 -128 141v6c0 62 14 124 55 179c43 58 110 77 182 77zM144 0h-64l576 780h64zM277 390h-245v52h93v263l-76 -51
l-29 44l122 83h43v-339h92v-52zM652 193c-29 0 -56 -16 -69 -43v-20c0 -54 30 -84 66 -84h3c39 0 67 25 67 70v9c0 45 -26 68 -64 68h-3z" />
    <glyph glyph-name="uni215A" unicode="&#x215a;" horiz-adv-x="800" 
d="M760 396v-53c-55 0 -104 -17 -135 -58c-16 -19 -26 -41 -32 -65c18 15 43 25 73 25c66 0 113 -43 113 -123v-5c0 -79 -47 -124 -128 -124c-79 0 -128 55 -128 141v6c0 62 14 124 55 179c43 58 110 77 182 77zM22 515h60c0 -56 26 -79 65 -79h5c34 0 66 21 66 72v8
c0 51 -32 72 -69 72h-3c-28 0 -58 -14 -70 -41l-51 17l9 216h238v-53h-185l-5 -105c20 11 44 18 71 18c76 0 124 -46 124 -124v-8c0 -78 -48 -125 -127 -125c-86 0 -128 47 -128 125v7zM144 0h-64l576 780h64zM652 193c-29 0 -56 -16 -69 -43v-20c0 -54 30 -84 66 -84h3
c39 0 67 25 67 70v9c0 45 -26 68 -64 68h-3z" />
    <glyph glyph-name="uni215B" unicode="&#x215b;" horiz-adv-x="800" 
d="M650 -7c-85 0 -128 54 -128 109v9c0 45 23 73 54 88c-30 14 -51 41 -51 85v9c0 53 37 103 125 103s125 -50 125 -103v-9c0 -44 -22 -71 -52 -85c31 -15 54 -43 54 -88v-9c0 -55 -43 -109 -127 -109zM144 0h-64l576 780h64zM277 390h-245v52h93v263l-76 -51l-29 44l122 83
h43v-339h92v-52zM645 173c-37 0 -63 -21 -63 -60v-6c0 -42 31 -61 65 -61h5c34 0 66 19 66 61v6c0 39 -26 60 -63 60h-10zM652 343h-5c-37 0 -63 -22 -63 -57v-5c0 -38 26 -56 63 -56h6c36 0 62 18 62 56v5c0 35 -26 57 -63 57z" />
    <glyph glyph-name="uni215C" unicode="&#x215c;" horiz-adv-x="800" 
d="M650 -7c-85 0 -128 54 -128 109v9c0 45 23 73 54 88c-30 14 -51 41 -51 85v9c0 53 37 103 125 103s125 -50 125 -103v-9c0 -44 -22 -71 -52 -85c31 -15 54 -43 54 -88v-9c0 -55 -43 -109 -127 -109zM82 515c0 -56 26 -79 65 -79h5c34 0 66 19 66 61v7c0 39 -26 59 -63 59
h-55v52h53c36 0 62 18 62 56v4c0 35 -26 58 -63 58h-5c-41 0 -63 -23 -63 -83h-59v11c0 81 39 125 125 125c88 0 125 -50 125 -104v-8c0 -44 -22 -71 -51 -85c30 -15 53 -43 53 -88v-9c0 -55 -43 -109 -127 -109c-86 0 -128 47 -128 125v7h60zM144 0h-64l576 780h64z
M645 173c-37 0 -63 -21 -63 -60v-6c0 -42 31 -61 65 -61h5c34 0 66 19 66 61v6c0 39 -26 60 -63 60h-10zM652 343h-5c-37 0 -63 -22 -63 -57v-5c0 -38 26 -56 63 -56h6c36 0 62 18 62 56v5c0 35 -26 57 -63 57z" />
    <glyph glyph-name="uni215D" unicode="&#x215d;" horiz-adv-x="800" 
d="M650 -7c-85 0 -128 54 -128 109v9c0 45 23 73 54 88c-30 14 -51 41 -51 85v9c0 53 37 103 125 103s125 -50 125 -103v-9c0 -44 -22 -71 -52 -85c31 -15 54 -43 54 -88v-9c0 -55 -43 -109 -127 -109zM22 515h60c0 -56 26 -79 65 -79h5c34 0 66 21 66 72v8
c0 51 -32 72 -69 72h-3c-28 0 -58 -14 -70 -41l-51 17l9 216h238v-53h-185l-5 -105c20 11 44 18 71 18c76 0 124 -46 124 -124v-8c0 -78 -48 -125 -127 -125c-86 0 -128 47 -128 125v7zM144 0h-64l576 780h64zM645 173c-37 0 -63 -21 -63 -60v-6c0 -42 31 -61 65 -61h5
c34 0 66 19 66 61v6c0 39 -26 60 -63 60h-10zM652 343h-5c-37 0 -63 -22 -63 -57v-5c0 -38 26 -56 63 -56h6c36 0 62 18 62 56v5c0 35 -26 57 -63 57z" />
    <glyph glyph-name="uni215E" unicode="&#x215e;" horiz-adv-x="800" 
d="M650 -7c-85 0 -128 54 -128 109v9c0 45 23 73 54 88c-30 14 -51 41 -51 85v9c0 53 37 103 125 103s125 -50 125 -103v-9c0 -44 -22 -71 -52 -85c31 -15 54 -43 54 -88v-9c0 -55 -43 -109 -127 -109zM144 0h-64l576 780h64zM23 640v140h256v-37l-144 -353h-63l139 338
l-51 -1h-84v-87h-53zM645 173c-37 0 -63 -21 -63 -60v-6c0 -42 31 -61 65 -61h5c34 0 66 19 66 61v6c0 39 -26 60 -63 60h-10zM652 343h-5c-37 0 -63 -22 -63 -57v-5c0 -38 26 -56 63 -56h6c36 0 62 18 62 56v5c0 35 -26 57 -63 57z" />
    <glyph glyph-name="onesixteenth" unicode="&#xf215;" horiz-adv-x="1100" 
d="M1060 396v-53c-55 0 -104 -17 -135 -58c-16 -19 -26 -41 -32 -65c18 15 43 25 73 25c66 0 113 -43 113 -123v-5c0 -79 -47 -124 -128 -124c-79 0 -128 55 -128 141v6c0 62 14 124 55 179c43 58 110 77 182 77zM144 0h-64l576 780h64zM277 390h-245v52h93v263l-76 -51
l-29 44l122 83h43v-339h92v-52zM777 0h-245v52h93v263l-76 -51l-29 44l122 83h43v-339h92v-52zM952 193c-29 0 -56 -16 -69 -43v-20c0 -54 30 -84 66 -84h3c39 0 67 25 67 70v9c0 45 -26 68 -64 68h-3z" />
    <glyph glyph-name="threesixteenths" unicode="&#xf216;" horiz-adv-x="1100" 
d="M1060 396v-53c-55 0 -104 -17 -135 -58c-16 -19 -26 -41 -32 -65c18 15 43 25 73 25c66 0 113 -43 113 -123v-5c0 -79 -47 -124 -128 -124c-79 0 -128 55 -128 141v6c0 62 14 124 55 179c43 58 110 77 182 77zM82 515c0 -56 26 -79 65 -79h5c34 0 66 19 66 61v7
c0 39 -26 59 -63 59h-55v52h53c36 0 62 18 62 56v4c0 35 -26 58 -63 58h-5c-41 0 -63 -23 -63 -83h-59v11c0 81 39 125 125 125c88 0 125 -50 125 -104v-8c0 -44 -22 -71 -51 -85c30 -15 53 -43 53 -88v-9c0 -55 -43 -109 -127 -109c-86 0 -128 47 -128 125v7h60zM144 0h-64
l576 780h64zM777 0h-245v52h93v263l-76 -51l-29 44l122 83h43v-339h92v-52zM952 193c-29 0 -56 -16 -69 -43v-20c0 -54 30 -84 66 -84h3c39 0 67 25 67 70v9c0 45 -26 68 -64 68h-3z" />
    <glyph glyph-name="fivesixteenths" unicode="&#xf217;" horiz-adv-x="1100" 
d="M1060 396v-53c-55 0 -104 -17 -135 -58c-16 -19 -26 -41 -32 -65c18 15 43 25 73 25c66 0 113 -43 113 -123v-5c0 -79 -47 -124 -128 -124c-79 0 -128 55 -128 141v6c0 62 14 124 55 179c43 58 110 77 182 77zM22 515h60c0 -56 26 -79 65 -79h5c34 0 66 21 66 72v8
c0 51 -32 72 -69 72h-3c-28 0 -58 -14 -70 -41l-51 17l9 216h238v-53h-185l-5 -105c20 11 44 18 71 18c76 0 124 -46 124 -124v-8c0 -78 -48 -125 -127 -125c-86 0 -128 47 -128 125v7zM144 0h-64l576 780h64zM777 0h-245v52h93v263l-76 -51l-29 44l122 83h43v-339h92v-52z
M952 193c-29 0 -56 -16 -69 -43v-20c0 -54 30 -84 66 -84h3c39 0 67 25 67 70v9c0 45 -26 68 -64 68h-3z" />
    <glyph glyph-name="sevensixteenths" unicode="&#xf218;" horiz-adv-x="1100" 
d="M1060 396v-53c-55 0 -104 -17 -135 -58c-16 -19 -26 -41 -32 -65c18 15 43 25 73 25c66 0 113 -43 113 -123v-5c0 -79 -47 -124 -128 -124c-79 0 -128 55 -128 141v6c0 62 14 124 55 179c43 58 110 77 182 77zM144 0h-64l576 780h64zM23 640v140h256v-37l-144 -353h-63
l139 338l-51 -1h-84v-87h-53zM777 0h-245v52h93v263l-76 -51l-29 44l122 83h43v-339h92v-52zM952 193c-29 0 -56 -16 -69 -43v-20c0 -54 30 -84 66 -84h3c39 0 67 25 67 70v9c0 45 -26 68 -64 68h-3z" />
    <glyph glyph-name="ninesixteenths" unicode="&#xf219;" horiz-adv-x="1100" 
d="M1060 396v-53c-55 0 -104 -17 -135 -58c-16 -19 -26 -41 -32 -65c18 15 43 25 73 25c66 0 113 -43 113 -123v-5c0 -79 -47 -124 -128 -124c-79 0 -128 55 -128 141v6c0 62 14 124 55 179c43 58 110 77 182 77zM39 383v53c56 1 104 17 136 58c15 19 25 42 32 66
c-19 -15 -44 -25 -74 -25c-66 0 -112 43 -112 122v5c0 79 47 124 128 124c78 0 127 -54 127 -141v-5c0 -62 -13 -124 -55 -180c-43 -57 -110 -77 -182 -77zM144 0h-64l576 780h64zM777 0h-245v52h93v263l-76 -51l-29 44l122 83h43v-339h92v-52zM952 193
c-29 0 -56 -16 -69 -43v-20c0 -54 30 -84 66 -84h3c39 0 67 25 67 70v9c0 45 -26 68 -64 68h-3zM148 587c28 0 55 15 69 42v21c0 53 -30 83 -67 83h-3c-39 0 -66 -25 -66 -69v-9c0 -46 26 -68 64 -68h3z" />
    <glyph glyph-name="elevensixteenths" unicode="&#xf220;" horiz-adv-x="1400" 
d="M1360 396v-53c-55 0 -104 -17 -135 -58c-16 -19 -26 -41 -32 -65c18 15 43 25 73 25c66 0 113 -43 113 -123v-5c0 -79 -47 -124 -128 -124c-79 0 -128 55 -128 141v6c0 62 14 124 55 179c43 58 110 77 182 77zM444 0h-64l576 780h64zM1077 0h-245v52h93v263l-76 -51
l-29 44l122 83h43v-339h92v-52zM577 390h-245v52h93v263l-76 -51l-29 44l122 83h43v-339h92v-52zM277 390h-245v52h93v263l-76 -51l-29 44l122 83h43v-339h92v-52zM1252 193c-29 0 -56 -16 -69 -43v-20c0 -54 30 -84 66 -84h3c39 0 67 25 67 70v9c0 45 -26 68 -64 68h-3z
" />
    <glyph glyph-name="thirteensixteenths" unicode="&#xf221;" horiz-adv-x="1400" 
d="M1360 396v-53c-55 0 -104 -17 -135 -58c-16 -19 -26 -41 -32 -65c18 15 43 25 73 25c66 0 113 -43 113 -123v-5c0 -79 -47 -124 -128 -124c-79 0 -128 55 -128 141v6c0 62 14 124 55 179c43 58 110 77 182 77zM382 515c0 -56 26 -79 65 -79h5c34 0 66 19 66 61v7
c0 39 -26 59 -63 59h-55v52h53c36 0 62 18 62 56v4c0 35 -26 58 -63 58h-5c-41 0 -63 -23 -63 -83h-59v11c0 81 39 125 125 125c88 0 125 -50 125 -104v-8c0 -44 -22 -71 -51 -85c30 -15 53 -43 53 -88v-9c0 -55 -43 -109 -127 -109c-86 0 -128 47 -128 125v7h60zM444 0h-64
l576 780h64zM277 390h-245v52h93v263l-76 -51l-29 44l122 83h43v-339h92v-52zM1077 0h-245v52h93v263l-76 -51l-29 44l122 83h43v-339h92v-52zM1252 193c-29 0 -56 -16 -69 -43v-20c0 -54 30 -84 66 -84h3c39 0 67 25 67 70v9c0 45 -26 68 -64 68h-3z" />
    <glyph glyph-name="fifteensixteenths" unicode="&#xf222;" horiz-adv-x="1400" 
d="M1360 396v-53c-55 0 -104 -17 -135 -58c-16 -19 -26 -41 -32 -65c18 15 43 25 73 25c66 0 113 -43 113 -123v-5c0 -79 -47 -124 -128 -124c-79 0 -128 55 -128 141v6c0 62 14 124 55 179c43 58 110 77 182 77zM322 515h60c0 -56 26 -79 65 -79h5c34 0 66 21 66 72v8
c0 51 -32 72 -69 72h-3c-28 0 -58 -14 -70 -41l-51 17l9 216h238v-53h-185l-5 -105c20 11 44 18 71 18c76 0 124 -46 124 -124v-8c0 -78 -48 -125 -127 -125c-86 0 -128 47 -128 125v7zM444 0h-64l576 780h64zM277 390h-245v52h93v263l-76 -51l-29 44l122 83h43v-339h92v-52
zM1077 0h-245v52h93v263l-76 -51l-29 44l122 83h43v-339h92v-52zM1252 193c-29 0 -56 -16 -69 -43v-20c0 -54 30 -84 66 -84h3c39 0 67 25 67 70v9c0 45 -26 68 -64 68h-3z" />
    <glyph glyph-name="fi" unicode="&#xe38c;" horiz-adv-x="596" 
d="M185 644v-114h149v-63h-149v-467h-70v467h-84v63h84v123c0 115 65 158 155 158c42 0 66 -8 74 -11v-61c-8 4 -35 9 -57 9c-67 0 -102 -20 -102 -104zM453 0v530h70v-530h-70zM533 745v-90h-90v90h90z" />
    <glyph glyph-name="fi" unicode="&#xfb01;" horiz-adv-x="596" 
d="M185 644v-114h149v-63h-149v-467h-70v467h-84v63h84v123c0 115 65 158 155 158c42 0 66 -8 74 -11v-61c-8 4 -35 9 -57 9c-67 0 -102 -20 -102 -104zM453 0v530h70v-530h-70zM533 745v-90h-90v90h90z" />
    <glyph glyph-name="fl" unicode="&#xe38d;" horiz-adv-x="596" 
d="M185 644v-114h149v-63h-149v-467h-70v467h-84v63h84v123c0 115 65 158 155 158c42 0 66 -8 74 -11v-61c-8 4 -35 9 -57 9c-67 0 -102 -20 -102 -104zM453 0v800h70v-800h-70z" />
    <glyph glyph-name="fl" unicode="&#xfb02;" horiz-adv-x="596" 
d="M185 644v-114h149v-63h-149v-467h-70v467h-84v63h84v123c0 115 65 158 155 158c42 0 66 -8 74 -11v-61c-8 4 -35 9 -57 9c-67 0 -102 -20 -102 -104zM453 0v800h70v-800h-70z" />
    </font>
</defs>
</svg>
